<svg width="35" height="35" viewBox="0 0 35 35" fill="none" xmlns="http://www.w3.org/2000/svg">
<path d="M17.5001 0C7.84579 0 8.75064e-05 7.8457 8.75064e-05 17.5C-0.00155229 17.6159 0.0198689 17.7311 0.0631059 17.8387C0.106343 17.9463 0.170534 18.0442 0.251947 18.1268C0.333361 18.2093 0.430375 18.2749 0.53735 18.3197C0.644325 18.3644 0.759128 18.3875 0.875088 18.3875C0.991047 18.3875 1.10585 18.3644 1.21283 18.3197C1.3198 18.2749 1.41681 18.2093 1.49823 18.1268C1.57964 18.0442 1.64383 17.9463 1.68707 17.8387C1.73031 17.7311 1.75173 17.6159 1.75009 17.5C1.75009 8.79155 8.79164 1.75 17.5001 1.75C22.9647 1.75 27.7622 4.53246 30.5875 8.75H25.3751C25.2591 8.74836 25.144 8.76978 25.0364 8.81302C24.9288 8.85625 24.8309 8.92045 24.7483 9.00186C24.6658 9.08327 24.6002 9.18029 24.5554 9.28726C24.5107 9.39424 24.4876 9.50904 24.4876 9.625C24.4876 9.74096 24.5107 9.85576 24.5554 9.96274C24.6002 10.0697 24.6658 10.1667 24.7483 10.2481C24.8309 10.3296 24.9288 10.3937 25.0364 10.437C25.144 10.4802 25.2591 10.5016 25.3751 10.5H32.1666H33.2501V2.625C33.2517 2.50793 33.2298 2.39174 33.1857 2.28329C33.1416 2.17484 33.0761 2.07635 32.9933 1.99364C32.9104 1.91094 32.8118 1.8457 32.7033 1.80179C32.5947 1.75789 32.4785 1.73621 32.3614 1.73804C32.1297 1.74166 31.9088 1.83709 31.7473 2.00338C31.5858 2.16966 31.4969 2.39323 31.5001 2.625V7.00854C28.3056 2.75489 23.2215 0 17.5001 0ZM16.6251 7.875V9.7002C15.1288 9.93868 14.1539 10.7617 13.6788 11.5903C13.1161 12.5717 13.1251 13.5522 13.1251 13.5522C13.1251 14.9 13.8316 15.9458 14.7213 16.5823C15.611 17.2187 16.6575 17.5713 17.6351 17.9307C18.6127 18.29 19.5164 18.6543 20.1012 19.1167C20.6859 19.5791 21.0001 20.0465 21.0001 21C21.0001 21 20.9944 21.6342 20.5865 22.2869C20.1786 22.9395 19.4543 23.625 17.5001 23.625C15.6043 23.625 14.8972 22.8062 14.4547 21.9211C14.0122 21.0361 14.0001 20.125 14.0001 20.125H12.2501C12.2501 20.125 12.238 21.4014 12.8892 22.7039C13.4599 23.8451 14.6672 25.0358 16.6251 25.3135V27.125H18.3751V25.3254C20.279 25.104 21.4711 24.1712 22.0699 23.2131C22.7557 22.1158 22.7501 21 22.7501 21C22.7501 19.5656 22.0799 18.4496 21.1881 17.7444C20.2963 17.0392 19.2313 16.6527 18.2401 16.2883C17.2489 15.924 16.3267 15.5785 15.7398 15.1587C15.153 14.7389 14.8751 14.3696 14.8751 13.5522C14.8751 13.5522 14.8841 13.0065 15.1964 12.4619C15.5087 11.9173 16.0044 11.375 17.5001 11.375C18.9584 11.375 19.4467 11.9751 19.7799 12.6414C20.113 13.3077 20.1251 14 20.1251 14H21.8751C21.8751 14 21.8872 12.9423 21.3453 11.8586C20.8862 10.9404 19.9044 9.98225 18.3751 9.70874V7.875H16.6251ZM34.1114 16.613C33.8797 16.6167 33.6588 16.7121 33.4973 16.8784C33.3358 17.0447 33.2469 17.2682 33.2501 17.5C33.2501 26.2084 26.2085 33.25 17.5001 33.25C12.0351 33.25 7.23729 30.4673 4.41269 26.25L9.62509 26.2517C9.74104 26.2533 9.85615 26.2319 9.96375 26.1887C10.0713 26.1455 10.1693 26.0813 10.2519 25.9998C10.3344 25.9184 10.4 25.8214 10.4447 25.7144C10.4895 25.6075 10.5126 25.4927 10.5126 25.3767C10.5126 25.2607 10.4895 25.1459 10.4447 25.039C10.4 24.932 10.3344 24.835 10.2519 24.7536C10.1693 24.6722 10.0713 24.608 9.96375 24.5647C9.85615 24.5215 9.74104 24.5001 9.62509 24.5017L3.01474 24.5C2.90302 24.478 2.78808 24.478 2.67636 24.5H1.75009V32.375C1.74845 32.4909 1.76987 32.6061 1.81311 32.7137C1.85634 32.8213 1.92053 32.9192 2.00195 33.0018C2.08336 33.0843 2.18037 33.1499 2.28735 33.1947C2.39433 33.2394 2.50913 33.2625 2.62509 33.2625C2.74105 33.2625 2.85585 33.2394 2.96283 33.1947C3.0698 33.1499 3.16681 33.0843 3.24823 33.0018C3.32964 32.9192 3.39383 32.8213 3.43707 32.7137C3.48031 32.6061 3.50173 32.4909 3.50009 32.375V27.988C6.69356 32.243 11.7772 35 17.5001 35C27.1544 35 35.0001 27.1543 35.0001 17.5C35.0017 17.3829 34.9798 17.2667 34.9357 17.1583C34.8916 17.0498 34.8261 16.9513 34.7433 16.8686C34.6604 16.7859 34.5618 16.7207 34.4533 16.6768C34.3447 16.6329 34.2285 16.6112 34.1114 16.613Z" fill="#2F2F2F"/>
</svg>
