<svg width="56" height="40" viewBox="0 0 56 40" fill="none" xmlns="http://www.w3.org/2000/svg">
<path d="M14.07 4.25995C14.07 4.25995 12.06 4.90995 11.54 6.32995C11.3 6.98995 10.8 11.8899 9.36 13.6299C7.92 15.3699 14.94 11.2099 14.94 11.2099L14.07 4.26995V4.25995Z" fill="url(#paint0_linear_239_272)"/>
<path d="M0.16 11.71C2.61 10.42 4.43 13.62 8.07 13.97C11.71 14.32 12.17 4.72999 14.06 4.25999C15.96 3.78999 24.57 15.13 28.77 16.33L28.28 32.5C28.28 32.5 12.81 32.35 10.47 31.46C8.11 30.57 0.16 11.71 0.16 11.71Z" fill="url(#paint1_linear_239_272)"/>
<path d="M55.57 11.58C55.57 11.58 53.86 15.66 51.79 20.13C50.6 22.71 49.28 25.42 48.11 27.54C46.93 29.67 45.9 31.22 45.26 31.46C43.24 32.23 31.54 32.44 28.29 32.49H27.9C27.61 32.49 27.45 32.49 27.45 32.49L27.37 29.72L26.96 16.32C27.24 16.24 27.55 16.11 27.87 15.94C29.67 15 32 12.81 34.25 10.57C37.52 7.31998 40.61 3.96998 41.66 4.22998C43.55 4.69998 42.83 14.52 46.46 14.18C50.1 13.83 53.73 10.49 55.57 11.57V11.58Z" fill="url(#paint2_linear_239_272)"/>
<path d="M45.87 14.15C43.07 11.92 44.18 7.95 43.69 6.64C43.02 4.86 41.66 4.25 41.66 4.25C41.66 4.25 42.45 4.82 43.07 9.2C43.69 13.58 45.87 14.15 45.87 14.15Z" fill="url(#paint3_linear_239_272)"/>
<g style="mix-blend-mode:multiply" opacity="0.5">
<path d="M51.79 20.13C50.6 22.71 49.28 25.42 48.11 27.54L28.37 29.63L27.36 29.73L16.74 30.85L5.91 21.21C4.76 17.35 11.92 12.35 21.55 10.67C25.5 9.97997 29.86 9.84997 34.24 10.58C35.23 10.74 36.21 10.95 37.19 11.2C44.84 13.19 49.26 16.85 51.78 20.12L51.79 20.13Z" fill="#DE376D"/>
</g>
<path d="M55.7 11.83C55.45 9.95996 49.82 17.46 45.67 18.33C41.54 19.19 34.54 2.73996 28.51 0.649963C22.47 2.73996 15.72 19.2 11.6 18.33C7.45 17.46 0.26 10.1 -1.84402e-07 11.97C-0.25 13.81 6.01 27.44 6.01 27.44C15.26 29.5 28.43 30.19 28.43 30.19C28.43 30.19 41.6 29.5 50.86 27.44C50.86 27.44 55.95 13.68 55.7 11.84V11.83Z" fill="url(#paint4_linear_239_272)"/>
<path d="M6.02 27.4399L6.36 35.6799C6.36 35.6799 14.79 39.0999 28.42 39.0999C42.05 39.0999 51.09 35.4399 51.09 35.4399L50.88 27.4499C50.88 27.4499 29.07 31.5399 6.03 27.4499L6.02 27.4399Z" fill="url(#paint5_linear_239_272)"/>
<path d="M5.16 25.5499C5.16 25.5499 3.85 26.1199 3.91 26.7399C3.98 27.3599 6.07 28.9599 6.07 28.9599C6.07 28.9599 27.7 34.5699 50.88 28.4999C50.88 28.4999 52.59 26.7399 52.74 26.0399C52.89 25.3299 51.64 25.2599 51.64 25.2599C51.64 25.2599 42.49 29.2699 27.84 29.2699C13.19 29.2699 5.15 25.5399 5.15 25.5399L5.16 25.5499Z" fill="url(#paint6_linear_239_272)"/>
<path d="M45.87 14.1499C47.61 14.8299 52.05 12.4599 52.97 12.6599C53.89 12.8599 46.95 17.6999 44.89 17.6199C42.83 17.5399 40.86 14.7599 40.86 14.7599C40.86 14.7599 42.82 18.1899 45.03 18.5999C49.06 19.3599 55.27 12.1299 55.57 11.5799C55.87 11.0199 54.89 11.0599 52.34 11.8899C49.66 12.7599 48.56 14.1899 45.88 14.1499H45.87Z" fill="url(#paint7_linear_239_272)"/>
<path d="M9.15 13.75C7.24 14.77 4.63 12.87 3.71 13.07C2.78 13.27 9.08 17.95 11.14 17.86C13.2 17.78 16.21 14.93 16.21 14.93C16.21 14.93 13.9 18.24 11.69 18.66C7.66 19.42 0.46 12.27 0.16 11.71C-0.14 11.15 0.89 11.06 3.45 11.89C6.13 12.76 6.46 14.01 9.15 13.75Z" fill="url(#paint8_linear_239_272)"/>
<path d="M19.48 10.39C19.48 10.39 26.48 1.71997 29.1 2.29997C31.72 2.86997 35.95 8.00997 35.95 8.00997C35.95 7.99997 30.88 0.169971 28.55 -2.93771e-05C26.21 -0.160029 19.48 10.39 19.48 10.39Z" fill="url(#paint9_linear_239_272)"/>
<path d="M22.02 27.97C16.41 25.52 25.07 15.36 28.22 14.05C31.38 12.74 40.59 24.66 36.36 26.89C31.08 29.68 22.01 27.97 22.01 27.97H22.02Z" fill="url(#paint10_linear_239_272)"/>
<path d="M21.29 25.6399C20.84 21.6299 25.12 15.9899 28.78 15.4999C32.44 15.0099 37.55 22.6899 36.93 25.6399C36.31 28.5899 21.67 28.9699 21.29 25.6399Z" fill="url(#paint11_linear_239_272)"/>
<g style="mix-blend-mode:soft-light">
<path d="M24.07 24.96C23.77 23.43 27.34 18.94 29.11 18.51C30.88 18.08 33.98 22.57 33.98 24.41C33.98 26.25 24.38 26.56 24.07 24.96Z" fill="white"/>
</g>
<path opacity="0.75" d="M21.6 24.35C22.01 25.09 23.53 25.03 24.06 24.1C24.59 23.18 28.86 18.63 29.02 17.89C29.18 17.15 28.78 15.49 28.78 15.49C28.78 15.49 22.89 16.97 21.6 24.34V24.35Z" fill="white"/>
<g style="mix-blend-mode:multiply" opacity="0.8">
<path d="M21.9 26.61C21.27 26.01 24.32 25.31 24.32 25.31C24.32 25.31 26.4 26.23 29.02 26.09C31.64 25.95 33.32 24.98 33.76 24.87C34.2 24.76 36.22 25.89 36.27 26.28C36.32 26.66 33.29 28 28.96 28C24.63 28 21.9 26.61 21.9 26.61Z" fill="#B82774"/>
</g>
<path d="M21.25 27.5199C21.25 27.5199 25.35 28.3199 29.02 28.1999C34.88 28.0099 37.2 26.0699 37.2 26.0699C37.2 26.0699 36.69 28.4899 29.02 28.6199C22.53 28.7299 21.25 27.5199 21.25 27.5199Z" fill="url(#paint12_linear_239_272)"/>
<path d="M25.03 17.85C25.03 17.85 24.7 19.81 26.09 20.17C27.48 20.53 28.62 18.26 28.82 17.55C29.02 16.84 28.78 15.49 28.78 15.49C28.78 15.49 26.08 16.54 25.03 17.85Z" fill="white"/>
<path d="M33.87 23.69C33.77 23.6 32.98 25.09 33.18 25.1C33.38 25.1 34.46 25.03 34.6 25.1C34.74 25.16 34.24 24.04 33.88 23.69H33.87Z" fill="white"/>
<g style="mix-blend-mode:multiply" opacity="0.7">
<path d="M6.08 28.9699C6.08 28.9699 29.92 37.5899 50.89 28.5099C50.89 28.5099 32.36 34.4599 6.08 28.9699Z" fill="#DE376D"/>
</g>
<g style="mix-blend-mode:soft-light">
<path d="M33.14 29.16C29.75 30.82 36.36 30.57 40.85 30.18C45.34 29.79 48.16 27.28 48.23 26.85C48.3 26.42 33.14 29.15 33.14 29.15V29.16Z" fill="white"/>
</g>
<g style="mix-blend-mode:multiply" opacity="0.2">
<path d="M9.75 29.26C6.92 28.32 8.91 27.06 15.76 28.49C22.61 29.92 14.56 30.86 9.75 29.26Z" fill="#E02774"/>
</g>
<g style="mix-blend-mode:soft-light" opacity="0.5">
<path d="M17.95 13.94C15.66 16.69 12.77 27.43 17.8 26.42C19.58 26.06 22.22 14.74 28.15 12.77C34.08 10.8 39.06 23.88 40.86 24.84C42.66 25.8 44.31 21.36 44.31 20.2C44.31 19.04 32.92 2.65999 28.55 3.22999C24.18 3.79999 25 5.47999 17.95 13.94Z" fill="white"/>
</g>
<g style="mix-blend-mode:multiply" opacity="0.2">
<path d="M3.92 16.46C3.92 16.03 9.35 18.88 11.01 21.22C12.66 23.56 13.92 27.33 13.99 27.68C14.06 28.03 9.5 27.23 8.37 26.43C7.23 25.63 3.93 16.46 3.93 16.46H3.92Z" fill="#E02774"/>
</g>
<g style="mix-blend-mode:multiply" opacity="0.2">
<path d="M8.93 35.98C7.41 35.32 8.47 31.18 8.73 30.69C9 30.2 20.66 32.01 22.46 32.44C24.26 32.87 24.5 38.04 24.33 38.62C24.16 39.19 12.48 37.52 8.93 35.99V35.98Z" fill="#E02774"/>
</g>
<g style="mix-blend-mode:soft-light">
<path d="M33.98 38.89C32.08 39.06 35.3 32.96 35.95 32.67C36.6 32.38 45.45 30.22 46.29 30.48C47.13 30.74 47.53 36.59 47.53 36.59C47.53 36.59 40.04 38.36 33.99 38.89H33.98Z" fill="white"/>
</g>
<path d="M29.6 0.989979C28.31 0.559979 30.32 3.85998 32.34 5.04998C34.36 6.23998 31.58 1.65998 29.6 0.989979Z" fill="white"/>
<path d="M47.21 18.38C45.68 18.54 50.46 14.95 52.04 14.16C53.62 13.37 51.39 17.95 47.21 18.38Z" fill="white"/>
<path d="M41.66 27.8399C40.38 28.3299 43.97 28.7699 45.49 28.3899C47.02 28.0199 47.26 27.0899 47.52 26.8399C47.78 26.5899 41.65 27.8399 41.65 27.8399H41.66Z" fill="white"/>
<g style="mix-blend-mode:soft-light">
<path d="M4.36 26.43C3.94 27.02 6.48 28.45 7.25 28.49C8.02 28.52 9.31 27.75 9.55 27.46C9.79 27.17 4.93 25.63 4.36 26.43Z" fill="white"/>
</g>
<g style="mix-blend-mode:soft-light">
<path d="M6.79 29.53C6.25 29.31 6.21 35.46 6.94 35.55C7.67 35.64 8.41 31.45 8.51 30.6C8.61 29.75 6.79 29.53 6.79 29.53Z" fill="white"/>
</g>
<g style="mix-blend-mode:soft-light">
<path d="M1.03 14.72C1.07 13.44 6.51 22.77 6.93 24.34C7.35 25.91 5.57 25.9 5.16 25.26C4.75 24.62 1.01 15.49 1.03 14.72Z" fill="white"/>
</g>
<g style="mix-blend-mode:multiply" opacity="0.3">
<path d="M49.11 25.6699C46.79 26.0599 49.26 18.9599 52.77 15.4199C56.28 11.8799 51.28 24.9499 51.08 25.2599C50.88 25.5699 49.11 25.6699 49.11 25.6699Z" fill="#FF6F74"/>
</g>
<g style="mix-blend-mode:multiply" opacity="0.3">
<path d="M47.53 29.81C46.85 30.33 47.51 35.67 47.88 36.02C48.25 36.37 50.35 35.37 50.7 35C51.05 34.63 50.94 29.75 50.7 29.22C50.46 28.69 47.53 29.81 47.53 29.81Z" fill="#FF6F74"/>
</g>
<g style="mix-blend-mode:multiply" opacity="0.7">
<path d="M6.22 32.5C6.22 32.5 10.2 39.77 29.66 38.73C49.12 37.7 50.92 32.66 50.92 32.66L51.07 35.43C51.07 35.43 29.77 43.65 6.35 35.67L6.22 32.5Z" fill="#DE376D"/>
</g>
<path d="M1.03 11.8899C0.44 12.5999 4.21 15.4599 4.81 15.8899C5.41 16.3199 6.45 16.4099 6.63 16.4099C6.81 16.4099 2.32 11.9999 1.03 11.8799V11.8899Z" fill="white"/>
<path d="M30.41 28.44C30.17 27.83 34.33 27.85 34.33 27.85C34.33 27.85 31.85 28.89 30.41 28.44Z" fill="white"/>
<g style="mix-blend-mode:multiply" opacity="0.8">
<path d="M20.19 25.5C20.19 25.5 23.84 16.02 28.82 15.68C33.8 15.34 37.45 25.1 37.45 25.1C37.47 21.79 32.67 13.67 29.11 13.23C25.56 12.78 20 22.26 20.19 25.5Z" fill="#D12774"/>
</g>
<g style="mix-blend-mode:multiply" opacity="0.7">
<path d="M5.16 25.55C5.16 25.55 25.53 33.32 51.65 25.26L52.95 21.55C52.95 21.55 44.56 29.04 28.4 28.64C12.23 28.24 4.13 23.18 4.13 23.18L5.16 25.54V25.55Z" fill="#DE376D"/>
</g>
<defs>
<linearGradient id="paint0_linear_239_272" x1="12.05" y1="14.0499" x2="12.05" y2="4.25995" gradientUnits="userSpaceOnUse">
<stop offset="0.05" stop-color="#F33C00"/>
<stop offset="1" stop-color="#FF4F04"/>
</linearGradient>
<linearGradient id="paint1_linear_239_272" x1="14.47" y1="32.5" x2="14.47" y2="4.24999" gradientUnits="userSpaceOnUse">
<stop offset="0.05" stop-color="#FF3F00"/>
<stop offset="1" stop-color="#FF7C04"/>
</linearGradient>
<linearGradient id="paint2_linear_239_272" x1="41.26" y1="32.5" x2="41.26" y2="4.23998" gradientUnits="userSpaceOnUse">
<stop offset="0.05" stop-color="#FF3F00"/>
<stop offset="1" stop-color="#FF7C04"/>
</linearGradient>
<linearGradient id="paint3_linear_239_272" x1="43.76" y1="14.15" x2="43.76" y2="4.25" gradientUnits="userSpaceOnUse">
<stop offset="0.05" stop-color="#F33C00"/>
<stop offset="1" stop-color="#FF4F04"/>
</linearGradient>
<linearGradient id="paint4_linear_239_272" x1="-1.84375e-07" y1="15.42" x2="55.71" y2="15.42" gradientUnits="userSpaceOnUse">
<stop stop-color="#FF9600"/>
<stop offset="1" stop-color="#FFA900"/>
</linearGradient>
<linearGradient id="paint5_linear_239_272" x1="6.02" y1="33.2599" x2="51.08" y2="33.2599" gradientUnits="userSpaceOnUse">
<stop stop-color="#FF9600"/>
<stop offset="1" stop-color="#FFA900"/>
</linearGradient>
<linearGradient id="paint6_linear_239_272" x1="3.92" y1="28.2899" x2="52.76" y2="28.2899" gradientUnits="userSpaceOnUse">
<stop stop-color="#FF9600"/>
<stop offset="1" stop-color="#FFA900"/>
</linearGradient>
<linearGradient id="paint7_linear_239_272" x1="48.24" y1="18.6599" x2="48.24" y2="11.2099" gradientUnits="userSpaceOnUse">
<stop stop-color="#FFDE00"/>
<stop offset="1" stop-color="#FFE834"/>
</linearGradient>
<linearGradient id="paint8_linear_239_272" x1="8.16" y1="18.72" x2="8.16" y2="11.28" gradientUnits="userSpaceOnUse">
<stop stop-color="#FFDE00"/>
<stop offset="1" stop-color="#FFE834"/>
</linearGradient>
<linearGradient id="paint9_linear_239_272" x1="27.71" y1="10.39" x2="27.71" y2="-2.89143e-05" gradientUnits="userSpaceOnUse">
<stop stop-color="#FFDE00"/>
<stop offset="1" stop-color="#FFE834"/>
</linearGradient>
<linearGradient id="paint10_linear_239_272" x1="28.82" y1="28.49" x2="28.82" y2="13.94" gradientUnits="userSpaceOnUse">
<stop offset="0.05" stop-color="#FF4B00"/>
<stop offset="1" stop-color="#FF7204"/>
</linearGradient>
<linearGradient id="paint11_linear_239_272" x1="29.12" y1="27.9999" x2="29.12" y2="15.4699" gradientUnits="userSpaceOnUse">
<stop stop-color="#DE0086"/>
<stop offset="1" stop-color="#FF003B"/>
</linearGradient>
<linearGradient id="paint12_linear_239_272" x1="21.25" y1="27.3499" x2="37.2" y2="27.3499" gradientUnits="userSpaceOnUse">
<stop stop-color="#FFDE00"/>
<stop offset="1" stop-color="#FFE834"/>
</linearGradient>
</defs>
</svg>
