<svg width="30" height="30" viewBox="0 0 30 30" fill="none" xmlns="http://www.w3.org/2000/svg">
<path d="M15 0C23.2844 0 30 6.71559 30 15C30 23.2844 23.2844 30 15 30C6.71559 30 0 23.2844 0 15C0 6.71559 6.71559 0 15 0ZM20.1741 21.1147C20.4494 20.2685 21.7429 11.8315 21.9018 10.1691C21.9503 9.66529 21.7906 9.33088 21.48 9.18176C21.1032 9.00088 20.5447 9.09088 19.8971 9.32471C19.0085 9.645 7.65353 14.4662 6.99706 14.7459C6.37588 15.0106 5.78647 15.2982 5.78647 15.7165C5.78647 16.0103 5.96118 16.1753 6.44118 16.3465C6.94059 16.5247 8.19882 16.9059 8.94177 17.1106C9.65735 17.3082 10.4718 17.1371 10.9279 16.8529C11.4115 16.5521 16.9968 12.8153 17.3974 12.4879C17.7979 12.1606 18.1174 12.5797 17.79 12.9079C17.4626 13.2353 13.6297 16.9562 13.1232 17.4715C12.5091 18.0971 12.945 18.7447 13.3571 19.005C13.8274 19.3015 17.2085 21.5691 17.7185 21.9335C18.2285 22.2971 18.7438 22.4621 19.2176 22.4621C19.6906 22.4612 19.9385 21.8374 20.1741 21.1147Z" fill="white"/>
</svg>
