<svg width="66" height="55" viewBox="0 0 66 55" fill="none" xmlns="http://www.w3.org/2000/svg">
<path d="M57.58 14.55C61.3 15.35 59.99 28.82 59.06 29.74C58.13 30.67 63.91 30.67 63.91 30.67C63.91 30.67 63.11 13.99 61.98 12.88C60.85 11.77 57.58 14.55 57.58 14.55Z" fill="url(#paint0_linear_239_20)"/>
<path d="M51.47 6.73004C51.47 6.73004 51.47 6.81004 51.45 6.95004C51.41 7.63004 51.26 9.83004 50.93 13.19L50.91 13.39C50.74 15.12 50.53 17.16 50.26 19.44C50.07 21.1 49.85 22.88 49.6 24.78C49.47 25.75 49.27 26.65 49 27.51C48.23 29.99 46.94 32 45.45 33.68C45.03 34.15 44.6 34.59 44.16 35.01L44.15 35.02C41.69 37.35 38.96 38.97 37.17 40.31C37.15 40.33 37.13 40.34 37.11 40.36C36.92 40.51 36.74 40.65 36.57 40.79C36.49 40.85 36.44 40.89 36.42 40.91C36.28 41.03 36.15 41.15 36.03 41.27C35.77 41.53 35.57 41.78 35.43 42.02C33.66 45.04 34.43 46.09 37.09 47.78C37.45 48.01 37.79 48.22 38.12 48.42C38.15 48.45 38.18 48.46 38.21 48.48C40.27 49.77 41.63 50.78 41.63 53.46C41.63 53.46 36.2 54.09 32.54 54.09C28.88 54.09 23.45 53.46 23.45 53.46C23.45 51.2 24.42 50.12 25.96 49.07C26.01 49.03 26.06 48.99 26.11 48.97C26.67 48.59 27.31 48.22 27.99 47.77C30.65 46.08 31.42 45.03 29.65 42.01C29.62 41.97 29.6 41.93 29.57 41.89C28.44 40.19 24.48 38.35 21.02 35.1C18.92 33.13 17.01 30.64 16.02 27.35C15.77 26.54 15.58 25.67 15.46 24.75C15.22 22.97 15.01 21.19 14.83 19.45C14.59 17.22 14.4 15.08 14.24 13.12C14.2 12.57 14.16 12.04 14.12 11.52C13.8 7.31004 13.66 4.20004 13.62 3.34004C13.62 3.19004 13.61 3.10004 13.61 3.10004L14.21 3.26004L32.54 8.10004L51.47 6.69004V6.73004Z" fill="url(#paint1_radial_239_20)"/>
<path d="M51.45 6.96003C51.31 7.21003 51.02 7.44003 50.56 7.64003C41.94 11.52 18.47 7.17003 14.16 3.91003C13.92 3.72003 13.73 3.55003 13.62 3.37003C13.31 2.92003 13.46 2.50003 14.16 2.14003C15.87 1.27003 17.98 0.700028 20.31 0.370028C33.27 -1.48997 53.16 3.98003 51.44 6.95003L51.45 6.96003Z" fill="url(#paint2_linear_239_20)"/>
<path d="M18.88 3.59002C20.04 5.68002 43.05 10.66 47.55 6.15002C50.29 3.40002 15.83 -1.86998 18.88 3.59002Z" fill="url(#paint3_radial_239_20)"/>
<path d="M65.11 30.27C64.25 36.9 49.96 31.57 49.76 31.81C49.56 32.05 48.97 34.71 47.9 36.37C47.9 36.37 45.23 36.31 44.16 35.03C44.16 35.03 44.16 35.03 44.17 35.02C44.24 34.92 44.69 34.32 45.31 33.45C46.44 31.86 48.12 29.37 49.01 27.52C49.05 27.46 49.07 27.39 49.1 27.33C49.1 27.33 58.63 31.15 61.57 29.21C64.51 27.27 61.62 14.83 60.72 14.14C59.83 13.46 53.89 15.87 53.89 15.87C53.89 15.87 54.25 17.78 53.7 19.36C53.7 19.36 51.78 19.9 50.26 19.44L50.91 13.39L50.93 13.19C50.93 13.19 59.62 10.17 61.62 10.68C62.21 10.83 62.85 12.06 63.41 13.86C64.74 18.11 65.71 25.61 65.11 30.26V30.27Z" fill="url(#paint4_radial_239_20)"/>
<path d="M51.09 11.5701C51.09 11.5701 59.6 10.2501 61.42 10.6301C61.42 10.6301 58.38 10.6301 50.93 13.2001L51.08 11.5701H51.09Z" fill="url(#paint5_linear_239_20)"/>
<path d="M49.1 27.32C49.1 27.32 57.49 31 62.23 28.43C62.23 28.43 61.99 32.16 49.1 27.32Z" fill="url(#paint6_linear_239_20)"/>
<path d="M7.71 14.55C3.99 15.35 5.3 28.82 6.23 29.74C7.16 30.66 1.38 30.67 1.38 30.67C1.38 30.67 2.18 13.99 3.31 12.88C4.44 11.77 7.71 14.55 7.71 14.55Z" fill="url(#paint7_linear_239_20)"/>
<path d="M21.13 35.03C21.13 35.03 21.07 35.11 21.03 35.13C19.9 36.31 17.39 36.37 17.39 36.37C16.95 35.69 16.6 34.85 16.32 34.06C15.91 32.93 15.65 31.95 15.54 31.81C15.34 31.57 1.06001 36.89 0.190007 30.27C-0.0499932 28.39 -0.0399932 26.05 0.150007 23.64C0.630007 17.55 2.24001 11.06 3.67001 10.69C3.78001 10.66 3.90001 10.65 4.03001 10.64H4.05001C4.57001 10.61 5.31001 10.7 6.15001 10.86C7.42001 11.1 8.94001 11.51 10.33 11.92C10.4 11.94 10.51 11.97 10.66 12.02C10.75 12.05 10.84 12.07 10.94 12.1C11.16 12.16 11.41 12.24 11.7 12.33C11.76 12.35 11.82 12.37 11.88 12.39C12 12.43 12.12 12.47 12.23 12.5C12.34 12.54 12.45 12.58 12.56 12.61C12.61 12.62 12.67 12.64 12.72 12.66C12.83 12.69 12.93 12.72 13.02 12.76C13.4 12.88 13.82 13.02 14.25 13.17C14.28 13.18 14.32 13.2 14.36 13.21L15.03 19.46C14.97 19.48 14.91 19.49 14.85 19.5C13.37 19.87 11.59 19.37 11.59 19.37C11.04 17.79 11.4 15.88 11.4 15.88C11.4 15.88 5.47001 13.46 4.57001 14.15C3.67001 14.84 0.780007 27.28 3.72001 29.22C6.44001 31.01 14.78 27.88 16.03 27.4C16.14 27.36 16.19 27.34 16.19 27.34C17.55 30.29 21.13 35.05 21.13 35.05V35.03Z" fill="url(#paint8_radial_239_20)"/>
<path d="M14.36 13.19C14.36 13.19 14.29 13.16 14.25 13.15C13.82 13 13.4 12.86 13.02 12.74C12.92 12.7 12.82 12.67 12.72 12.64C12.67 12.62 12.61 12.6 12.56 12.59C12.44 12.55 12.33 12.51 12.23 12.48C12.11 12.44 11.99 12.4 11.88 12.37C11.82 12.34 11.75 12.33 11.7 12.31C11.41 12.22 11.15 12.14 10.94 12.08C10.85 12.05 10.76 12.02 10.66 12C10.52 11.96 10.41 11.92 10.33 11.9C8.42001 11.36 6.97001 11.04 5.93001 10.86C4.95001 10.69 4.33001 10.64 4.05001 10.62H4.03001C3.93001 10.62 3.87001 10.62 3.87001 10.62C4.83001 10.42 7.65001 10.69 10.1 11C10.14 11 10.18 11 10.22 11.01C12.08 11.24 13.7 11.48 14.11 11.54H14.13C14.13 11.54 14.15 11.54 14.16 11.54C14.19 11.54 14.21 11.54 14.21 11.54L14.36 13.16V13.19Z" fill="url(#paint9_linear_239_20)"/>
<path d="M16.19 27.32C16.19 27.32 7.80001 31 3.06001 28.43C3.06001 28.43 3.30001 32.16 16.19 27.32Z" fill="url(#paint10_linear_239_20)"/>
<g style="mix-blend-mode:soft-light">
<path d="M30.9 8.48004C30.01 7.86004 39.3 8.82004 44.15 7.81004C49 6.80004 47.71 5.63004 48.87 5.27004C50.03 4.91004 50.85 6.35004 50.93 6.87004C51.01 7.39004 45.94 10.51 30.9 8.47004V8.48004Z" fill="white"/>
</g>
<g style="mix-blend-mode:soft-light">
<path d="M19.68 32.36C19.02 32.9 27.25 40 30.37 41.7C33.49 43.4 42.29 36.94 45.35 32.79C48.41 28.64 49.35 23.94 49.09 23.04C48.84 22.13 47.04 32.5 38.47 37.58C29.9 42.66 20.5 30.53 19.67 32.36H19.68Z" fill="white"/>
</g>
<g style="mix-blend-mode:multiply" opacity="0.2">
<path d="M16.19 21.1C15.67 22.44 21.1 37.75 32.51 38.43C43.92 39.11 50.25 16.47 50.38 11.1C50.46 7.93005 45.5 8.52005 41.96 10.71C38.7 12.73 35.04 19.13 30.83 22.98C20.56 32.37 16.74 19.64 16.18 21.1H16.19Z" fill="#D42F55"/>
</g>
<g style="mix-blend-mode:soft-light" opacity="0.5">
<path d="M19.64 7.19001C14.96 7.57001 18.75 21.47 23.63 24.5C28.51 27.53 36.38 14.9 38.73 12.37C41.07 9.84001 22.38 6.97001 19.64 7.19001Z" fill="white"/>
</g>
<path d="M24.93 16.9201C24.11 16.4701 25.23 12.4701 26.52 12.2201C27.82 11.9801 28.51 18.8801 24.93 16.9201Z" fill="white"/>
<g style="mix-blend-mode:multiply" opacity="0.5">
<path d="M25.96 49.09C26.01 49.06 26.06 49.0201 26.11 48.9901L25.96 49.09Z" fill="#D42F55"/>
</g>
<g style="mix-blend-mode:multiply" opacity="0.5">
<path d="M33.05 50.18C27.07 49.81 27.49 48.13 26.11 49C26.67 48.62 27.31 48.25 27.99 47.8C30.65 46.11 31.42 45.06 29.65 42.04C29.62 42 29.6 41.96 29.57 41.92C30.11 42.14 30.62 42.35 31 42.47C32.35 42.9 36.02 41.29 36.02 41.29C35.76 41.55 35.56 41.8 35.42 42.04C33.65 45.06 34.42 46.11 37.08 47.8C37.44 48.03 37.78 48.24 38.11 48.44C38.14 48.47 38.17 48.48 38.2 48.5C39.31 49.2 39.03 50.55 33.05 50.18Z" fill="#D42F55"/>
</g>
<g style="mix-blend-mode:multiply" opacity="0.2">
<path d="M33.84 54.1C32.64 53.66 33.41 51.02 34.6 50.62C35.79 50.22 38.49 50.45 38.98 50.62C39.47 50.79 39.65 53.09 39.41 53.41C39.17 53.73 33.83 54.09 33.83 54.09L33.84 54.1Z" fill="#DA0553"/>
</g>
<g style="mix-blend-mode:soft-light">
<path d="M24.47 53.33C23.68 53.13 24.74 50.58 25.23 50.24C25.72 49.9 31.97 50.76 32.8 50.96C33.63 51.15 33.07 53.8 32.97 53.96C32.87 54.12 25.76 53.66 24.47 53.34V53.33Z" fill="white"/>
</g>
<path d="M26.49 50.53C25.59 50.47 25.63 52.85 25.76 53.3C25.89 53.75 27.95 53.74 28.15 53.76C28.35 53.78 28.74 50.9 28.58 50.63C28.42 50.36 26.49 50.54 26.49 50.54V50.53Z" fill="white"/>
<g style="mix-blend-mode:soft-light">
<path d="M39.52 50.16C38.98 50.18 39.33 52.81 39.52 53.13C39.71 53.45 40.93 53.01 41.28 53.13C41.63 53.25 41.22 50.39 39.52 50.16Z" fill="white"/>
</g>
<g style="mix-blend-mode:multiply" opacity="0.3">
<path d="M18.69 3.37004C18.81 3.92004 25.89 6.27004 28.25 6.70004C30.61 7.13004 31.47 3.68004 32.77 3.14004C36.54 1.59004 37.25 10.51 41.04 4.02004C41.59 3.07004 33.5 1.38004 26.66 1.20004C19.82 1.03004 18.53 2.64004 18.69 3.37004Z" fill="#D42F55"/>
</g>
<g style="mix-blend-mode:multiply" opacity="0.8">
<path d="M29.92 42.5C29.92 42.5 31.04 44.73 31.94 46.26C32.84 47.79 34.67 42.53 35.2 41.97C35.73 41.41 33.44 42.38 32.21 42.3C30.98 42.22 29.37 41.63 29.37 41.63L29.92 42.5Z" fill="#D42F55"/>
</g>
<g style="mix-blend-mode:soft-light" opacity="0.5">
<path d="M41.9 3.77005C41.27 3.61005 39.67 7.05005 39.81 7.65005C39.95 8.25005 42.79 8.15005 43.86 6.16005C44.94 4.16005 41.9 3.78005 41.9 3.78005V3.77005Z" fill="white"/>
</g>
<path d="M41.9 3.77002C41.42 4.41002 41.92 5.30002 42.46 5.87002C43.01 6.44002 44.33 4.50002 44.28 4.11002C44.23 3.72002 42.35 3.17002 41.9 3.78002V3.77002Z" fill="white"/>
<path d="M15.13 4.51001C15.13 4.51001 29.67 9.32001 41.28 9.15001C41.28 9.15001 30.04 10.75 15.13 4.51001Z" fill="#FFE016"/>
<path d="M25.43 7.77C24.52 7.04 28.5 7.87 29.55 8.05C30.59 8.23 31.09 8.65 31.09 8.65C31.09 8.65 28.37 8.71 25.44 7.77H25.43Z" fill="white"/>
<g style="mix-blend-mode:multiply" opacity="0.8">
<path d="M57.58 14.55C59.14 14.75 59.81 17.26 59.93 18.35C60.05 19.44 62.18 18.06 61.59 16.32C61 14.58 60.87 14.09 60.53 14.05C60.19 14.01 57.57 14.55 57.57 14.55H57.58Z" fill="#D42F55"/>
</g>
<g style="mix-blend-mode:multiply" opacity="0.8">
<path d="M7.71 14.55C7.71 14.55 5.03 14.07 4.55 14.37C4.06 14.67 3.34 18.28 3.49 19.69C3.64 21.1 5.31 17.42 6.03 16.06C6.75 14.7 7.71 14.54 7.71 14.54V14.55Z" fill="#D42F55"/>
</g>
<g style="mix-blend-mode:multiply" opacity="0.5">
<path d="M51.19 31.83C49.75 30.86 49.86 28.74 50.39 28.38C50.92 28.02 57.02 30.56 60.26 30.11C63.5 29.66 62.7 24.32 63.35 22.45C64 20.57 66.14 29.18 64.1 31.84C62.06 34.51 51.2 31.84 51.2 31.84L51.19 31.83Z" fill="#D42F55"/>
</g>
<g style="mix-blend-mode:multiply" opacity="0.5">
<path d="M0.80001 31.89C-0.44999 30.24 0.430009 27.06 1.17001 26.59C1.91001 26.13 2.26001 30.12 5.20001 30.19C8.14001 30.25 15.17 28.14 15.91 28.19C16.65 28.24 16.05 30.3 11.87 31.89C7.70001 33.48 2.17001 33.71 0.79001 31.89H0.80001Z" fill="#D42F55"/>
</g>
<g style="mix-blend-mode:multiply" opacity="0.8">
<path d="M17.39 36.37C17.39 36.37 18.73 35.53 21.13 35.03C21.13 35.03 19.76 36.43 17.39 36.37Z" fill="#D42F55"/>
</g>
<g style="mix-blend-mode:multiply" opacity="0.8">
<path d="M47.9 36.37C47.9 36.37 46.89 34.63 44.16 35.03C44.16 35.03 45.77 36.37 47.9 36.37Z" fill="#D42F55"/>
</g>
<g style="mix-blend-mode:soft-light" opacity="0.5">
<path d="M16.89 29.58C15.96 29.2 16.09 30.87 16.16 31.64C16.23 32.41 17.23 35.22 17.51 35.49C17.79 35.76 18.39 35.52 19.38 35.32C20.38 35.12 20.1 34.83 20.08 34.19C20.05 33.55 17.49 29.83 16.89 29.59V29.58Z" fill="white"/>
</g>
<g style="mix-blend-mode:soft-light" opacity="0.5">
<path d="M6.60001 10.71C6.01001 10.89 9.51001 11.65 11.06 11.88C12.6 12.11 13.03 12.17 13.23 11.88C13.43 11.59 9.53001 10.74 6.60001 10.71Z" fill="white"/>
</g>
<path d="M7.17001 11.19C6.32001 10.86 9.80001 10.97 10.21 11.39C10.62 11.81 9.21001 11.83 7.17001 11.19Z" fill="white"/>
<path d="M56.98 10.8C54.7 11.05 58.14 11.17 59.24 10.9C60.35 10.63 57.93 10.7 56.98 10.8Z" fill="white"/>
<g style="mix-blend-mode:multiply" opacity="0.8">
<path d="M50.94 13.19C51.92 12.86 57.38 11.49 58.22 11.87C59.05 12.25 55.13 14.96 54.2 15.4C53.27 15.84 54.03 18.15 53.14 18.99C52.25 19.83 50.27 19.43 50.27 19.43L50.94 13.18V13.19Z" fill="#D42F55"/>
</g>
<g style="mix-blend-mode:multiply" opacity="0.3">
<path d="M9.63001 12.07C8.50001 12.78 13.9 18.7 14.36 18.9C14.82 19.1 14.44 13.92 14.4 13.56C14.36 13.2 10.03 11.83 9.63001 12.07Z" fill="#D42F55"/>
</g>
<g style="mix-blend-mode:multiply" opacity="0.5">
<path d="M44.58 34.61C44.58 34.67 47.05 35.18 47.45 35.49C47.85 35.8 49.51 31.13 49.71 29.53C49.91 27.93 49.37 27.25 48.97 27.59C48.58 27.93 45.9 32.98 44.58 34.61Z" fill="#D42F55"/>
</g>
<path d="M40.67 9.16003C41.01 8.20003 44.09 8.74003 44.28 9.03003C44.48 9.32003 43.14 10.85 42.24 11C41.33 11.15 40.67 9.16003 40.67 9.16003Z" fill="#D13C00"/>
<path d="M43.72 14.51C43.5 14.02 43.84 12.58 44.42 12.26C45 11.94 45.09 13.93 44.85 14.51C44.61 15.09 43.86 14.84 43.72 14.51Z" fill="#D12D00"/>
<g style="mix-blend-mode:multiply" opacity="0.5">
<path d="M44.32 12.4C43.96 12.59 43.99 13.38 44.21 13.76C44.43 14.14 44.89 13.41 44.82 12.89C44.75 12.37 44.77 12.17 44.32 12.4Z" fill="#D42F55"/>
</g>
<path d="M43.71 13.6C43.71 13.6 43.6 14.23 43.96 14.56C44.32 14.89 44.8 14.31 44.89 13.92C44.98 13.53 44.96 13.18 44.96 13.18C44.96 13.18 45.07 14.36 44.82 14.7C44.57 15.04 43.75 14.88 43.66 14.52C43.57 14.16 43.71 13.6 43.71 13.6Z" fill="#FF9500"/>
<path d="M44.39 14.89C44.25 14.8 44.58 14.53 44.74 14.26C44.91 13.98 44.9 14.56 44.79 14.74C44.68 14.92 44.38 14.9 44.38 14.9L44.39 14.89Z" fill="white"/>
<path d="M19.58 30.02C19.07 29.77 18.46 28.14 18.79 27.3C19.11 26.46 20.47 28.2 20.61 28.96C20.75 29.72 19.91 30.19 19.58 30.02Z" fill="#D12D00"/>
<g style="mix-blend-mode:multiply" opacity="0.5">
<path d="M18.78 27.53C18.57 28.04 19.1 28.73 19.54 28.88C19.98 29.03 19.94 27.92 19.54 27.51C19.15 27.1 19.04 26.9 18.78 27.53Z" fill="#D42F55"/>
</g>
<path d="M18.99 29.2C18.99 29.2 19.29 29.88 19.83 29.84C20.37 29.81 20.44 28.82 20.27 28.39C20.11 27.95 19.87 27.65 19.87 27.65C19.87 27.65 20.72 28.63 20.71 29.17C20.69 29.71 19.85 30.34 19.53 30.1C19.21 29.86 18.99 29.21 18.99 29.21V29.2Z" fill="#FF9500"/>
<path d="M20.43 29.74C20.24 29.79 20.37 29.24 20.35 28.83C20.33 28.42 20.68 28.96 20.7 29.22C20.72 29.48 20.43 29.74 20.43 29.74Z" fill="white"/>
<g style="mix-blend-mode:multiply" opacity="0.5">
<path d="M41.07 8.79C40.59 8.97 41.61 9.89 42.22 10.01C42.83 10.13 43.62 9.05 43.53 8.89C43.44 8.73 42.12 8.38 41.07 8.78V8.79Z" fill="#D42F55"/>
</g>
<path d="M40.67 9.16003C40.67 9.16003 41.5 10.84 42.33 10.76C43.16 10.68 44.15 9.47003 44.15 9.47003C44.15 9.47003 43.28 11.1 42.23 11.19C41.18 11.28 40.66 9.17003 40.66 9.17003L40.67 9.16003Z" fill="#FFBA00"/>
<path d="M42.55 11.12C42.03 11.18 42.96 10.51 43.23 10.36C43.5 10.2 43.39 10.79 42.55 11.12Z" fill="white"/>
<g style="mix-blend-mode:soft-light">
<path d="M40.94 37.21C38.94 37.98 43.65 34.3 45.72 30.21C47.79 26.12 46.72 30.67 46.72 30.67C46.72 30.67 44.63 34.58 40.94 37.21Z" fill="white"/>
</g>
<g style="mix-blend-mode:soft-light">
<path d="M2.64001 22.9801C2.49001 24.7101 2.97001 25.9501 3.47001 26.5501C3.96001 27.1501 5.16001 26.5701 5.23001 26.5901C5.30001 26.6101 5.18001 21.3701 5.23001 20.0001C5.28001 18.6401 2.94001 19.4701 2.64001 22.9701V22.9801Z" fill="white"/>
</g>
<g style="mix-blend-mode:soft-light">
<path d="M60.25 19.1601C59.91 19.2801 60.27 23.7601 60.25 24.5501C60.23 25.3401 62.43 24.7301 62.64 24.5501C62.85 24.3701 62.29 18.5201 61.92 18.2801C61.55 18.0401 60.25 19.1601 60.25 19.1601Z" fill="white"/>
</g>
<g style="mix-blend-mode:multiply" opacity="0.8">
<path d="M10.1 11.01C8.78001 10.88 7.35001 10.79 6.15001 10.86C6.08001 10.86 6.00001 10.86 5.93001 10.87C5.08001 10.93 4.37001 11.07 3.93001 11.34C1.81001 12.61 0.180009 23.68 0.180009 23.68L0.150009 23.64C0.630009 17.55 2.24001 11.06 3.67001 10.69C3.78001 10.66 3.90001 10.65 4.03001 10.64C3.93001 10.64 3.87001 10.64 3.87001 10.64C4.83001 10.44 7.65001 10.71 10.1 11.02V11.01Z" fill="#D42F55"/>
</g>
<g style="mix-blend-mode:multiply" opacity="0.8">
<path d="M20.32 0.380005C20.1 0.440005 14.81 1.87 14.36 2.65C14.3 2.75 14.25 2.98001 14.22 3.3C14.2 3.48001 14.18 3.68001 14.17 3.91001C14.02 6.41001 14.21 11.57 14.21 11.57C14.21 11.57 14.19 11.57 14.16 11.57C14.16 11.57 14.14 11.57 14.13 11.57C13.81 7.36 13.67 4.25001 13.63 3.39001C13.32 2.94001 13.47 2.52 14.17 2.16C15.88 1.29 17.99 0.720005 20.32 0.390005V0.380005Z" fill="#D42F55"/>
</g>
<g style="mix-blend-mode:multiply" opacity="0.8">
<path d="M65.11 30.27C64.25 36.9 49.96 31.57 49.76 31.81C49.56 32.05 48.97 34.71 47.9 36.37C47.9 36.37 45.23 36.31 44.16 35.03C41.7 37.36 38.97 38.98 37.18 40.32C38.84 38.98 42.7 35.85 43.36 35.13C44.22 34.2 45.15 33.18 45.15 33.18C45.15 33.18 45.2 33.29 45.3 33.45C45.35 33.52 45.39 33.6 45.45 33.69C45.76 34.17 46.3 34.87 47 35.3C48.14 35.98 49.59 31.51 49.59 31.51C49.59 31.51 60.78 34.23 63.09 32.54C65.41 30.85 64.81 21.28 64.32 18.75C63.82 16.22 63.4 13.88 63.4 13.88C64.73 18.13 65.7 25.64 65.1 30.28L65.11 30.27Z" fill="#D42F55"/>
</g>
<g style="mix-blend-mode:soft-light">
<path d="M17.77 30.15C19.09 32.32 19.49 32.19 19.64 31.89C19.79 31.59 16.52 26.77 15.41 19.7C14.3 12.63 14.46 6.13002 14.1 5.96002C13.74 5.79002 14.61 21.13 15.4 24.23C16.19 27.33 17.77 30.15 17.77 30.15Z" fill="white"/>
</g>
<path d="M16.48 25.67C16.31 26.33 15.35 23.49 15.33 22.12C15.31 20.75 16.81 24.4 16.48 25.67Z" fill="white"/>
<g style="mix-blend-mode:multiply" opacity="0.5">
<path d="M2.09 25.58C1.95 27.05 0.120002 24.34 0.370002 21.4C0.620002 18.47 1.91 13.91 2.61 13.39C3.31 12.87 3.75 15.08 3.46 17.2C3.17 19.32 2.26 23.8 2.09 25.58Z" fill="#D42F55"/>
</g>
<g style="mix-blend-mode:soft-light" opacity="0.5">
<path d="M61.15 32.91C59.9 31.7 63.49 28.54 64.09 28.01C64.69 27.48 63.53 31.89 63.09 32.54C62.65 33.19 61.15 32.92 61.15 32.92V32.91Z" fill="white"/>
</g>
<g style="mix-blend-mode:multiply" opacity="0.8">
<path d="M23.45 53.48C23.45 53.48 34.84 54.32 41.62 53.48C41.62 53.48 32.76 54.92 23.45 53.48Z" fill="#D42F55"/>
</g>
<g style="mix-blend-mode:soft-light">
<path d="M29.37 49.6501C27.95 48.8501 32.37 47.2401 34.73 47.3601C37.09 47.4801 38.84 49.4401 38.44 49.6501C38.04 49.8601 32.25 50.4901 29.37 49.6501Z" fill="white"/>
</g>
<g style="mix-blend-mode:multiply" opacity="0.8">
<path d="M21.03 35.1301C19.9 36.3101 17.39 36.3701 17.39 36.3701C16.95 35.6901 16.6 34.8501 16.32 34.0601C16.4 34.1301 17.19 34.8101 17.71 35.0301C18.26 35.2501 21.04 35.1301 21.04 35.1301H21.03Z" fill="#D42F55"/>
</g>
<g style="mix-blend-mode:multiply" opacity="0.8">
<path d="M15.53 31.81C15.04 31.32 16.11 30.03 15.93 29.74C15.75 29.45 14.43 31.14 12.68 31.92C10.93 32.7 8.77 33.35 8.77 33.35C8.77 33.35 12.04 32.82 15.53 31.82V31.81Z" fill="#D42F55"/>
</g>
<g style="mix-blend-mode:multiply" opacity="0.3">
<path d="M49.1 8.66003C45.38 9.22003 46.5 15.36 45.59 22.17C44.68 28.98 48.11 21.64 49.14 17.39C50.17 13.14 50.6 9.26003 50.02 8.94003C49.44 8.62003 49.1 8.67003 49.1 8.67003V8.66003Z" fill="#D42F55"/>
</g>
<g style="mix-blend-mode:multiply" opacity="0.3">
<path d="M27.16 36.3701C26.43 35.7601 32.06 37.0501 35.27 37.3201C38.48 37.5801 32.35 40.0101 27.16 36.3701Z" fill="#D42F55"/>
</g>
<path d="M44.93 32.47C44.59 31.62 45.92 29.62 46.61 29.52C47.29 29.43 46.44 32.58 44.93 32.47Z" fill="white"/>
<defs>
<linearGradient id="paint0_linear_239_20" x1="60.75" y1="30.67" x2="60.75" y2="12.62" gradientUnits="userSpaceOnUse">
<stop offset="0.66" stop-color="#FA9300"/>
<stop offset="0.85" stop-color="#F66A00"/>
<stop offset="1" stop-color="#F63F00"/>
</linearGradient>
<radialGradient id="paint1_radial_239_20" cx="0" cy="0" r="1" gradientUnits="userSpaceOnUse" gradientTransform="translate(26.03 10.8094) scale(27.75 33.855)">
<stop stop-color="#FAC500"/>
<stop offset="0.85" stop-color="#FF9000"/>
<stop offset="1" stop-color="#F63F00"/>
</radialGradient>
<linearGradient id="paint2_linear_239_20" x1="35.57" y1="13.13" x2="29.5" y2="-3.53997" gradientUnits="userSpaceOnUse">
<stop stop-color="#FFEA34"/>
<stop offset="0.7" stop-color="#FFA400"/>
<stop offset="1" stop-color="#FFBA00"/>
</linearGradient>
<radialGradient id="paint3_radial_239_20" cx="0" cy="0" r="1" gradientUnits="userSpaceOnUse" gradientTransform="translate(38.84 6.38082) scale(10.45 12.749)">
<stop stop-color="#FA9300"/>
<stop offset="0.45" stop-color="#F66A00"/>
<stop offset="1" stop-color="#F63F00"/>
</radialGradient>
<radialGradient id="paint4_radial_239_20" cx="0" cy="0" r="1" gradientUnits="userSpaceOnUse" gradientTransform="translate(51.09 14.5304) scale(14.53 17.7266)">
<stop stop-color="#FAA800"/>
<stop offset="0.85" stop-color="#FF7F00"/>
<stop offset="1" stop-color="#F63F00"/>
</radialGradient>
<linearGradient id="paint5_linear_239_20" x1="56.38" y1="12.4601" x2="55.47" y2="9.97005" gradientUnits="userSpaceOnUse">
<stop stop-color="#FFEA34"/>
<stop offset="0.7" stop-color="#FFA400"/>
<stop offset="1" stop-color="#FFBA00"/>
</linearGradient>
<linearGradient id="paint6_linear_239_20" x1="56.83" y1="31.08" x2="54.72" y2="25.28" gradientUnits="userSpaceOnUse">
<stop stop-color="#FFA400"/>
<stop offset="1" stop-color="#FFEA34"/>
</linearGradient>
<linearGradient id="paint7_linear_239_20" x1="4.55001" y1="30.67" x2="4.55001" y2="12.62" gradientUnits="userSpaceOnUse">
<stop offset="0.66" stop-color="#FA9300"/>
<stop offset="0.85" stop-color="#F66A00"/>
<stop offset="1" stop-color="#F63F00"/>
</linearGradient>
<radialGradient id="paint8_radial_239_20" cx="0" cy="0" r="1" gradientUnits="userSpaceOnUse" gradientTransform="translate(6.93001 14.5304) scale(14.53 17.7266)">
<stop stop-color="#FAA800"/>
<stop offset="0.85" stop-color="#FF7F00"/>
<stop offset="1" stop-color="#F63F00"/>
</radialGradient>
<linearGradient id="paint9_linear_239_20" x1="10.33" y1="14.66" x2="8.28001" y2="9.02" gradientUnits="userSpaceOnUse">
<stop stop-color="#FFEA34"/>
<stop offset="0.7" stop-color="#FFA400"/>
<stop offset="1" stop-color="#FFBA00"/>
</linearGradient>
<linearGradient id="paint10_linear_239_20" x1="8.46001" y1="31.08" x2="10.58" y2="25.28" gradientUnits="userSpaceOnUse">
<stop stop-color="#FFA400"/>
<stop offset="1" stop-color="#FFEA34"/>
</linearGradient>
</defs>
</svg>
