<svg width="25" height="26" viewBox="0 0 25 26" fill="none" xmlns="http://www.w3.org/2000/svg">
<path d="M12.5 0.632507C5.6075 0.632507 0 6.24001 0 13.1325C0 20.025 5.6075 25.6325 12.5 25.6325C19.3925 25.6325 25 20.025 25 13.1325C25 6.24001 19.3925 0.632507 12.5 0.632507ZM13.4375 19.07C13.4375 19.5875 13.0175 20.0075 12.5 20.0075C11.9825 20.0075 11.5625 19.5875 11.5625 19.07V12.195C11.5625 11.6775 11.9825 11.2575 12.5 11.2575C13.0175 11.2575 13.4375 11.6775 13.4375 12.195V19.07ZM12.5 9.38251C11.8094 9.38251 11.25 8.82313 11.25 8.13251C11.25 7.44188 11.8094 6.88251 12.5 6.88251C13.1906 6.88251 13.75 7.44188 13.75 8.13251C13.75 8.82313 13.1906 9.38251 12.5 9.38251Z" fill="white"/>
</svg>
