<svg width="46" height="22" viewBox="0 0 46 22" fill="none" xmlns="http://www.w3.org/2000/svg">
<path d="M29.7337 2.13762C29.7337 2.13762 25.8013 2.69148 25.3898 3.26908C24.9863 3.84668 26.1732 19.3549 26.8457 20.2331C27.5183 21.1114 33.231 21.0481 33.231 21.0481L29.7416 2.13762H29.7337Z" fill="url(#paint0_linear_235_656)"/>
<path d="M43.335 1.44924C39.4263 -0.853247 29.7337 2.13762 29.7337 2.13762C29.077 2.59653 29.6546 19.8533 30.0898 20.3835C30.5329 20.9215 34.7422 21.3013 35.1299 20.8424C35.5097 20.3835 35.8262 16.3798 35.8262 16.3798C35.8262 16.3798 40.9534 16.8704 42.6387 15.6202C44.8067 14.014 45.9856 10.5089 45.9303 7.32019C45.8907 4.78825 45.0678 2.46202 43.335 1.44133V1.44924ZM35.9765 6.26785C36.2139 5.28672 40.4312 5.05727 41.1987 7.58921C41.9583 10.1212 37.5907 11.0627 36.5225 10.8174C35.7392 10.6434 35.7471 7.24898 35.9765 6.26785Z" fill="url(#paint1_linear_235_656)"/>
<path d="M36.9339 12.6927C36.8152 12.6927 36.6966 12.6927 36.5937 12.6768C36.4196 12.661 36.2614 12.6373 36.119 12.6056C35.5334 12.479 35.0271 12.1072 34.6868 11.5533C33.7453 10.0499 33.9826 6.69512 34.1884 5.83267C34.4811 4.62208 35.7154 3.83876 37.4561 3.7359H37.472C37.5907 3.7359 37.7093 3.72799 37.828 3.72799C40.3362 3.72799 42.3539 5.03352 42.9631 7.04326C43.3113 8.19055 43.1135 9.34575 42.4093 10.3031C41.1037 12.0518 38.4294 12.6848 36.9418 12.6848L36.9339 12.6927ZM44.0867 7.0037C43.9838 5.081 43.3587 3.59348 42.4014 3.03962C41.9266 2.76269 40.9534 2.42245 39.0703 2.42245C38.9595 2.42245 38.8566 2.42245 38.7459 2.42245H38.7063C35.9686 2.48575 32.9066 3.18995 31.332 3.60139C31.3003 4.10778 31.2845 4.78033 31.2766 5.57156C31.2371 9.5752 31.4744 16.5064 31.7197 19.0146C32.0678 19.0779 32.503 19.1333 32.9619 19.1729C33.1993 19.1887 33.4367 19.2045 33.6661 19.2124C33.7927 18.4133 33.9193 17.2423 33.9985 16.2374L34.1488 14.4413V14.378L36.0082 14.5521C36.0082 14.5521 36.2456 14.5679 36.6174 14.5916C36.8944 14.6075 37.2583 14.6233 37.6619 14.6312H37.7726C37.8755 14.6312 37.9784 14.6312 38.0733 14.6312C40.2967 14.6312 41.3174 14.3068 41.5468 14.1406C43.0897 13.0012 44.1579 10.1053 44.0867 7.30436C44.0867 7.2015 44.0867 7.09864 44.0788 6.99578L44.0867 7.0037Z" fill="url(#paint2_linear_235_656)"/>
<path d="M43.3825 7.0037C43.2875 5.08101 42.6546 3.59349 41.6972 3.03962C41.2541 2.77852 40.3916 2.46994 38.7459 2.43037H38.7063C35.9686 2.49367 32.9066 3.19787 31.332 3.60931C31.1421 6.67139 31.427 16.0159 31.7197 19.0225C32.0679 19.0858 32.503 19.1412 32.9619 19.1808C33.0885 18.3896 33.2072 17.2344 33.2864 16.2453L33.4367 14.3859L34.1409 14.4492L35.2961 14.56C35.2961 14.56 35.5335 14.5758 35.9053 14.5995C36.2772 14.6233 36.7915 14.6391 37.3612 14.6391C37.4641 14.6391 37.559 14.6391 37.654 14.6391H37.7647C39.7112 14.5995 40.6053 14.291 40.8347 14.1485C42.5042 13.1358 43.5961 11.4583 43.3667 7.0037H43.3825ZM42.4014 10.3111C41.0958 12.0597 38.4215 12.6927 36.9339 12.6927C36.8153 12.6927 36.6966 12.6927 36.5937 12.6768C36.4671 12.6848 36.3405 12.6927 36.2218 12.6927C35.9053 12.6927 35.6442 12.6689 35.4069 12.6135C34.8293 12.487 34.315 12.1151 33.9747 11.5612C33.0332 10.0579 33.2705 6.70303 33.4762 5.84059C33.7848 4.54297 35.1774 3.73591 37.108 3.73591C37.2267 3.73591 37.3375 3.73591 37.4482 3.74382H37.4641C37.5827 3.74382 37.7014 3.73591 37.8201 3.73591C40.3283 3.73591 42.346 5.04144 42.9552 7.05118C43.3034 8.19847 43.1056 9.35367 42.4014 10.3111Z" fill="url(#paint3_linear_235_656)"/>
<path d="M36.5146 10.8095C35.7313 10.6355 35.7392 7.24107 35.9686 6.25994C36.206 5.27881 40.4233 5.04935 41.1908 7.5813C41.9504 10.1132 37.5827 11.0548 36.5146 10.8095Z" fill="url(#paint4_linear_235_656)"/>
<path d="M36.5146 10.8095C35.7313 10.6355 35.7392 7.24107 35.9686 6.25994C36.206 5.27881 40.4233 5.04935 41.1908 7.5813C41.9504 10.1132 37.5827 11.0548 36.5146 10.8095Z" fill="url(#paint5_linear_235_656)"/>
<path d="M25.1129 3.38776C25.1129 3.38776 32.9461 -2.20626 42.2589 0.982413C42.2589 0.982413 37.2742 0.0724951 29.6071 2.69148C29.6071 2.69148 27.1226 2.60444 25.1208 3.38776H25.1129Z" fill="url(#paint6_linear_235_656)"/>
<g style="mix-blend-mode:multiply" opacity="0.5">
<path d="M36.1427 6.00675C35.8499 7.48636 35.842 9.61478 36.4908 9.1796C37.1476 8.74442 38.5797 9.87588 40.0197 9.48818C41.4598 9.09256 41.6101 6.75842 39.4421 5.85642C37.2742 4.95441 36.1427 6.00675 36.1427 6.00675Z" fill="#B82774"/>
</g>
<g style="mix-blend-mode:multiply" opacity="0.5">
<path d="M26.0307 3.85459C26.6162 1.73409 29.4963 8.30924 29.2669 13.7134C29.0374 19.1175 27.3046 20.2885 26.6637 19.7267C26.0307 19.165 25.5481 5.58739 26.0307 3.85459Z" fill="#B82774"/>
</g>
<g style="mix-blend-mode:multiply" opacity="0.5">
<path d="M27.8822 20.6841C26.9881 20.3597 29.6229 20.4626 30.7623 20.6841C31.9017 20.9057 33.4446 21.0481 33.4446 21.0481C33.4446 21.0481 30.1214 21.1351 27.8822 20.6841Z" fill="#B82774"/>
</g>
<g style="mix-blend-mode:multiply" opacity="0.5">
<path d="M45.9382 7.32811C46.0015 10.5168 44.8225 14.0219 42.6466 15.6281C40.9613 16.8783 35.8341 16.3877 35.8341 16.3877C35.8341 16.3877 40.4866 16.4589 42.0057 15.5253C44.6564 13.8953 45.4872 10.6909 45.9303 7.33602L45.9382 7.32811Z" fill="#B82774"/>
</g>
<path d="M36.2139 10.5247C36.2139 10.5247 37.3454 11.2684 40.0197 9.98665C40.0197 9.98665 39.5925 10.2873 38.9753 10.5168C37.9863 10.8807 36.5858 11.1498 36.2139 10.5247Z" fill="url(#paint7_linear_235_656)"/>
<g style="mix-blend-mode:multiply" opacity="0.8">
<path d="M44.0946 7.30436C43.9996 7.54965 43.8889 7.68416 43.7781 7.63668C43.1372 7.36766 43.4853 3.07918 39.1019 2.81807C34.7106 2.55696 31.5931 6.3628 31.2845 5.57156C31.2924 4.78033 31.3083 4.10778 31.3399 3.60139C32.9145 3.18995 35.9686 2.48575 38.7142 2.42245H38.7538C38.8645 2.42245 38.9674 2.42245 39.0782 2.42245C40.9613 2.42245 41.9266 2.75477 42.4093 3.03962C43.3587 3.59348 43.9917 5.081 44.0946 7.0037C44.0946 7.10656 44.1025 7.20942 44.1025 7.31228L44.0946 7.30436Z" fill="#B82774"/>
</g>
<g style="mix-blend-mode:multiply" opacity="0.8">
<path d="M34.1013 11.7511C34.1013 11.7511 35.2961 12.93 37.9388 12.6135C40.5815 12.297 42.4014 10.3111 42.4014 10.3111C42.4014 10.3111 41.1116 13.1278 37.9388 13.4364C34.7739 13.745 34.1013 11.7511 34.1013 11.7511Z" fill="#B82774"/>
</g>
<path d="M33.4446 14.378C33.4446 14.378 36.0557 14.9556 39.1336 14.7499C42.2115 14.5442 42.52 13.1279 42.52 13.1279C42.52 13.1279 40.083 15.3908 33.4525 14.378H33.4446Z" fill="url(#paint8_linear_235_656)"/>
<path d="M28.0088 2.75477C28.0088 2.75477 29.2194 2.9684 29.5517 2.89719C29.884 2.82598 31.2687 2.16134 31.2687 2.16134C31.2687 2.16134 29.5438 1.73408 28.0009 2.75477H28.0088Z" fill="#FFFFDB"/>
<g style="mix-blend-mode:soft-light">
<path d="M34.1488 14.4413C33.8006 14.4413 34.1171 15.4303 34.2358 15.5332C34.3545 15.636 35.4385 15.0505 35.2961 14.7973C35.1537 14.5441 34.5207 14.4492 34.1488 14.4492V14.4413Z" fill="#FFFFDB"/>
</g>
<path d="M31.7039 18.7693C31.7039 18.7693 32.4714 18.9988 33.049 19.0463C33.6266 19.0937 33.7373 18.7693 33.7373 18.7693C33.7373 18.7693 33.7373 19.1254 33.674 19.2124C33.6107 19.2995 31.9175 19.0937 31.783 19.0542C31.6485 19.0067 31.7039 18.7772 31.7039 18.7772V18.7693Z" fill="url(#paint9_linear_235_656)"/>
<path d="M24.6936 1.82902C24.6936 1.82902 14.0752 19.4814 12.1525 19.8533C12.0734 19.8691 12.0101 19.8612 11.9626 19.8217C11.8835 19.7267 11.8044 19.6318 11.7411 19.5289C10.665 18.1363 9.12208 16.7675 9.36736 15.9446C9.46231 15.6281 10.8153 13.8162 12.5481 11.6008C14.2334 9.4486 16.2748 6.91665 17.8494 5.00978C19.1866 3.41149 20.1835 2.25629 20.3734 2.14552C21.0301 1.76572 23.6491 1.33055 24.6936 1.82902Z" fill="url(#paint10_linear_235_656)"/>
<path d="M14.1306 2.11386C14.1306 2.11386 11.8677 1.99518 10.8232 2.64399C9.7788 3.2928 7.42093 6.81379 7.595 8.20636C7.76907 9.59893 13.1336 13.1437 13.1336 13.1437L16.1878 13.7133L11.2188 7.56546L14.3363 2.12969L14.1385 2.10595L14.1306 2.11386Z" fill="url(#paint11_linear_235_656)"/>
<path d="M28.4836 9.20332C28.2699 9.58311 26.9644 11.039 25.2474 12.843C26.8932 14.742 28.1117 16.3165 28.3174 16.9178C29.0374 18.9592 26.2127 21.0639 24.9705 21.6811C24.4799 21.9264 22.3278 20.3281 19.8354 18.2313C19.2024 18.8247 18.5852 19.3786 18.0235 19.8771C17.9997 19.9008 17.9602 19.9245 17.9285 19.9562C17.881 19.9957 17.8336 20.0353 17.7782 20.0828C16.3223 21.3408 15.1987 22.1321 14.8585 21.9817C14.1068 21.6573 12.7855 20.8582 11.9547 19.8217C11.8756 19.7267 11.7964 19.6318 11.7331 19.5289C11.6698 19.4419 11.6145 19.3469 11.567 19.2599C11.2268 18.6744 11.0764 18.0493 11.2663 17.4005C11.4483 16.7833 12.5877 15.1455 14.1385 13.1437C13.553 12.5898 13.007 12.0755 12.5402 11.6087C11.5591 10.6513 10.8786 9.93125 10.7204 9.68597C8.66316 6.48939 12.8883 2.47783 14.1306 2.12969C14.5183 2.02683 15.9821 3.23742 17.8415 5.01769C18.3795 5.53199 18.9492 6.08586 19.5268 6.67928C21.9954 3.90205 24.1792 1.72616 24.6856 1.83693C25.9437 2.11387 30.3746 5.90388 28.4756 9.21123L28.4836 9.20332Z" fill="url(#paint12_linear_235_656)"/>
<path d="M26.64 7.61294C26.6242 7.7791 26.5688 7.9057 26.5134 8.01647C26.2918 8.30923 25.3424 9.40904 23.5858 11.2526L22.1458 12.7639L23.5067 14.3384C25.3345 16.451 25.9437 17.353 26.1257 17.6458C26.007 17.9939 25.4215 18.619 24.741 19.1254C24.5986 19.0304 24.4245 18.9118 24.2188 18.7693C23.6016 18.3262 22.6759 17.6141 21.3229 16.4668L19.7563 15.1534L19.2973 15.5807L18.2608 16.5539C16.5201 18.1838 15.5073 19.0067 14.9614 19.4181C14.7873 19.2995 14.6211 19.1808 14.4629 19.0542C13.9803 18.6744 13.6005 18.2709 13.5055 18.0177C13.6638 17.717 14.2255 16.7833 15.9583 14.5521L17.2401 12.8984L15.721 11.4662C13.8695 9.71762 12.8646 8.67319 12.6272 8.39626C12.4927 8.1668 12.3899 7.85031 12.5481 7.27271C12.7538 6.54478 13.2602 5.82475 13.7666 5.27089C13.917 5.10473 14.0673 4.9544 14.2097 4.81989C14.9218 5.4054 16.1166 6.48148 17.8969 8.28549L19.1074 9.5119L19.6217 10.0262L21.2517 8.19845C22.5968 6.6872 23.5937 5.65068 24.29 4.97813C24.472 4.80406 24.6303 4.65373 24.7648 4.52713C25.4057 5.06517 26.2285 5.95926 26.5371 6.88501C26.64 7.19359 26.6637 7.43096 26.64 7.62085V7.61294Z" fill="url(#paint13_linear_235_656)"/>
<path d="M22.6126 11.2526L21.1726 12.7639L22.5335 14.3384C24.3612 16.451 24.9705 17.353 25.1525 17.6458C25.0654 17.9148 24.6936 18.3421 24.2188 18.7614C23.6017 18.3183 22.6759 17.6062 21.3229 16.4589L19.7563 15.1455H18.783L17.2955 16.546C15.9662 17.7961 15.0563 18.5715 14.4629 19.0463C13.9803 18.6665 13.6005 18.2629 13.5055 18.0097C13.6638 17.7091 14.2255 16.7754 15.9583 14.5441L17.2401 12.8905L15.721 11.4583C13.8695 9.7097 12.8646 8.66528 12.6272 8.38834C12.4927 8.15889 12.3899 7.84239 12.5481 7.26479C12.7538 6.53686 13.2602 5.81683 13.7666 5.26297C14.4866 5.89596 15.5232 6.86126 16.9236 8.27757L18.6485 10.0183H19.6217L21.2517 8.19054C22.5968 6.67928 23.5937 5.64276 24.29 4.97021C24.8122 5.49243 25.3424 6.17289 25.5797 6.87709C25.7696 7.44677 25.6747 7.77118 25.556 8.01646C25.3345 8.30922 24.385 9.40903 22.6284 11.2526H22.6126Z" fill="url(#paint14_linear_235_656)"/>
<path d="M19.1233 18.888C19.1233 18.888 22.486 21.1984 24.9705 21.6811C24.9705 21.6811 22.8816 20.9531 19.8354 18.2313L19.1233 18.8959V18.888Z" fill="url(#paint15_linear_235_656)"/>
<path d="M10.8232 2.65191C10.8232 2.65191 11.7252 2.22464 13.5925 2.38289C15.4599 2.54113 18.7197 5.86431 18.7197 5.86431C18.7197 5.86431 15.5232 2.4541 14.368 1.97936C13.2128 1.50462 10.8153 2.65191 10.8153 2.65191H10.8232Z" fill="url(#paint16_linear_235_656)"/>
<path d="M20.2231 2.13761C20.2231 2.13761 18.4824 4.11569 18.5931 4.81198C18.7118 5.50826 20.0807 5.68233 21.4574 4.55878C22.8342 3.44314 24.6936 1.82111 24.6936 1.82111C24.6936 1.82111 22.9845 1.11692 20.2231 2.13761Z" fill="url(#paint17_linear_235_656)"/>
<g style="mix-blend-mode:multiply" opacity="0.5">
<path d="M7.79281 8.68111C8.16469 6.79006 14.1464 13.1278 14.1464 13.1278C14.1464 13.1278 12.8092 12.9379 12.2395 12.5344C11.6699 12.1309 8.67899 10.137 7.79281 8.68111Z" fill="#B82774"/>
</g>
<g style="mix-blend-mode:multiply" opacity="0.5">
<path d="M19.1233 18.888C19.1233 18.888 19.9066 18.2946 20.1835 18.532C20.4605 18.7693 22.8421 20.7712 22.8421 20.969C22.8421 21.1668 19.1233 18.888 19.1233 18.888Z" fill="#B82774"/>
</g>
<g style="mix-blend-mode:multiply" opacity="0.5">
<path d="M17.7861 20.0749C16.3302 21.3329 15.2067 22.1242 14.8664 21.9738C14.1148 21.6494 12.7934 20.8503 11.9626 19.8138C11.8835 19.7188 11.8044 19.6239 11.7411 19.521C10.665 18.1284 9.12208 16.7596 9.36736 15.9367C9.36736 15.9367 10.214 17.7328 11.5749 19.252C11.7569 19.4577 11.9547 19.6634 12.1525 19.8533C12.2554 19.9562 12.3661 20.0511 12.4769 20.1461C14.2809 21.6652 16.5597 21.0718 17.7861 20.0828V20.0749Z" fill="#B82774"/>
</g>
<g style="mix-blend-mode:soft-light" opacity="0.3">
<path d="M7.95896 7.43888C8.01435 8.35671 9.5256 8.31715 9.85792 7.91362C10.1823 7.51009 10.0003 6.37862 11.7094 4.12361C13.4185 1.86859 9.41483 1.4888 7.95896 7.43888Z" fill="#FFFFB1"/>
</g>
<path d="M22.1458 12.7639C22.1458 12.7639 26.3947 8.40417 26.5134 8.01646C26.5134 8.01646 24.741 10.944 22.1458 12.7639Z" fill="url(#paint18_linear_235_656)"/>
<path d="M14.3047 10.0974C14.3047 10.0974 16.1641 12.5581 17.1135 12.7639L14.3047 10.0974Z" fill="url(#paint19_linear_235_656)"/>
<g style="mix-blend-mode:multiply" opacity="0.8">
<path d="M26.64 7.61295C26.64 7.61295 25.8883 8.16681 25.6826 7.9057C25.4769 7.65251 25.5718 5.7219 23.7678 6.27576C21.9717 6.82963 20.2706 11.5929 19.5664 11.4267C18.8622 11.2684 16.9316 8.27759 15.7131 7.53383C14.5025 6.79007 13.1178 6.08587 12.6352 8.38836C12.5007 8.1589 12.3978 7.84241 12.556 7.26481C12.7618 6.53687 13.2681 5.81685 13.7745 5.26299C13.9249 5.09683 14.0752 4.94649 14.2176 4.81198C14.9297 5.3975 16.1245 6.47357 17.9048 8.27758L19.1154 9.504L19.6297 10.0183L21.2596 8.19055C22.6047 6.67929 23.6017 5.64278 24.2979 4.97023C24.4799 4.79616 24.6382 4.64582 24.7727 4.51923C25.4136 5.05726 26.2365 5.95136 26.545 6.8771C26.6479 7.18568 26.6716 7.42305 26.6479 7.61295H26.64Z" fill="#B82774"/>
</g>
<path d="M24.2979 1.6945C23.7045 2.15342 25.105 2.61233 25.5639 2.60442C26.0228 2.5886 25.0892 1.78945 24.2979 1.6945Z" fill="#FFFFDB"/>
<path d="M13.4897 2.07432C12.6352 2.2563 12.6826 2.7706 13.0545 2.91302C13.4264 3.05545 14.9297 2.84973 14.906 2.60444C14.8823 2.35916 14.2097 1.92398 13.4897 2.07432Z" fill="#FFFFDB"/>
<g style="mix-blend-mode:soft-light">
<path d="M19.6534 15.3354C19.4319 15.3354 18.3241 16.6726 20.1598 16.2849C20.6662 16.182 20.3022 15.3354 19.6534 15.3354Z" fill="#FFFFDB"/>
</g>
<path d="M23.8232 18.4766C23.8232 18.4766 24.3612 19.0621 24.6936 19.2124C25.0259 19.3548 26.0782 17.7486 26.0782 17.7486C26.0782 17.7486 25.374 18.7298 24.9467 18.8722C24.5195 19.0146 23.8153 18.4766 23.8153 18.4766H23.8232Z" fill="url(#paint20_linear_235_656)"/>
<path d="M13.5055 18.0098C13.5055 18.0098 14.0515 19.0146 14.7161 19.4577C15.3807 19.9087 16.6625 18.0098 16.6625 18.0098C16.6625 18.0098 15.444 19.2203 14.9297 19.2203C14.4154 19.2203 13.5055 18.0098 13.5055 18.0098Z" fill="url(#paint21_linear_235_656)"/>
<path d="M6.96992 19.4577C6.96992 19.4577 6.84332 19.4577 6.64552 19.4498C6.61387 19.4498 6.58222 19.4498 6.55848 19.4498C5.80681 19.4182 4.27973 19.3311 4.10566 19.0384C4.0028 18.8722 3.8762 18.2313 3.76543 17.5588C3.64674 16.7754 3.54388 15.9526 3.53597 15.8101C3.53597 15.7943 3.53597 15.7943 3.53597 15.7943H3.24321C2.43615 15.7943 0.228612 15.7864 0.11784 15.549C-0.0245823 15.2563 -0.127443 12.5423 0.363122 12.3208C0.766651 12.1388 2.53901 11.9173 3.08496 11.8619C3.11661 11.8619 3.14035 11.854 3.16409 11.854C3.21156 11.854 3.24321 11.8461 3.24321 11.8461C3.21156 11.7195 2.71309 9.35367 2.99002 8.76024C3.28277 8.1589 5.01557 7.86615 5.50614 7.81076L6.9541 19.1966L6.98575 19.4735L6.96992 19.4577Z" fill="url(#paint22_linear_235_656)"/>
<path d="M12.9279 13.7134C12.7697 14.6549 12.382 15.5569 11.7727 15.6994C11.5433 15.7547 10.5226 15.826 9.20912 15.8576C9.13 16.902 9.03505 17.7803 8.92428 18.2788C8.89263 18.4291 8.86098 18.5478 8.82933 18.619C8.51283 19.3311 7.595 19.4894 6.78795 19.4498C6.74838 19.4498 6.70091 19.4498 6.65344 19.4498C6.62179 19.4498 6.59014 19.4498 6.5664 19.4498C6.20243 19.4182 5.87803 19.3469 5.64857 19.2757C5.61692 19.2678 5.58527 19.2362 5.55362 19.1887C5.30043 18.8247 5.07097 17.4717 4.88898 15.8576C4.40633 15.8418 3.94742 15.826 3.53598 15.7943H3.50433C2.31748 15.7152 1.46294 15.5807 1.37591 15.367C1.08315 14.647 0.70336 12.7164 1.76361 12.1467C1.95351 12.0439 2.42825 11.9489 3.06915 11.854C3.1008 11.854 3.12453 11.8461 3.14827 11.8461C3.17201 11.8461 3.20366 11.8381 3.22739 11.8302C3.6151 11.7828 4.05819 11.7353 4.53293 11.6957C4.45381 10.3031 4.42216 9.19542 4.46963 8.95805C4.5804 8.34089 4.97602 7.98483 5.49032 7.80285C6.693 7.36767 8.56822 7.88989 9.01131 8.12726C9.25659 8.25385 9.35945 9.68598 9.36737 11.4583C11.3059 11.4267 12.4611 11.4425 12.6826 11.6008C13.015 11.8302 13.0941 12.7876 12.9358 13.7213L12.9279 13.7134Z" fill="url(#paint23_linear_235_656)"/>
<path d="M0.339378 12.3129C0.339378 12.3129 1.11479 12.4632 1.59744 12.2417C2.08009 12.028 4.525 11.6878 4.525 11.6878C4.525 11.6878 1.80316 11.8065 0.339378 12.3129Z" fill="url(#paint24_linear_235_656)"/>
<path d="M2.91089 8.9264C3.40937 8.19056 7.10443 7.34394 9.00339 8.11935C9.00339 8.11935 8.16468 7.50218 5.82263 7.62878C3.47266 7.75538 2.87133 8.57826 2.9188 8.9264H2.91089Z" fill="url(#paint25_linear_235_656)"/>
<g style="mix-blend-mode:multiply" opacity="0.5">
<path d="M0.10202 15.5411C0.10202 15.5411 1.819 15.6994 3.22739 15.7864C2.42033 15.7864 0.212793 15.7785 0.10202 15.5411Z" fill="#B82774"/>
</g>
<g style="mix-blend-mode:multiply" opacity="0.5">
<path d="M4.87316 15.8497C4.87316 15.8497 4.8336 18.1364 4.4538 18.3342C4.27182 18.4291 3.99489 18.0019 3.75752 17.5509C3.63883 16.7675 3.53597 15.9447 3.52806 15.8022C4.10566 15.8339 4.61205 15.8576 4.87316 15.8418V15.8497Z" fill="#B82774"/>
</g>
<g style="mix-blend-mode:multiply" opacity="0.5">
<path d="M8.91636 18.2788C8.88471 18.4291 8.85306 18.5478 8.82141 18.619C8.50492 19.3232 7.58709 19.4894 6.78003 19.4498C6.74047 19.4498 6.69299 19.4498 6.64552 19.4498C6.61387 19.4498 6.58222 19.4498 6.55848 19.4498C5.80681 19.4182 4.27973 19.3311 4.10566 19.0384C4.10566 19.0384 4.74656 19.1412 5.5457 19.1887C5.9888 19.2203 6.47936 19.2283 6.93828 19.1887C7.36554 19.157 7.76116 19.0937 8.06974 18.9672C8.41788 18.8326 8.69481 18.5794 8.92427 18.2946L8.91636 18.2788Z" fill="#B82774"/>
</g>
<path d="M9.35945 11.4504C9.35945 11.4504 10.0241 11.5691 11.1951 11.7195C12.3661 11.8777 12.6352 11.6878 12.6352 11.6878C12.6352 11.6878 12.4294 11.3555 9.35154 11.4504H9.35945Z" fill="url(#paint26_linear_235_656)"/>
<g style="mix-blend-mode:multiply" opacity="0.5">
<path d="M12.9279 13.7213C12.7697 14.647 12.382 15.5569 11.7727 15.6994C11.5433 15.7548 10.5226 15.826 9.20911 15.8576C9.20911 15.8576 11.5037 15.7152 11.9784 15.4224C12.4294 15.1455 12.8963 13.8241 12.9279 13.7213Z" fill="#B82774"/>
</g>
<g style="mix-blend-mode:multiply" opacity="0.5">
<path d="M2.9109 8.92639C3.22739 8.50703 4.09775 8.58616 4.24808 8.65737C4.39842 8.72858 4.4538 11.5216 4.35886 11.6166C4.27182 11.7115 3.43311 11.7907 3.25113 11.6957C3.06914 11.6008 2.80013 9.26662 2.9109 8.9343V8.92639Z" fill="#B82774"/>
</g>
<g style="mix-blend-mode:multiply" opacity="0.2">
<path d="M1.34426 12.5344C1.05941 13.7134 4.8336 16.0079 7.61083 15.6677C10.3881 15.3354 12.1209 12.756 12.3028 12.3683C12.4848 11.9727 9.46231 11.7748 9.35945 11.6166C9.25659 11.4584 8.71064 8.70486 7.03323 8.45958C5.35581 8.2143 5.16592 10.7067 4.88107 11.7907C4.58832 12.8747 1.86647 11.6957 1.34426 12.5344Z" fill="#FF6355"/>
</g>
<path d="M4.44589 8.32507C3.97115 8.70486 4.37468 9.19542 4.55666 9.26663C4.73864 9.33784 5.21338 8.29342 4.99975 8.19847C4.78612 8.10352 4.57248 8.23012 4.44589 8.33298V8.32507Z" fill="#FFFFDB"/>
<path d="M1.59745 12.2496C1.24139 12.123 0.932812 12.8034 1.1148 13.0962C1.28887 13.3969 2.53902 12.5898 1.59745 12.2496Z" fill="#FFFFDB"/>
<defs>
<linearGradient id="paint0_linear_235_656" x1="29.2669" y1="21.056" x2="29.2669" y2="2.13762" gradientUnits="userSpaceOnUse">
<stop offset="0.05" stop-color="#FF4B00"/>
<stop offset="1" stop-color="#FF7204"/>
</linearGradient>
<linearGradient id="paint1_linear_235_656" x1="37.6935" y1="21.0481" x2="37.6935" y2="0.578887" gradientUnits="userSpaceOnUse">
<stop stop-color="#FFA200"/>
<stop offset="1" stop-color="#FFB82F"/>
</linearGradient>
<linearGradient id="paint2_linear_235_656" x1="37.6856" y1="19.2045" x2="37.6856" y2="2.42245" gradientUnits="userSpaceOnUse">
<stop stop-color="#FF7234"/>
<stop offset="1" stop-color="#FF5E00"/>
</linearGradient>
<linearGradient id="paint3_linear_235_656" x1="37.3454" y1="19.1729" x2="37.3454" y2="2.42246" gradientUnits="userSpaceOnUse">
<stop stop-color="#DE0086"/>
<stop offset="1" stop-color="#FF003B"/>
</linearGradient>
<linearGradient id="paint4_linear_235_656" x1="38.556" y1="10.8491" x2="38.556" y2="5.57157" gradientUnits="userSpaceOnUse">
<stop stop-color="#FFA200"/>
<stop offset="1" stop-color="#FFC234"/>
</linearGradient>
<linearGradient id="paint5_linear_235_656" x1="38.556" y1="10.8491" x2="38.556" y2="5.57157" gradientUnits="userSpaceOnUse">
<stop stop-color="#FF7234"/>
<stop offset="1" stop-color="#FF5E00"/>
</linearGradient>
<linearGradient id="paint6_linear_235_656" x1="33.6899" y1="3.38776" x2="33.6899" y2="0.00128377" gradientUnits="userSpaceOnUse">
<stop stop-color="#FFDE00"/>
<stop offset="1" stop-color="#FFE834"/>
</linearGradient>
<linearGradient id="paint7_linear_235_656" x1="38.1129" y1="10.9045" x2="38.1129" y2="9.98665" gradientUnits="userSpaceOnUse">
<stop stop-color="#FFDE00"/>
<stop offset="1" stop-color="#FFE834"/>
</linearGradient>
<linearGradient id="paint8_linear_235_656" x1="37.9784" y1="14.7894" x2="37.9784" y2="13.1279" gradientUnits="userSpaceOnUse">
<stop stop-color="#FFDE00"/>
<stop offset="1" stop-color="#FFE834"/>
</linearGradient>
<linearGradient id="paint9_linear_235_656" x1="31.688" y1="18.9988" x2="33.7373" y2="18.9988" gradientUnits="userSpaceOnUse">
<stop stop-color="#FFDE00"/>
<stop offset="1" stop-color="#FFE834"/>
</linearGradient>
<linearGradient id="paint10_linear_235_656" x1="17.0107" y1="19.8533" x2="17.0107" y2="1.59957" gradientUnits="userSpaceOnUse">
<stop stop-color="#FF5E00"/>
<stop offset="0.54" stop-color="#FF691C"/>
<stop offset="1" stop-color="#FFFF34"/>
</linearGradient>
<linearGradient id="paint11_linear_235_656" x1="11.8835" y1="13.7133" x2="11.8835" y2="2.10595" gradientUnits="userSpaceOnUse">
<stop offset="0.05" stop-color="#FF4B00"/>
<stop offset="1" stop-color="#FF7204"/>
</linearGradient>
<linearGradient id="paint12_linear_235_656" x1="19.5584" y1="21.9896" x2="19.5584" y2="1.82111" gradientUnits="userSpaceOnUse">
<stop stop-color="#FFA200"/>
<stop offset="1" stop-color="#FFB82F"/>
</linearGradient>
<linearGradient id="paint13_linear_235_656" x1="19.5584" y1="19.4102" x2="19.5584" y2="4.51922" gradientUnits="userSpaceOnUse">
<stop stop-color="#FF7234"/>
<stop offset="1" stop-color="#FF5E00"/>
</linearGradient>
<linearGradient id="paint14_linear_235_656" x1="19.0758" y1="19.0463" x2="19.0758" y2="4.97021" gradientUnits="userSpaceOnUse">
<stop stop-color="#DE0086"/>
<stop offset="1" stop-color="#FF003B"/>
</linearGradient>
<linearGradient id="paint15_linear_235_656" x1="22.0429" y1="21.6811" x2="22.0429" y2="18.2234" gradientUnits="userSpaceOnUse">
<stop offset="0.05" stop-color="#FF4B00"/>
<stop offset="1" stop-color="#FF7204"/>
</linearGradient>
<linearGradient id="paint16_linear_235_656" x1="14.7715" y1="5.8564" x2="14.7715" y2="1.85276" gradientUnits="userSpaceOnUse">
<stop stop-color="#FFDE00"/>
<stop offset="1" stop-color="#FFE834"/>
</linearGradient>
<linearGradient id="paint17_linear_235_656" x1="21.6394" y1="5.36584" x2="21.6394" y2="1.58374" gradientUnits="userSpaceOnUse">
<stop stop-color="#FFDE00"/>
<stop offset="1" stop-color="#FFE834"/>
</linearGradient>
<linearGradient id="paint18_linear_235_656" x1="24.3296" y1="12.7639" x2="24.3296" y2="8.01646" gradientUnits="userSpaceOnUse">
<stop stop-color="#FFDE00"/>
<stop offset="1" stop-color="#FFE834"/>
</linearGradient>
<linearGradient id="paint19_linear_235_656" x1="15.7131" y1="12.7639" x2="15.7131" y2="10.0974" gradientUnits="userSpaceOnUse">
<stop stop-color="#FFDE00"/>
<stop offset="1" stop-color="#FFE834"/>
</linearGradient>
<linearGradient id="paint20_linear_235_656" x1="23.8232" y1="18.4766" x2="26.0782" y2="18.4766" gradientUnits="userSpaceOnUse">
<stop stop-color="#FFDE00"/>
<stop offset="1" stop-color="#FFE834"/>
</linearGradient>
<linearGradient id="paint21_linear_235_656" x1="13.5055" y1="18.7693" x2="16.6625" y2="18.7693" gradientUnits="userSpaceOnUse">
<stop stop-color="#FFDE00"/>
<stop offset="1" stop-color="#FFE834"/>
</linearGradient>
<linearGradient id="paint22_linear_235_656" x1="3.47267" y1="19.4577" x2="3.47267" y2="7.79494" gradientUnits="userSpaceOnUse">
<stop offset="0.05" stop-color="#FF4B00"/>
<stop offset="1" stop-color="#FF7204"/>
</linearGradient>
<linearGradient id="paint23_linear_235_656" x1="7.03323" y1="19.4577" x2="7.03323" y2="7.62878" gradientUnits="userSpaceOnUse">
<stop stop-color="#FFA200"/>
<stop offset="1" stop-color="#FFC234"/>
</linearGradient>
<linearGradient id="paint24_linear_235_656" x1="2.43615" y1="12.3604" x2="2.43615" y2="11.6878" gradientUnits="userSpaceOnUse">
<stop stop-color="#FFDE00"/>
<stop offset="1" stop-color="#FFE834"/>
</linearGradient>
<linearGradient id="paint25_linear_235_656" x1="5.95714" y1="8.9264" x2="5.95714" y2="7.61296" gradientUnits="userSpaceOnUse">
<stop stop-color="#FFDE00"/>
<stop offset="1" stop-color="#FFE834"/>
</linearGradient>
<linearGradient id="paint26_linear_235_656" x1="10.9973" y1="11.7828" x2="10.9973" y2="11.4346" gradientUnits="userSpaceOnUse">
<stop stop-color="#FFDE00"/>
<stop offset="1" stop-color="#FFE834"/>
</linearGradient>
</defs>
</svg>
