<svg width="39" height="35" viewBox="0 0 39 35" fill="none" xmlns="http://www.w3.org/2000/svg">
<path d="M4.62264 35C7.1717 35 9.24528 32.9264 9.24528 30.3774V24.434C9.24528 21.8849 7.1717 19.8113 4.62264 19.8113C2.07359 19.8113 0 21.8849 0 24.434V30.3774C0 32.9264 2.07359 35 4.62264 35ZM1.98113 24.434C1.98113 22.9778 3.16651 21.7925 4.62264 21.7925C6.07877 21.7925 7.26415 22.9778 7.26415 24.434V30.3774C7.26415 31.8335 6.07877 33.0189 4.62264 33.0189C3.16651 33.0189 1.98113 31.8335 1.98113 30.3774V24.434ZM38.3019 30.3774V11.2264C38.3019 8.67736 36.2283 6.60377 33.6792 6.60377C31.1302 6.60377 29.0566 8.67736 29.0566 11.2264V30.3774C29.0566 32.9264 31.1302 35 33.6792 35C36.2283 35 38.3019 32.9264 38.3019 30.3774ZM31.0377 30.3774V11.2264C31.0377 9.77028 32.2231 8.58491 33.6792 8.58491C35.1354 8.58491 36.3208 9.77028 36.3208 11.2264V30.3774C36.3208 31.8335 35.1354 33.0189 33.6792 33.0189C32.2231 33.0189 31.0377 31.8335 31.0377 30.3774ZM23.7736 30.3774V4.62264C23.7736 2.07359 21.7 0 19.1509 0C16.6019 0 14.5283 2.07359 14.5283 4.62264V30.3774C14.5283 32.9264 16.6019 35 19.1509 35C21.7 35 23.7736 32.9264 23.7736 30.3774ZM16.5094 30.3774V4.62264C16.5094 3.16651 17.6948 1.98113 19.1509 1.98113C20.6071 1.98113 21.7925 3.16651 21.7925 4.62264V30.3774C21.7925 31.8335 20.6071 33.0189 19.1509 33.0189C17.6948 33.0189 16.5094 31.8335 16.5094 30.3774Z" fill="#2F2F2F"/>
</svg>
