<svg width="29" height="29" viewBox="0 0 29 29" fill="none" xmlns="http://www.w3.org/2000/svg">
<path d="M2.78875 7.76483C-0.0159728 12.6227 0.525321 18.5069 3.7024 22.7384C3.72339 22.7727 3.74612 22.8058 3.77049 22.8378C3.77549 22.8443 3.78144 22.8498 3.78646 22.8563C3.89118 22.9927 4.00488 23.1229 4.11514 23.2556C4.20634 23.3653 4.29348 23.48 4.38735 23.5863C4.40217 23.6027 4.41744 23.6186 4.43315 23.6341C4.46381 23.6684 4.49111 23.7049 4.52215 23.7389C4.62597 23.8572 4.75236 23.9537 4.89392 24.0226C5.03548 24.0915 5.18936 24.1314 5.34655 24.1401C5.50375 24.1488 5.6611 24.1261 5.80939 24.0732C5.95769 24.0204 6.09395 23.9384 6.2102 23.8323C6.32645 23.7261 6.42035 23.5978 6.48641 23.4549C6.55246 23.312 6.58935 23.1573 6.5949 23C6.60045 22.8427 6.57456 22.6858 6.51875 22.5386C6.46293 22.3914 6.37831 22.2568 6.26984 22.1427C6.17308 22.0367 6.08555 21.924 5.99331 21.8149C5.87749 21.6774 5.76108 21.541 5.65024 21.3966C5.65002 21.3963 5.64946 21.3963 5.64924 21.396C2.97476 17.9007 2.49554 13.007 4.83874 8.94839C7.84829 3.7357 14.3706 1.85421 19.67 4.55724C19.9497 4.69997 20.2746 4.72574 20.5733 4.62888C20.872 4.53202 21.12 4.32047 21.2627 4.04077C21.4055 3.76106 21.4312 3.43612 21.3344 3.13741C21.2375 2.83871 21.026 2.59071 20.7463 2.44799C14.3457 -0.816719 6.41782 1.47908 2.78875 7.76483ZM7.88489 25.284L7.97962 26.2595L8.47315 26.7247L8.76067 26.8693L8.78986 26.8835L8.81862 26.8961L9.42916 27.1632L9.45792 27.1758L9.48784 27.1864L10.1087 27.4194L10.1386 27.43L10.1691 27.4396L10.2855 27.4761L11.2573 27.3578L11.8073 26.5463L11.5576 25.5987L10.9953 25.218L10.9028 25.1886L10.3346 24.9753L9.79979 24.7412L9.53529 24.6099L8.55629 24.5718L7.88489 25.284ZM14.3589 26.2484L14.1411 27.2036L14.7164 27.9963L15.378 28.1473L15.8188 28.1189L15.8511 28.1162L15.8823 28.1129L16.5422 28.0334L16.5734 28.0301L16.6049 28.0242L17.2611 27.9093L18.07 27.3566L18.1859 26.3838L17.5283 25.6572L16.8547 25.5779L16.2283 25.6874L15.6332 25.7589L15.2225 25.786L14.3589 26.2484ZM25.5695 10.8996C25.4215 11.1688 25.384 11.485 25.4648 11.7814C25.4865 11.8649 25.5078 11.9519 25.5289 12.0426C25.5607 12.1973 25.6231 12.3441 25.7125 12.4744C25.8019 12.6047 25.9165 12.7157 26.0495 12.801C26.1824 12.8862 26.3312 12.944 26.4868 12.9709C26.6425 12.9978 26.802 12.9933 26.9559 12.9576C27.1098 12.9219 27.255 12.8558 27.3829 12.7631C27.5108 12.6704 27.6189 12.553 27.7008 12.4179C27.7826 12.2828 27.8366 12.1326 27.8596 11.9763C27.8825 11.82 27.8739 11.6607 27.8343 11.5078C27.8102 11.4042 27.7854 11.2975 27.7571 11.1883C27.7006 10.9565 27.5753 10.7473 27.3977 10.588C27.2202 10.4287 26.9986 10.3267 26.7621 10.2955C26.5256 10.2643 26.2852 10.3053 26.0724 10.4131C25.8596 10.5209 25.6843 10.6904 25.5695 10.8996ZM20.3548 24.3863C20.2266 24.619 20.1805 24.8882 20.2238 25.1504C20.2671 25.4126 20.3974 25.6526 20.5937 25.8317C20.79 26.0108 21.0409 26.1187 21.306 26.1379C21.571 26.1572 21.8349 26.0866 22.055 25.9377C22.3002 25.7768 22.5388 25.6044 22.7743 25.4268C22.7749 25.4267 22.7754 25.4265 22.7759 25.4264C22.7987 25.4111 22.8209 25.395 22.8425 25.3781C22.8443 25.3767 22.8466 25.3762 22.8484 25.3748C22.8568 25.3682 22.8652 25.3614 22.8734 25.3546C22.9527 25.294 23.0296 25.233 23.1033 25.1737C23.2245 25.0762 23.3252 24.9559 23.3998 24.8195C23.4744 24.6831 23.5214 24.5333 23.5381 24.3788C23.5549 24.2242 23.541 24.0679 23.4973 23.9187C23.4536 23.7695 23.381 23.6304 23.2835 23.5093C23.186 23.3882 23.0657 23.2874 22.9293 23.2128C22.7929 23.1382 22.6432 23.0912 22.4886 23.0745C22.3341 23.0578 22.1777 23.0716 22.0286 23.1153C21.8794 23.159 21.7402 23.2317 21.6191 23.3291C21.5494 23.3853 21.4813 23.4391 21.4143 23.4898C21.4091 23.4939 21.4041 23.4981 21.399 23.5023C21.1867 23.6642 20.973 23.8167 20.7564 23.9588C20.5888 24.0653 20.4507 24.2123 20.3548 24.3863ZM26.0156 15.2611L25.7382 15.8803L25.7006 16.1696L25.6996 16.1784L25.6678 16.3536L25.9086 17.3027L26.7836 17.7452L27.6917 17.3766L27.9974 16.7709L28.0387 16.5399L28.044 16.5122L28.0467 16.4844L28.0868 16.186L27.7987 15.2495L26.9046 14.8494L26.0156 15.2611ZM24.1546 20.4447L24.0459 21.419L24.7089 22.1408L25.688 22.1162L26.1878 21.6573L26.4614 21.1974L26.5701 20.2231L25.9081 19.5019L24.928 19.5259L24.4282 19.9848L24.1546 20.4447Z" fill="#CCFF00"/>
</svg>
