<svg width="51" height="56" viewBox="0 0 51 56" fill="none" xmlns="http://www.w3.org/2000/svg">
<path d="M48.1291 38.6434C47.0491 44.1934 45.9091 48.8634 45.2591 49.4434C43.6291 50.9034 26.7391 55.9934 24.2091 55.9634C21.6791 55.9434 6.76907 51.4334 5.04907 49.4434C4.83907 49.2034 4.36907 47.3734 3.80907 44.6834V44.6734C1.92907 35.7234 -1.08093 17.2734 0.529071 16.2634C2.62907 14.9534 20.5691 10.9034 26.4891 10.8234C32.4191 10.7334 49.8091 17.0734 50.7491 18.7134C51.3091 19.7034 49.7891 30.1734 48.1391 38.6334L48.1291 38.6434Z" fill="url(#paint0_linear_239_179)"/>
<g style="mix-blend-mode:soft-light" opacity="0.5">
<path d="M0.539066 16.2634C-2.26093 17.7534 18.8791 24.6734 23.1291 24.6734C27.3791 24.6734 50.1091 19.1734 50.7491 18.7234C51.3891 18.2734 32.2991 10.7834 26.0891 10.8334C19.8891 10.8834 1.37907 15.8134 0.539066 16.2634Z" fill="white"/>
</g>
<g style="mix-blend-mode:multiply" opacity="0.3">
<path d="M24.2191 55.9634C21.7391 55.6534 22.4091 27.0334 23.1291 25.8334C23.8491 24.6334 48.8391 19.5434 49.8491 19.7734C50.8591 20.0034 46.1491 47.9934 45.2691 49.4334C44.3891 50.8734 25.3591 56.0934 24.2191 55.9534V55.9634Z" fill="#912790"/>
</g>
<g style="mix-blend-mode:multiply" opacity="0.74">
<path d="M48.1291 38.6434C47.0491 44.1834 45.9091 48.8634 45.2591 49.4434C43.6291 50.9034 26.7391 55.9934 24.2091 55.9634C21.6791 55.9434 6.76907 51.4334 5.04907 49.4434C4.83907 49.2034 4.36907 47.3734 3.80907 44.6834C3.97907 44.9434 4.77907 48.7434 7.21907 50.0234C8.25907 50.5734 19.8791 54.7634 23.9091 54.6834C27.9491 54.6134 42.4691 51.9334 44.5691 48.6234C46.6291 45.3934 48.0691 38.8934 48.1191 38.6434H48.1291Z" fill="#CA2790"/>
</g>
<g style="mix-blend-mode:multiply" opacity="0.5">
<path d="M24.2191 55.9634C23.2991 54.0734 31.7991 39.9234 33.8991 38.6534C35.9991 37.3734 40.4191 35.8634 41.8191 36.7934C43.2191 37.7234 45.2591 49.4534 45.2591 49.4534C45.2591 49.4534 43.2491 38.0034 42.2791 36.6834L50.7491 18.9734C50.7491 18.9734 42.4791 35.2834 42.1291 35.8634C41.7791 36.4434 38.1491 36.2734 33.0791 38.1934L23.4491 25.6134C23.4491 25.6134 23.2191 25.5334 23.1191 25.8434C23.0291 26.1534 31.7591 36.3234 31.7891 38.6534C31.8191 40.9834 23.7891 52.8734 23.4391 53.9234C23.0891 54.9734 24.1991 55.9734 24.1991 55.9734L24.2191 55.9634Z" fill="#CA2790"/>
</g>
<path d="M33.0691 39.4234C32.7691 40.4834 41.1091 37.4234 41.8191 36.7934C42.5291 36.1534 35.8391 36.4634 33.0691 39.4234Z" fill="#6D8EFF"/>
<g style="mix-blend-mode:multiply" opacity="0.2">
<path d="M25.9791 53.6834C25.9791 53.6834 31.5391 41.1034 34.0191 40.0134C36.4991 38.9234 41.3991 37.5134 42.3291 37.8734C43.2591 38.2334 45.1291 48.4434 44.8191 49.3334C44.5091 50.2234 32.3491 54.5334 28.6291 55.0034C24.8991 55.4734 25.9891 53.6834 25.9891 53.6834H25.9791Z" fill="#912790"/>
</g>
<path d="M8.41907 20.7534C8.41907 20.7534 20.0991 25.4334 22.1991 25.6634C24.2991 25.8934 47.5591 20.1334 48.9891 19.4934C50.4191 18.8534 50.6091 18.7834 50.6091 18.7834C50.6091 18.7834 27.6091 24.4034 23.4191 24.0334C16.2291 23.4034 8.41907 20.7534 8.41907 20.7534Z" fill="#92BDFF"/>
<path d="M20.0491 24.8934C21.6691 25.1834 22.2991 46.1534 22.4691 46.8434C22.6391 47.5434 21.8691 29.4834 23.1291 25.8334L20.0491 24.8834V24.8934Z" fill="#92BDFF"/>
<path d="M20.4491 25.2234C17.8991 23.7034 28.3891 23.9434 28.6991 24.2134C29.0091 24.4834 22.2591 26.8234 20.4491 25.2234Z" fill="#D6E6FF"/>
<g style="mix-blend-mode:multiply" opacity="0.2">
<path d="M0.829057 19.7734C1.16906 17.7334 16.4791 24.8034 19.1091 29.8334C21.7391 34.8634 22.0491 51.1134 21.5891 52.9734C21.1291 54.8334 7.63906 51.2434 5.62906 47.4934C3.61906 43.7434 0.199057 23.5934 0.829057 19.7734Z" fill="#C68EC5"/>
</g>
<path d="M17.3591 54.3734C17.3591 54.3734 16.1291 54.9034 15.3791 54.7934C14.6291 54.6834 10.5491 53.9434 10.1391 53.4934C9.72907 53.0434 3.76907 21.2634 4.65907 19.3034C5.54907 17.3434 22.1491 14.9534 23.1391 15.2434C24.1291 15.5334 25.9891 16.5834 25.9891 16.5834C25.9891 16.5834 13.9391 20.4234 12.5991 21.5934C11.2591 22.7634 15.6291 53.6334 15.6891 53.8634C15.7491 54.0934 17.3791 54.3834 17.3791 54.3834L17.3591 54.3734Z" fill="url(#paint1_linear_239_179)"/>
<path d="M30.6891 54.5834C30.6891 54.5834 32.5691 55.0234 33.0591 55.0834C33.5491 55.1434 39.0791 53.4534 39.7791 52.9834C40.4791 52.5134 43.2691 22.7534 43.0391 20.9434C42.8091 19.1334 26.4291 15.2434 25.8191 15.2134C25.2091 15.1834 23.5191 15.5334 22.7091 16.1734C21.8991 16.8134 33.7791 21.1234 34.5891 22.8134C35.4091 24.5034 33.3391 53.6634 33.0491 53.8734C32.7591 54.0734 30.6791 54.5934 30.6791 54.5934L30.6891 54.5834Z" fill="url(#paint2_linear_239_179)"/>
<path d="M23.7291 17.0334C21.8991 16.5134 10.8291 13.4334 10.8291 13.4334L7.54906 14.1234C7.54906 14.1234 8.02906 12.6734 8.40906 12.4934C8.78906 12.3234 16.8291 10.5034 18.2891 10.8334C19.7491 11.1534 27.3791 16.3434 27.3791 16.3434L23.7291 17.0334Z" fill="url(#paint3_linear_239_179)"/>
<path d="M43.0591 15.0434C43.0591 15.0434 43.0491 14.3434 42.8091 13.9234C42.5691 13.5034 35.5291 11.5134 34.8291 11.4534C34.1291 11.3934 23.1291 15.5934 23.1291 15.5934C23.1291 15.5934 24.9391 16.3934 26.1891 16.5734C27.4391 16.7534 41.0691 14.3634 41.3591 14.3634C41.6491 14.3634 43.0591 15.0434 43.0591 15.0434Z" fill="url(#paint4_linear_239_179)"/>
<g style="mix-blend-mode:multiply" opacity="0.74">
<path d="M34.9891 54.5534C34.9891 54.5534 35.7591 24.2634 36.7191 23.3134C37.6791 22.3534 41.7491 22.1434 42.3191 22.2234C42.8891 22.3034 40.0191 52.0834 39.6091 52.6634C39.1991 53.2434 34.9891 54.5534 34.9891 54.5534Z" fill="#CA2790"/>
</g>
<g style="mix-blend-mode:multiply" opacity="0.74">
<path d="M17.3591 54.3734C17.3591 54.3734 15.4891 54.8134 14.9491 54.7234C14.4091 54.6334 10.5591 23.2534 10.8691 21.5234C11.1791 19.7934 24.0391 17.2134 24.0391 17.2134C24.0391 17.2134 33.6591 21.2234 34.5091 21.9234C35.3591 22.6234 34.7691 26.3134 34.7691 26.3134C34.7691 26.3134 34.4091 23.2734 33.6991 22.5734C32.9891 21.8734 27.3691 18.9334 24.6491 19.0534C22.9891 19.1234 21.4191 21.8734 19.0691 22.7134C17.5691 23.2534 13.8691 21.5634 13.3391 22.4334C11.9791 24.6834 15.8991 53.8134 16.2091 54.0434C16.5191 54.2734 17.3391 54.3834 17.3391 54.3834L17.3591 54.3734Z" fill="#CA2790"/>
</g>
<g style="mix-blend-mode:soft-light">
<path d="M5.12906 18.9634C4.73906 19.8934 9.35906 20.7934 10.3691 20.7134C11.3791 20.6334 22.4091 17.4734 22.6791 17.0334C22.9491 16.5934 18.1791 15.8934 16.7191 15.9334C15.2591 15.9734 6.44906 18.0434 5.12906 18.9634Z" fill="white"/>
</g>
<g style="mix-blend-mode:multiply" opacity="0.74">
<path d="M26.0991 18.1934C26.0991 18.1934 35.2091 19.0834 40.9191 18.3234C46.6291 17.5534 43.5591 15.2134 43.5591 15.2134L24.6091 17.5034L26.1091 18.2034L26.0991 18.1934Z" fill="#CA2790"/>
</g>
<path opacity="0.5" d="M4.65907 19.2934C4.15907 19.3534 8.01907 20.7634 9.00907 20.9934C9.99907 21.2234 10.1191 21.5134 10.7891 21.1034C11.4591 20.6934 5.15907 19.2234 4.65907 19.2834V19.2934Z" fill="white"/>
<path opacity="0.5" d="M36.2291 22.5734C34.4191 22.2834 40.7091 21.1234 41.8791 21.0334C43.0491 20.9434 40.3991 23.2434 36.2291 22.5734Z" fill="white"/>
<g style="mix-blend-mode:multiply" opacity="0.4">
<path d="M5.10906 21.1234C5.25906 20.0734 10.1491 22.2334 10.5491 22.8734C10.9491 23.5034 12.6491 42.6234 12.4091 43.6634C12.1791 44.7134 8.24906 44.4034 8.11906 43.6634C7.97906 42.9234 4.96906 22.1134 5.10906 21.1234Z" fill="#C68EC5"/>
</g>
<g style="mix-blend-mode:multiply" opacity="0.74">
<path d="M30.6891 54.5834C30.6891 54.5834 32.0791 53.7634 32.4291 53.2134C32.7791 52.6734 34.7891 26.3034 34.7891 26.3034C34.7891 26.3034 33.7291 52.6334 33.2791 53.8334C32.8291 55.0434 30.6891 54.5834 30.6891 54.5834Z" fill="#CA2790"/>
</g>
<path d="M26.9691 17.0434C26.9691 17.0434 26.9591 17.0434 26.9491 17.0434C26.9491 17.0434 26.8091 17.0434 26.6391 17.1034C26.5691 17.1234 26.4691 17.1634 26.3691 17.2034C24.2791 18.0434 17.2991 21.6534 16.0891 21.8734C15.7991 21.9334 15.1691 21.8334 14.3391 21.6434C11.1391 20.9334 5.02907 18.8434 4.57907 18.3334C4.00907 17.6834 -0.840932 5.30335 5.10907 3.84335C8.81907 2.93335 13.9291 7.35335 17.8591 10.7434C20.2291 12.7934 22.1791 14.4734 23.1391 14.3934C23.1391 14.3934 24.5891 15.3634 25.7091 16.1234C25.8891 16.2434 26.0691 16.3734 26.2291 16.4834C26.4591 16.6334 26.6591 16.7834 26.7891 16.8734C26.9091 16.9634 26.9791 17.0234 26.9791 17.0434H26.9691Z" fill="url(#paint5_linear_239_179)"/>
<g style="mix-blend-mode:multiply" opacity="0.5">
<path d="M15.9991 21.1234C13.9391 21.9234 12.5791 11.2234 12.9691 9.50336C13.3591 7.78335 20.1591 16.5234 24.3791 16.5834C28.5991 16.6434 16.4491 20.9534 15.9991 21.1234Z" fill="#912790"/>
</g>
<g style="mix-blend-mode:multiply" opacity="0.74">
<path d="M26.9691 16.5834L26.7791 16.8834L26.7391 16.9434L26.6391 17.1034L26.3691 17.2034C24.2791 18.0434 17.2991 21.6534 16.0891 21.8734C15.7991 21.9334 15.1691 21.8334 14.3391 21.6434C12.8391 18.5934 9.44906 5.62336 14.1091 8.56336C15.2491 9.28336 16.5391 10.0234 17.8591 10.7434C20.2291 12.7934 22.1791 14.4734 23.1391 14.3934C23.1391 14.3934 24.5891 15.3634 25.7091 16.1234C25.0591 15.4334 24.6991 14.6834 24.6291 14.5334C25.5691 15.1134 26.2991 15.6434 26.6791 16.0734C26.8591 16.2734 26.9591 16.4434 26.9891 16.5934L26.9691 16.5834Z" fill="#CA2790"/>
</g>
<path d="M42.5691 15.7934C41.3291 17.0834 28.4791 17.7034 26.9091 17.2134C26.7891 17.1734 26.6691 17.1234 26.5591 17.0634C26.5591 17.0634 26.5491 17.0634 26.5391 17.0634C26.4791 17.0334 26.4291 17.0034 26.3691 16.9734C26.2091 16.8734 26.0591 16.7534 25.9091 16.6434C25.7591 16.5034 25.6291 16.3634 25.5091 16.2234C24.9691 15.5934 24.6691 14.8834 24.6191 14.7534C24.6191 14.7334 24.6091 14.7334 24.6091 14.7334C25.7591 14.7134 30.2591 2.03338 31.7791 0.70338C33.2191 -0.54662 42.9591 -0.0966203 46.8891 1.78338C47.3191 1.98338 47.6591 2.19338 47.9091 2.43338C50.5391 4.87338 43.8591 14.4834 42.5691 15.8134V15.7934Z" fill="url(#paint6_linear_239_179)"/>
<g style="mix-blend-mode:multiply" opacity="0.5">
<path d="M26.9291 16.4134C26.9291 16.4134 31.4791 15.2034 35.2991 13.2634C41.0091 10.3634 43.7591 4.3834 46.1491 4.1134C48.6291 3.8334 44.8891 14.1234 40.3391 15.5234C36.1891 16.8034 26.9291 16.4134 26.9291 16.4134Z" fill="#912790"/>
</g>
<g style="mix-blend-mode:multiply" opacity="0.74">
<path d="M42.5691 15.7934C41.3291 17.0834 28.4791 17.7034 26.9091 17.2134C26.7891 17.1734 26.6691 17.1234 26.5591 17.0634C26.5591 17.0634 26.5491 17.0634 26.5391 17.0634C26.5391 17.0634 26.4191 17.0634 26.2791 17.1234L26.0991 17.4234L26.0491 17.2234L25.9091 16.6434C25.9091 16.6434 25.9191 16.5834 25.9391 16.5534C25.9891 16.4134 26.1191 16.2834 26.3191 16.1534C27.8391 15.1234 33.5791 13.9234 37.2791 10.3734C42.0991 5.73337 43.6891 2.22337 46.8891 1.76337C47.3191 1.96337 47.6591 2.17337 47.9091 2.41337C50.5391 4.85337 43.8591 14.4634 42.5691 15.7934Z" fill="#CA2790"/>
</g>
<path d="M22.4691 14.2434C22.4691 14.2434 26.0191 13.3334 28.1091 14.2434C30.1991 15.1534 29.7391 16.7234 29.5091 17.4134C29.2791 18.1034 25.0891 17.7534 25.0891 17.7534C25.0891 17.7534 25.3391 16.9534 24.9891 15.8134C24.6391 14.6834 22.4691 14.2434 22.4691 14.2434Z" fill="url(#paint7_linear_239_179)"/>
<path opacity="0.3" d="M23.1291 14.1034C23.1291 14.1034 25.3991 15.2334 25.7491 15.5034C26.0991 15.7634 28.9291 15.1534 29.0091 15.0134C29.0891 14.8734 27.4891 13.9334 25.9791 13.9234C24.4691 13.9134 23.1291 14.1134 23.1291 14.1134V14.1034Z" fill="white"/>
<g style="mix-blend-mode:multiply" opacity="0.74">
<path d="M25.9391 14.0434C25.9391 14.0434 28.2891 9.0034 30.2191 5.2134C32.3091 1.1034 39.8491 2.9534 39.6991 6.2034C39.5491 9.3434 30.5691 14.1034 29.1991 14.3134C27.8691 14.5134 25.9391 14.0434 25.9391 14.0434Z" fill="#CA2790"/>
</g>
<g style="mix-blend-mode:multiply" opacity="0.74">
<path d="M12.4291 20.8334C13.9791 20.8334 10.2491 9.02338 7.14907 7.00338C4.03907 4.98338 2.94907 6.75338 2.56907 8.12338C2.18907 9.49338 4.36907 17.8734 5.09907 18.6334C5.83907 19.4034 12.4291 20.8234 12.4291 20.8234V20.8334Z" fill="#CA2790"/>
</g>
<g style="mix-blend-mode:multiply" opacity="0.74">
<path d="M27.3691 14.3034C27.3691 14.3034 29.6691 13.8034 30.8691 12.3334C32.1091 10.8034 31.4391 5.98336 30.5391 6.16336C29.6491 6.34336 25.9391 14.0434 25.9391 14.0434L27.3791 14.2934L27.3691 14.3034Z" fill="#CA2790"/>
</g>
<path opacity="0.3" d="M3.10907 5.14339C2.63907 6.00339 8.35907 6.06339 9.69907 7.92339C11.0391 9.78339 11.8291 8.12339 12.9091 7.92339C13.9891 7.72339 8.97907 4.37339 6.26907 4.31339C3.55907 4.25339 3.11907 5.14339 3.11907 5.14339H3.10907Z" fill="white"/>
<path opacity="0.3" d="M30.9191 2.45336C30.4691 3.19336 35.5791 1.68336 38.1191 2.94336C40.7391 4.23336 43.1191 3.13336 44.1091 2.14336C45.1291 1.12336 33.1091 -1.11664 30.9191 2.45336Z" fill="white"/>
<g style="mix-blend-mode:multiply" opacity="0.74">
<path d="M39.5791 10.1734C37.2391 12.5534 40.9491 15.2034 41.6091 15.0234C42.2791 14.8334 47.0991 9.05338 46.5591 5.77338C46.0091 2.42338 43.8691 5.81338 39.5791 10.1734Z" fill="#CA2790"/>
</g>
<g style="mix-blend-mode:multiply" opacity="0.74">
<path d="M13.4391 15.5634C13.6391 16.4734 22.5591 16.7034 23.1291 16.5834C23.6891 16.4534 19.2291 14.5134 16.6691 11.8334C14.1091 9.15338 13.1991 9.11338 12.9791 9.50338C12.7491 9.89338 13.2891 14.8734 13.4491 15.5634H13.4391Z" fill="#CA2790"/>
</g>
<path d="M1.19906 29.8634C1.19906 29.8634 0.0290644 20.8734 0.759064 18.6334C1.48906 16.3934 2.30906 15.5634 2.30906 15.5634C2.30906 15.5634 0.769064 15.8134 0.289064 16.3034C-0.190936 16.7934 -0.190935 19.7334 1.20906 29.8634H1.19906Z" fill="#92BDFF"/>
<path d="M0.279068 16.6634C0.319068 17.3834 0.999068 17.5234 1.14907 17.3734C1.29907 17.2234 1.83907 15.9234 1.83907 15.9234C1.83907 15.9234 0.249068 16.0034 0.289068 16.6634H0.279068Z" fill="#D6E6FF"/>
<defs>
<linearGradient id="paint0_linear_239_179" x1="25.4691" y1="55.9634" x2="25.4691" y2="10.8234" gradientUnits="userSpaceOnUse">
<stop stop-color="#517EFF"/>
<stop offset="1" stop-color="#6BA2FF"/>
</linearGradient>
<linearGradient id="paint1_linear_239_179" x1="15.2691" y1="54.8034" x2="15.2691" y2="15.2134" gradientUnits="userSpaceOnUse">
<stop stop-color="#A90086"/>
<stop offset="1" stop-color="#FF003B"/>
</linearGradient>
<linearGradient id="paint2_linear_239_179" x1="32.8691" y1="55.0834" x2="32.8691" y2="15.2134" gradientUnits="userSpaceOnUse">
<stop stop-color="#A90086"/>
<stop offset="1" stop-color="#FF003B"/>
</linearGradient>
<linearGradient id="paint3_linear_239_179" x1="17.4691" y1="17.0334" x2="17.4691" y2="10.7934" gradientUnits="userSpaceOnUse">
<stop stop-color="#E82E86"/>
<stop offset="1" stop-color="#FF003B"/>
</linearGradient>
<linearGradient id="paint4_linear_239_179" x1="33.0991" y1="16.5834" x2="33.0991" y2="11.4534" gradientUnits="userSpaceOnUse">
<stop stop-color="#E82E86"/>
<stop offset="1" stop-color="#FF003B"/>
</linearGradient>
<linearGradient id="paint5_linear_239_179" x1="14.5691" y1="21.8834" x2="14.5691" y2="3.71335" gradientUnits="userSpaceOnUse">
<stop stop-color="#A90086"/>
<stop offset="1" stop-color="#FF003B"/>
</linearGradient>
<linearGradient id="paint6_linear_239_179" x1="36.5591" y1="17.3834" x2="36.5591" y2="-0.0166199" gradientUnits="userSpaceOnUse">
<stop stop-color="#A90086"/>
<stop offset="1" stop-color="#FF003B"/>
</linearGradient>
<linearGradient id="paint7_linear_239_179" x1="26.0991" y1="17.8434" x2="26.0991" y2="13.8334" gradientUnits="userSpaceOnUse">
<stop stop-color="#A90086"/>
<stop offset="1" stop-color="#FF003B"/>
</linearGradient>
</defs>
</svg>
