<svg width="46" height="48" viewBox="0 0 46 48" fill="none" xmlns="http://www.w3.org/2000/svg">
<path d="M45.91 23.56C45.91 26.72 45.38 29.72 44.41 32.47C44.1 33.36 43.74 34.22 43.34 35.05C42.52 36.77 41.51 38.35 40.35 39.74C40.35 39.74 40.32 39.77 40.3 39.79C39.79 40.4 39.26 40.98 38.7 41.52C38.68 41.54 38.66 41.56 38.64 41.58C37.84 42.34 36.99 43.02 36.1 43.63C36.07 43.65 36.05 43.67 36.02 43.68C33.38 45.44 30.35 46.48 27.13 46.58H27.07C26.93 46.58 26.78 46.58 26.63 46.58C26.41 46.58 26.18 46.58 25.95 46.57C25.83 46.57 25.71 46.56 25.59 46.55C25.48 46.55 25.37 46.54 25.27 46.52C25.14 46.52 25.03 46.5 24.9 46.49C24.83 46.49 24.76 46.47 24.68 46.46C23.61 46.33 22.57 46.1 21.56 45.77C20.9 45.56 20.25 45.3 19.62 45.01C12.43 41.65 7.34 33.3 7.34 23.53C7.34 21.84 7.49 20.19 7.78 18.61C9.2 10.82 13.91 4.5 20.1 1.85C21.47 1.26 22.92 0.85 24.42 0.64C24.47 0.64 24.53 0.63 24.58 0.62C24.61 0.62 24.65 0.61 24.69 0.61C25.29 0.54 25.9 0.5 26.52 0.49H26.65C26.76 0.49 26.88 0.49 26.99 0.49C32.19 0.6 36.9 3.17 40.31 7.27C40.38 7.34 40.43 7.41 40.46 7.45C40.51 7.5 40.53 7.53 40.53 7.53C43.88 11.67 45.94 17.31 45.94 23.52L45.91 23.56Z" fill="url(#paint0_linear_235_238)"/>
<path d="M27.91 46.54L27.12 46.6H27.06L22.87 46.9H22.78L20.92 47.04H20.89L19.67 47.13H19.59V47.04V46.64L19.6 45.96V45.06L19.9 18.14L20.08 1.9V0.8L20.1 0.04V0L22.61 0.19L26.95 0.52V0.86V0.95V1.39L26.96 1.6V1.65L27.2 13.1L27.83 43.64L27.86 45.23V45.45L27.88 46.07V46.54H27.91Z" fill="url(#paint1_linear_235_238)"/>
<path d="M39.84 23.56C39.84 26.82 39.29 29.92 38.28 32.74C38.28 32.74 38.28 32.76 38.28 32.77C38.25 32.87 38.14 33.17 37.96 33.62C37.88 33.84 37.79 34.06 37.7 34.27C36.82 36.34 35.68 38.23 34.34 39.89C34.16 40.13 33.96 40.36 33.77 40.58C32.07 42.52 30.09 44.09 27.9 45.22C26.87 45.75 25.8 46.17 24.69 46.48C24.39 46.57 24.08 46.64 23.77 46.72C23.51 46.78 23.26 46.83 22.99 46.87C22.96 46.87 22.92 46.88 22.89 46.89C21.99 47.04 21.06 47.12 20.13 47.12C19.99 47.12 19.84 47.12 19.69 47.12H19.61C17.74 47.06 15.94 46.68 14.24 46.04C14.01 45.96 13.79 45.88 13.57 45.79C13.52 45.78 13.48 45.76 13.43 45.74C11.5 44.91 9.72 43.73 8.12 42.27C8.12 42.26 8.1 42.25 8.09 42.24C6.85 41.1 5.73 39.79 4.75 38.34C2.02 34.28 0.389999 29.15 0.389999 23.56C0.389999 19.48 1.26 15.63 2.79 12.29C2.79 12.29 2.84 12.16 2.96 11.94C5.48 6.63 9.69 2.6 14.71 0.9C14.72 0.9 14.74 0.9 14.75 0.89C15.05 0.78 15.35 0.69 15.65 0.61C15.81 0.56 15.97 0.52 16.13 0.48C16.42 0.41 16.7 0.35 16.99 0.3C17.15 0.27 17.33 0.24 17.49 0.21C18.35 0.07 19.22 0 20.11 0C21 0 21.8 0.07 22.62 0.19C23.32 0.3 24 0.44 24.67 0.64C24.7 0.64 24.73 0.64 24.76 0.66C25.02 0.73 25.27 0.81 25.53 0.9C25.54 0.9 25.56 0.9 25.58 0.91C26.05 1.07 26.53 1.26 26.99 1.46C34.49 4.8 39.84 13.43 39.84 23.55V23.56Z" fill="url(#paint2_linear_235_238)"/>
<g style="mix-blend-mode:multiply" opacity="0.2">
<path d="M31.85 6.15C31.72 7.06 30.1 10.15 27.23 13.09C25.32 15.05 22.86 16.96 19.92 18.11C18.67 18.6 17.34 18.96 15.92 19.13C12.52 19.54 9.83 19.24 7.78 18.63C3.94 17.47 2.32 15.16 2.43 14.13C2.43 14.13 3.91 10.43 6.85 6.84C8.82 4.43 11.45 2.06 14.72 0.89C14.73 0.89 14.75 0.89 14.76 0.88C15.06 0.77 15.36 0.68 15.66 0.6C15.77 0.57 15.88 0.53 15.99 0.51C16.04 0.5 16.09 0.48 16.14 0.48C16.43 0.41 16.71 0.35 17 0.3C17.16 0.27 17.34 0.24 17.5 0.21C18.4 0.0799998 19.27 0.0299998 20.12 0.0399998C21.62 0.0499998 23.03 0.28 24.32 0.65C24.35 0.65 24.39 0.66 24.42 0.68C25.35 0.94 26.22 1.28 27 1.66C27.38 1.83 27.73 2.02 28.07 2.21C28.45 2.43 28.85 2.68 29.27 2.97C30.99 4.2 31.95 5.48 31.85 6.15Z" fill="#F42774"/>
</g>
<g style="mix-blend-mode:soft-light">
<path d="M2.18 32.51C3.02 34 16.31 27.83 22.44 26.01C28.58 24.2 38.15 26.12 38.98 25.39C39.81 24.65 38.87 14.15 35.36 9.15C31.84 4.15 31.95 9.42 28.39 11.91C24.83 14.4 10.23 18.81 7.12 18.48C4.01 18.15 3.01 16.73 1.84 16.9C0.669999 17.07 -1.81 25.39 2.18 32.52V32.51Z" fill="white"/>
</g>
<path d="M32.75 23.56C32.75 31.73 27.53 38.42 20.9 39.02C20.58 39.05 20.26 39.07 19.93 39.07C12.85 39.07 7.11 32.13 7.11 23.57C7.11 15.01 12.85 8.07 19.93 8.07C20.26 8.07 20.58 8.09 20.9 8.12C27.53 8.71 32.75 15.41 32.75 23.57V23.56Z" fill="url(#paint3_linear_235_238)"/>
<path d="M32.75 23.56C32.75 31.73 27.53 38.42 20.9 39.02C14.27 38.43 9.03999 31.74 9.03999 23.56C9.03999 15.38 14.27 8.7 20.9 8.11C27.53 8.7 32.75 15.4 32.75 23.56Z" fill="#FF6B04"/>
<path d="M1.03 29.31C0.549998 26.49 6.57 30.06 2.32 33.45C2.32 33.45 1.41 31.59 1.03 29.31Z" fill="white"/>
<g style="mix-blend-mode:soft-light">
<path d="M26.62 0.52C25.04 0.37 34.59 3.99 37.09 10.66C39.59 17.33 44.27 15.18 44.27 15.18C44.27 15.18 39.76 1.08 26.62 0.52Z" fill="white"/>
</g>
<g style="mix-blend-mode:multiply" opacity="0.7">
<path d="M44.41 32.47C44.28 33.09 43.9 34 43.34 35.05C42.52 36.61 41.32 38.47 39.96 40.12L39.94 40.14C39.54 40.62 39.13 41.08 38.71 41.52C38.69 41.54 38.67 41.56 38.65 41.58C37.82 42.42 36.96 43.14 36.11 43.63C36.08 43.65 36.06 43.67 36.03 43.68C33.21 45.28 29.99 46.01 27.93 46.34C26.99 46.49 26.29 46.55 25.97 46.58C25.84 46.58 25.77 46.59 25.77 46.59C25.7 46.58 25.65 46.57 25.61 46.56C25.54 46.55 25.49 46.53 25.47 46.51C25.27 46.36 26.32 46.17 27.92 45.43C30.71 44.16 35.18 41.26 37.71 34.27C37.71 34.27 43.01 31.38 44.3 31.63C44.52 31.67 44.56 31.97 44.44 32.46L44.41 32.47Z" fill="#DE376D"/>
</g>
<path d="M25.5 0.889999C25.5 0.889999 36.53 3.4 39.84 17.05C43.15 30.71 32.99 41.73 32.99 41.73C32.99 41.73 40.34 31.71 38.73 18.46C37.12 5.21 25.5 0.889999 25.5 0.889999Z" fill="#FFE016"/>
<path d="M39.61 17.27C38.79 16.07 37.14 22.62 39.41 23.88C40.52 24.49 41.19 19.59 39.61 17.27Z" fill="white"/>
<g style="mix-blend-mode:soft-light" opacity="0.5">
<path d="M38.27 32.77C38.24 32.87 38.13 33.17 37.95 33.62C37.42 34.91 36.26 37.4 34.33 39.89C32.73 41.95 30.61 44.01 27.89 45.38C26.96 45.84 25.96 46.23 24.9 46.51C24.66 46.57 24.43 46.63 24.18 46.67C24.18 46.67 24.16 46.67 24.15 46.67C23.77 46.75 23.39 46.82 22.98 46.86C22.92 46.87 22.85 46.88 22.79 46.89C22.74 46.89 22.68 46.9 22.63 46.91C22.05 46.97 21.48 47.01 20.93 47.02H20.9C20.45 47.03 20.02 47.02 19.6 47.02C17.22 46.93 15.2 46.43 13.56 45.78C13.51 45.77 13.47 45.75 13.42 45.73C10.2 44.44 8.42001 42.6 8.11001 42.26C8.11001 42.25 8.09001 42.24 8.08001 42.23C8.07001 42.21 8.06001 42.2 8.06001 42.2C7.62001 41.78 10.24 43.88 14.29 45.12C15.84 45.59 17.67 45.94 19.6 45.93C20.24 45.93 20.89 45.88 21.55 45.78C21.72 45.75 21.9 45.73 22.07 45.69C24.2 45.31 26.12 44.56 27.85 43.61C34.45 39.96 37.98 33.3 38.27 32.75V32.77Z" fill="white"/>
</g>
<path d="M11.17 34.86C11.17 34.86 20.73 42.69 28.32 35.29C28.32 35.29 20 44.5 11.17 34.86Z" fill="#FFE016"/>
<g style="mix-blend-mode:multiply" opacity="0.5">
<path d="M7.67999 18.6C8.07999 21.22 10.36 12.89 18.34 10.35C26.32 7.81 32.21 19.1 32.21 19.1C32.21 19.1 30.64 8.01 19.63 8C11.02 8 7.67999 18.59 7.67999 18.59V18.6Z" fill="#D42F55"/>
</g>
<g style="mix-blend-mode:soft-light">
<path d="M29.47 44.69C28.68 45.2 33.13 45.29 34.95 44.25C36.77 43.21 39.34 41.15 39.68 39.89C40.03 38.63 37.53 38.88 36.03 39.26C34.53 39.65 33.16 42.32 29.47 44.69Z" fill="white"/>
</g>
<path d="M39.68 29.72C38.23 29.25 36.35 32.31 37.48 34.89C38.61 37.47 43 30.8 39.68 29.72Z" fill="url(#paint4_linear_235_238)"/>
<g style="mix-blend-mode:multiply" opacity="0.7">
<path d="M37.53 31.88C37.47 33.75 39.64 33.87 40.43 32.89C41.22 31.91 41.09 29.72 39.5 29.68C37.91 29.64 37.53 31.88 37.53 31.88Z" fill="#DE376D"/>
</g>
<path d="M37.15 33.5C37.58 32.37 38.9 33.76 39.68 33.82C40.46 33.88 39.2 35.74 38.29 35.47C37.38 35.2 37.15 33.5 37.15 33.5Z" fill="#FF9500"/>
<path d="M34.95 30.51C33.49 30.05 32.11 32.26 32.76 33.76C33.41 35.26 37.5 31.32 34.95 30.51Z" fill="url(#paint5_linear_235_238)"/>
<g style="mix-blend-mode:multiply" opacity="0.7">
<path d="M34.31 30.45C33.32 30.74 33.03 32.28 33.44 32.74C33.85 33.2 35.74 32.64 35.78 31.59C35.82 30.54 34.71 30.33 34.32 30.45H34.31Z" fill="#DE376D"/>
</g>
<path d="M32.59 33.23C32.82 31.86 33.4 33.23 34.18 33.39C34.96 33.55 32.68 35.08 32.59 33.23Z" fill="#FF9500"/>
<path d="M11.09 12C9.99 11.64 8.93 13.3 9.41 14.44C9.89 15.58 13.01 12.63 11.09 12Z" fill="url(#paint6_linear_235_238)"/>
<g style="mix-blend-mode:multiply" opacity="0.7">
<path d="M10.6 11.94C9.85001 12.15 9.62001 13.32 9.92001 13.67C10.22 14.02 11.66 13.61 11.7 12.82C11.74 12.03 10.9 11.86 10.6 11.94Z" fill="#DE376D"/>
</g>
<path d="M9.28 14.03C9.46 12.99 9.89 14.03 10.48 14.16C11.07 14.29 9.33 15.42 9.28 14.03Z" fill="#FF9500"/>
<g style="mix-blend-mode:multiply" opacity="0.8">
<path d="M40.44 7.49C40.39 7.43 40.34 7.37 40.29 7.31C40.35 7.38 40.41 7.44 40.44 7.49Z" fill="#D42F55"/>
</g>
<g style="mix-blend-mode:multiply" opacity="0.8">
<path d="M40.29 7.31C39.85 6.81 38.73 5.64 36.87 4.42C36.87 4.42 36.86 4.42 36.85 4.41C34.63 2.95 31.36 1.42 26.97 0.86C26.91 0.85 26.84 0.84 26.79 0.83C26.14 0.75 25.46 0.69 24.76 0.66C24.69 0.66 24.63 0.66 24.57 0.66C24.48 0.66 24.4 0.66 24.31 0.66C23.23 0.62 22.09 0.65 20.9 0.74C20.63 0.76 20.37 0.79 20.1 0.82C13.83 1.51 9.55999 4.24 6.83999 6.87C4.57999 9.05 3.36999 11.15 2.95999 11.96C5.47999 6.63 9.68999 2.6 14.71 0.9C14.72 0.9 14.74 0.9 14.75 0.89C15.05 0.78 15.35 0.69 15.65 0.61C15.76 0.58 15.87 0.54 15.98 0.52C16.03 0.51 16.08 0.49 16.13 0.49C16.42 0.42 16.7 0.36 16.99 0.31C17.15 0.28 17.33 0.25 17.49 0.22C18.35 0.0800002 19.22 0.0100002 20.11 0.0100002C21 0.0100002 21.8 0.0800002 22.62 0.2L26.96 0.53C32.17 0.64 36.87 3.22 40.28 7.32L40.29 7.31Z" fill="#D42F55"/>
</g>
<g style="mix-blend-mode:multiply" opacity="0.8">
<path d="M40.3 39.8C39.79 40.41 39.26 40.99 38.7 41.53C38.68 41.55 38.66 41.57 38.64 41.59C37.81 42.43 36.95 43.15 36.1 43.64C36.07 43.66 36.05 43.68 36.02 43.69C33.38 45.45 30.35 46.49 27.13 46.59H27.07L22.88 46.89C21.98 47.04 21.05 47.12 20.12 47.12C19.98 47.12 19.83 47.12 19.68 47.12H19.6C17.73 47.06 15.93 46.68 14.23 46.04C14 45.96 13.78 45.88 13.56 45.79C13.51 45.78 13.47 45.76 13.42 45.74C10.2 44.45 8.42001 42.61 8.11001 42.27C8.11001 42.26 8.09001 42.25 8.08001 42.24C6.84001 41.1 5.72001 39.79 4.74001 38.34C4.92001 38.53 8.62001 42.73 14.29 45.14C15.91 45.83 17.69 46.37 19.6 46.63C20.93 46.81 22.32 46.86 23.75 46.73C23.88 46.72 24.01 46.7 24.13 46.69C24.14 46.69 24.16 46.69 24.16 46.69C24.53 46.66 24.89 46.61 25.25 46.56C25.31 46.56 25.37 46.55 25.43 46.54C26.29 46.41 27.11 46.26 27.9 46.08C34.59 44.56 38.65 41.31 39.93 40.17L39.95 40.15C40.11 40 40.23 39.89 40.3 39.82V39.8Z" fill="#D42F55"/>
</g>
<path d="M30.18 1.47C27.88 1.37 32.75 4.96 34.69 6.52C36.63 8.08 39.75 6.98 39.84 6.83C39.93 6.68 34.82 1.67 30.18 1.47Z" fill="white"/>
<path d="M32.58 23.43C32.3 20.83 25.92 10.85 18.89 12.63C12.73 14.19 9.00999 21.53 9.20999 25.35C9.27999 26.75 12.85 33.78 20.03 33.8C27.21 33.82 32.85 26.04 32.57 23.43H32.58ZM19.93 29.67C13.76 29.67 12.18 25.46 11.83 24.74C11.17 23.39 14.28 18.07 19.48 17.43C24.68 16.79 28.79 22.11 28.92 23.55C29.05 24.99 25.96 29.66 19.93 29.66V29.67Z" fill="url(#paint7_linear_235_238)"/>
<path d="M24.36 23.4C24.36 26.35 22.36 28.74 19.9 28.74C17.44 28.74 15.44 26.35 15.44 23.4C15.44 20.45 17.44 18.06 19.9 18.06C22.36 18.06 24.36 20.45 24.36 23.4Z" fill="url(#paint8_linear_235_238)"/>
<path d="M24.69 14.51C22.55 12.91 20.03 11.96 17.44 12.62C14.16 13.45 11.57 15.92 9.90001 18.63C8.43001 21 7.67001 23.56 7.76001 25.34C7.80001 26.14 8.97001 28.74 11.28 30.84C13.04 32.46 15.48 33.78 18.59 33.79C25.02 33.81 30.22 27.57 31.02 24.39C31.12 24.02 31.15 23.69 31.13 23.42C30.95 21.78 28.35 17.21 24.7 14.51H24.69ZM18.47 29.66C17.94 29.66 17.44 29.63 16.98 29.57C12.04 28.96 10.7 25.4 10.38 24.74C9.94001 23.85 11.15 21.23 13.51 19.37C14.73 18.41 16.26 17.66 18.03 17.44C18.8 17.35 19.54 17.38 20.26 17.52C24.36 18.29 27.36 22.33 27.47 23.56C27.53 24.22 26.91 25.55 25.66 26.8C24.17 28.29 21.76 29.67 18.48 29.67L18.47 29.66Z" fill="url(#paint9_linear_235_238)"/>
<path d="M22.66 23.4C22.66 26.35 20.7 28.74 18.27 28.74C15.84 28.74 13.88 26.35 13.88 23.4C13.88 21.69 14.55 20.16 15.57 19.18C16.32 18.47 17.25 18.05 18.27 18.05C18.47 18.05 18.67 18.07 18.87 18.1C21.01 18.46 22.66 20.69 22.66 23.4Z" fill="url(#paint10_linear_235_238)"/>
<g style="mix-blend-mode:multiply" opacity="0.5">
<path d="M10.54 24.3C10.66 25.33 12.95 19.72 17.3 18.23C21.65 16.74 26.99 22.39 26.99 22.39C26.99 22.39 24.64 17.52 18.45 17.38C12.26 17.24 10.55 24.3 10.55 24.3H10.54Z" fill="#D42F55"/>
</g>
<g style="mix-blend-mode:soft-light">
<path d="M16.98 29.57C14.51 30.26 12.4 30.74 11.28 30.84C8.97001 28.74 7.80001 26.14 7.76001 25.34C7.67001 23.55 8.43001 21 9.90001 18.63C11.11 19.13 12.33 19.35 13.51 19.36C11.15 21.23 9.94001 23.84 10.38 24.73C10.7 25.39 12.04 28.96 16.98 29.56V29.57Z" fill="white"/>
</g>
<g style="mix-blend-mode:soft-light">
<path d="M22.9 23.4C22.9 26.35 20.9 28.74 18.44 28.74C15.98 28.74 13.98 26.35 13.98 23.4C13.98 21.69 14.66 20.16 15.7 19.18C16.89 18.96 18.01 18.57 19.05 18.1C21.23 18.46 22.9 20.69 22.9 23.4Z" fill="white"/>
</g>
<g style="mix-blend-mode:soft-light">
<path d="M31.13 23.43C31.16 23.7 31.13 24.03 31.02 24.4C29.99 25.07 28 25.93 25.65 26.8C26.9 25.55 27.52 24.22 27.46 23.56C27.35 22.33 24.34 18.29 20.25 17.52C22.39 16.37 24 15.03 24.69 14.52C28.34 17.22 30.94 21.79 31.12 23.43H31.13Z" fill="white"/>
</g>
<path d="M25.29 14.98C25.29 14.98 24.83 15.86 25.7 17.38C26.56 18.91 28.31 18.11 28.3 18.1C28.29 18.09 26.69 15.38 25.29 14.98Z" fill="white"/>
<defs>
<linearGradient id="paint0_linear_235_238" x1="26.62" y1="46.6" x2="26.62" y2="0.519998" gradientUnits="userSpaceOnUse">
<stop offset="0.05" stop-color="#FF3F00"/>
<stop offset="0.72" stop-color="#FF6A03"/>
<stop offset="1" stop-color="#FFFF04"/>
</linearGradient>
<linearGradient id="paint1_linear_235_238" x1="23.75" y1="47.12" x2="23.75" y2="0" gradientUnits="userSpaceOnUse">
<stop offset="0.05" stop-color="#FF3F00"/>
<stop offset="0.72" stop-color="#FF6A03"/>
<stop offset="1" stop-color="#FFFF04"/>
</linearGradient>
<linearGradient id="paint2_linear_235_238" x1="20.11" y1="47.12" x2="20.11" y2="0" gradientUnits="userSpaceOnUse">
<stop stop-color="#FFA900"/>
<stop offset="1" stop-color="#FF9600"/>
</linearGradient>
<linearGradient id="paint3_linear_235_238" x1="19.94" y1="39.06" x2="19.94" y2="8.06" gradientUnits="userSpaceOnUse">
<stop stop-color="#FF7C04"/>
<stop offset="1" stop-color="#D92000"/>
</linearGradient>
<linearGradient id="paint4_linear_235_238" x1="39.02" y1="35.47" x2="39.02" y2="29.67" gradientUnits="userSpaceOnUse">
<stop offset="0.04" stop-color="#EF6300"/>
<stop offset="1" stop-color="#E13E00"/>
</linearGradient>
<linearGradient id="paint5_linear_235_238" x1="34.18" y1="34.09" x2="34.18" y2="30.45" gradientUnits="userSpaceOnUse">
<stop offset="0.04" stop-color="#EF6300"/>
<stop offset="1" stop-color="#E13E00"/>
</linearGradient>
<linearGradient id="paint6_linear_235_238" x1="10.4815" y1="14.7079" x2="10.5104" y2="11.948" gradientUnits="userSpaceOnUse">
<stop offset="0.04" stop-color="#EF6300"/>
<stop offset="1" stop-color="#E13E00"/>
</linearGradient>
<linearGradient id="paint7_linear_235_238" x1="24.04" y1="33.01" x2="16.87" y2="13.31" gradientUnits="userSpaceOnUse">
<stop stop-color="#EA5104"/>
<stop offset="1" stop-color="#D92000"/>
</linearGradient>
<linearGradient id="paint8_linear_235_238" x1="21.69" y1="28.33" x2="18.1" y2="18.47" gradientUnits="userSpaceOnUse">
<stop stop-color="#EA5104"/>
<stop offset="1" stop-color="#D92000"/>
</linearGradient>
<linearGradient id="paint9_linear_235_238" x1="22.59" y1="33.01" x2="15.42" y2="13.31" gradientUnits="userSpaceOnUse">
<stop stop-color="#FF9600"/>
<stop offset="1" stop-color="#FFA900"/>
</linearGradient>
<linearGradient id="paint10_linear_235_238" x1="20.06" y1="28.32" x2="16.47" y2="18.47" gradientUnits="userSpaceOnUse">
<stop stop-color="#FF9600"/>
<stop offset="1" stop-color="#FFA900"/>
</linearGradient>
</defs>
</svg>
