<svg width="90" height="89" viewBox="0 0 90 89" fill="none" xmlns="http://www.w3.org/2000/svg">
<path style="mix-blend-mode:screen" opacity="0.5" d="M27.1337 52.616C35.58 56.7378 32.2667 81.7455 50.2602 85.8953C68.2537 90.0486 72.5943 38.2843 69.3301 23.0764C67.7243 15.5899 55.7368 21.3766 46.8908 17.8191C37.7643 14.1529 30.703 8.62913 26.7586 7.38488C9.00351 1.79452 4.52266 36.7422 28.1996 45.0313C34.1881 47.1273 27.1337 52.6125 27.1337 52.6125V52.616Z" fill="url(#paint0_linear_235_366)"/>
<path style="mix-blend-mode:screen" opacity="0.5" d="M30.2261 36.297C33.2029 48.7395 18.9189 47.2605 14.1049 56.6747C9.29452 66.0854 19.1853 73.2846 25.3912 85.0962C31.597 96.9078 38.5147 76.5056 44.3138 72.1279C50.1129 67.7503 58.7731 71.9947 64.4285 77.9005C70.0839 83.8064 80.732 70.6874 80.9494 60.4986C81.1668 50.3097 72.2332 56.9165 70.4135 63.2324C68.5938 69.5483 70.5853 71.3989 73.6356 68.9525C76.686 66.5025 72.5452 68.6616 74.3965 63.5689C76.2477 58.4762 80.4901 70.2423 71.3181 74.2554C62.146 78.2686 63.8815 66.9196 60.6629 59.9974C57.4443 53.0751 45.0887 71.7634 32.2948 65.5352C19.5009 59.3069 32.1966 55.0309 39.7243 57.7928C47.2519 60.5547 30.2261 36.297 30.2261 36.297Z" fill="url(#paint1_linear_235_366)"/>
<path style="mix-blend-mode:screen" opacity="0.5" d="M20.9349 51.4489C23.838 57.0217 20.2968 60.8175 19.8375 68.3636C19.3747 75.9133 38.1886 69.8217 45.3236 75.9133C52.4586 82.0048 65.9537 68.8754 73.2359 56.7763C80.5217 44.6773 60.8102 28.772 56.6344 11.7871C52.4585 -5.1943 48.6895 6.07054 27.9191 11.7871C7.14876 17.5036 13.9927 41.6876 15.886 48.8903C17.7794 56.0964 9.47683 62.5104 6.65439 57.7893C5.7989 56.3558 6.34936 55.3568 8.16554 55.08C9.98172 54.8031 7.41523 56.2576 8.28124 56.878C9.14726 57.4984 11.1422 56.4644 12.0433 53.2083C12.9444 49.9558 4.75757 51.3823 2.70999 57.7858C0.665914 64.1893 5.02755 67.6031 8.82469 70.2318C12.6218 72.8605 12.3308 59.9799 17.1973 57.7367C22.0604 55.4935 20.9419 51.4418 20.9419 51.4418L20.9349 51.4489Z" fill="url(#paint2_linear_235_366)"/>
<path d="M85.6652 34.7058C85.6371 34.7584 85.6056 34.8145 85.5705 34.867C85.0867 35.6416 84.5677 36.255 84.0138 36.6335C81.6471 38.2773 75.9041 39.0519 71.8966 39.4024C69.4633 39.6232 67.6717 39.6793 67.6717 39.6793V29.1154C67.6717 29.1154 69.7473 28.1516 72.6048 26.8372C78.7931 24.0158 88.6594 19.6066 89.2134 19.9641C89.9076 20.4162 88.4315 30.1179 85.6617 34.7058H85.6652Z" fill="url(#paint3_linear_235_366)"/>
<g style="mix-blend-mode:multiply" opacity="0.5">
<path d="M85.6652 34.7058C85.6371 34.7584 85.6056 34.8145 85.5705 34.867C85.0867 35.6416 84.5677 36.255 84.0138 36.6335C81.6471 38.2773 75.9041 39.0519 71.8966 39.4024C69.4633 39.6232 67.6717 39.6793 67.6717 39.6793V37.4887C67.6717 37.4887 68.2046 37.3801 69.0601 37.1733C69.0601 37.1733 69.0671 37.1733 69.0882 37.1663C69.1022 37.1593 69.1337 37.1523 69.1688 37.1452C69.6211 37.0436 70.161 36.9174 70.7536 36.7667L70.7746 36.7597C71.0831 36.6861 71.3952 36.6055 71.7318 36.5179H71.7388C73.4428 36.0727 75.4448 35.5014 77.2119 34.867C77.2399 34.86 77.2715 34.853 77.2925 34.846C78.5793 34.3869 79.7468 33.8892 80.5953 33.3844C80.69 33.3249 80.7706 33.2758 80.8512 33.2232C80.8653 33.2092 80.8863 33.2022 80.9038 33.1882C81.2334 32.9779 81.5034 32.7501 81.6927 32.5292C81.7804 32.4276 81.875 32.3084 81.9697 32.1788C81.9837 32.1717 81.9907 32.1577 81.9977 32.1507C83.1372 30.6541 84.978 27.5417 86.5066 24.8464C86.5417 24.7869 86.5733 24.7308 86.6013 24.6852C88.0564 22.1196 89.2099 19.9676 89.2099 19.9676C89.9041 20.4197 88.428 30.1214 85.6582 34.7093L85.6652 34.7058Z" fill="#BE2F55"/>
</g>
<path d="M81.1563 47.667C80.5357 47.8213 79.4383 47.8949 78.1305 47.9229L78.0849 47.9299H77.9096C77.836 47.9299 77.7553 47.9369 77.6817 47.9369C76.0513 47.965 74.158 47.9299 72.4576 47.8703C69.835 47.7897 67.6717 47.667 67.6717 47.667V38.9222C67.7067 38.9152 67.7453 38.9012 67.7804 38.8942C68.0889 38.8066 69.0145 38.5577 70.3223 38.2142L71.9737 37.7902C76.0373 36.7527 82.0293 35.3052 85.567 34.867C87.022 34.6918 88.0599 34.6778 88.3789 34.9336C88.4315 34.9617 88.4596 35.0002 88.4736 35.0423C88.8522 36.0727 84.6799 46.8118 81.1528 47.667H81.1563Z" fill="url(#paint4_linear_235_366)"/>
<g style="mix-blend-mode:multiply" opacity="0.5">
<path d="M81.1563 47.667C80.5357 47.8213 79.4383 47.8949 78.1305 47.9229L78.0849 47.9299H77.9096C77.836 47.9299 77.7553 47.9369 77.6817 47.9369C76.0513 47.965 74.158 47.9299 72.4576 47.8703C69.835 47.7897 67.6717 47.667 67.6717 47.667V45.7814H68.0889C68.5728 45.7814 69.4318 45.7744 70.5152 45.7218C70.6905 45.7148 70.8728 45.7078 71.0551 45.7008C71.2234 45.6868 71.4057 45.6797 71.581 45.6657C72.4365 45.6131 73.3797 45.5325 74.3368 45.4239H74.3579C75.9812 45.2206 77.6677 44.9192 79.1157 44.46C80.3288 44.0745 81.6366 43.0721 82.8848 41.8383C82.9269 41.8033 82.9725 41.7577 83.018 41.7052C83.8139 40.9025 84.5888 40.0193 85.29 39.1571C85.4303 38.9748 85.56 38.8206 85.6546 38.6979C85.7142 38.6243 85.7774 38.5437 85.83 38.4631C85.8825 38.4105 85.9106 38.3755 85.9246 38.3544C87.0501 36.8929 87.9407 35.5785 88.3789 34.9371C88.4315 34.9652 88.4596 35.0037 88.4736 35.0458C88.8522 36.0762 84.6799 46.8153 81.1528 47.6705L81.1563 47.667Z" fill="#BE2F55"/>
</g>
<path d="M77.9096 47.9299C77.7062 49.1146 75.3291 53.9479 70.2873 54.9433C69.3231 55.1395 68.2642 55.1921 67.1002 55.0449C67.1002 55.0449 67.2404 54.0145 67.3631 52.6195C67.5174 51.1159 67.6717 49.1917 67.6717 47.667C67.6717 47.667 68.7235 47.639 70.1505 47.6075L72.5171 47.5724C75.0521 47.5444 77.6852 47.5374 77.8885 47.667L77.9166 47.7021C77.9236 47.7441 77.9236 47.8248 77.9096 47.9299Z" fill="url(#paint5_linear_235_366)"/>
<g style="mix-blend-mode:multiply" opacity="0.5">
<path d="M77.9096 47.9299C77.7062 49.1146 75.3291 53.9479 70.2873 54.9433C69.3231 55.1395 68.2642 55.1921 67.1002 55.0449C67.1002 55.0449 67.2404 54.0145 67.3631 52.6195L67.598 52.3777L67.6717 52.297C67.6717 52.297 69.558 52.1814 71.8019 51.5084C72.9344 51.165 74.1615 50.6813 75.287 49.9978C75.3221 49.9768 75.3536 49.9522 75.3817 49.9382C75.578 49.8226 75.7779 49.6894 75.9672 49.5422C76.0618 49.4756 76.1635 49.409 76.2582 49.3214C76.3108 49.2863 76.3529 49.2478 76.3984 49.2127C76.4405 49.1847 76.4791 49.1531 76.5071 49.1251C76.5422 49.097 76.5808 49.0725 76.6018 49.0515C76.6158 49.0445 76.6228 49.0304 76.6298 49.0234C77.0085 48.694 77.3661 48.3365 77.6817 47.9334C77.7483 47.8458 77.8219 47.7582 77.885 47.6635L77.9131 47.6986C77.9201 47.7406 77.9201 47.8213 77.9061 47.9264L77.9096 47.9299Z" fill="#BE2F55"/>
</g>
<g style="mix-blend-mode:multiply" opacity="0.5">
<path d="M85.6652 34.7058C85.4022 34.7409 80.0098 35.4664 70.3258 38.1617C69.5089 38.3895 68.6604 38.6278 67.7839 38.8907C67.7488 38.8977 67.7102 38.9117 67.6752 38.9187L67.6226 37.7586C67.6226 37.7586 67.6366 37.7516 67.6752 37.7446C67.9031 37.671 68.9304 37.3661 70.3293 36.949V36.942C70.7676 36.8088 71.2444 36.6721 71.7388 36.5179H71.7458C73.4849 35.9921 75.5079 35.3858 77.2189 34.867C77.2469 34.86 77.2785 34.853 77.2995 34.846C78.8563 34.3799 80.157 33.9908 80.7496 33.8226C82.7796 33.2302 85.4864 34.6042 85.6687 34.7058H85.6652Z" fill="#BE2F55"/>
</g>
<g style="mix-blend-mode:multiply" opacity="0.5">
<path d="M81.1563 47.667L78.1305 47.9229L78.0849 47.9299L77.9166 47.7021L77.8886 47.667H67.6717V45.7814C67.6717 45.7814 67.7067 45.7814 67.7663 45.7744C68.1695 45.7534 69.7543 45.6657 71.588 45.5711C72.4856 45.5185 73.4358 45.4695 74.3368 45.4239H74.3579C75.0872 45.3783 75.7744 45.3503 76.3739 45.3152C77.1277 45.2802 77.7343 45.2557 78.0849 45.2416C79.859 45.168 81.1528 47.667 81.1528 47.667H81.1563Z" fill="#BE2F55"/>
</g>
<path d="M69.0601 37.1803C69.0601 37.1803 78.6564 34.0539 80.9249 32.382C83.1933 30.7102 86.689 24.5345 86.689 24.5345C86.689 24.5345 83.1442 31.7126 80.8582 33.2232C78.5687 34.7338 69.0601 37.1803 69.0601 37.1803Z" fill="#FF8B3E"/>
<path d="M67.6717 45.7814C67.6717 45.7814 75.7148 44.9052 78.6564 44.0885C81.598 43.2719 85.9422 38.3334 85.9422 38.3334C85.9422 38.3334 81.8014 43.717 79.1823 44.7369C76.5632 45.7569 67.6717 45.7814 67.6717 45.7814Z" fill="#FF8B3E"/>
<path d="M67.4438 51.8309C67.4438 51.8309 70.2732 51.5926 72.7906 50.8881C75.308 50.1871 76.6474 49.0164 76.6474 49.0164C76.6474 49.0164 72.7521 52.4197 67.4438 52.3812V51.8309Z" fill="#FF8B3E"/>
<path d="M5.81292 36.637C9.62409 39.2692 22.155 39.6793 22.155 39.6793V29.1189C22.155 29.1189 1.41974 19.4418 0.609818 19.9641C-0.207112 20.4933 2.00876 34.0118 5.81292 36.637Z" fill="url(#paint6_linear_235_366)"/>
<g style="mix-blend-mode:multiply" opacity="0.5">
<path d="M5.81292 36.637C9.62409 39.2692 22.155 39.6793 22.155 39.6793V37.4887C22.155 37.4887 10.2166 34.9722 8.12697 32.5257C6.04433 30.0863 0.609818 19.9606 0.609818 19.9606C-0.207112 20.4898 2.00876 34.0083 5.81292 36.6335V36.637Z" fill="#BE2F55"/>
</g>
<path d="M8.67042 47.667C11.2685 48.2979 22.155 47.667 22.155 47.667V38.9222C22.155 38.9222 3.02905 33.6789 1.44077 34.9336C1.39169 34.9617 1.36013 35.0037 1.34611 35.0493C0.967443 36.0762 5.13624 46.8153 8.66692 47.6705L8.67042 47.667Z" fill="url(#paint7_linear_235_366)"/>
<g style="mix-blend-mode:multiply" opacity="0.5">
<path d="M8.67042 47.667C11.2685 48.2979 22.155 47.667 22.155 47.667V45.7849C22.155 45.7849 15.2479 45.9076 10.711 44.46C7.09967 43.3034 2.61883 36.6791 1.44077 34.9336C1.39169 34.9617 1.36013 35.0037 1.34611 35.0493C0.967443 36.0762 5.13624 46.8153 8.66692 47.6705L8.67042 47.667Z" fill="#BE2F55"/>
</g>
<path d="M22.723 55.0414C22.723 55.0414 22.5863 54.0145 22.4565 52.616C22.3058 51.1159 22.155 49.1952 22.155 47.667C22.155 47.667 12.3449 47.4077 11.9346 47.667C11.5244 47.9264 14.7466 56.0263 22.723 55.0414Z" fill="url(#paint8_linear_235_366)"/>
<g style="mix-blend-mode:multiply" opacity="0.5">
<path d="M22.723 55.0414C22.723 55.0414 22.5863 54.0145 22.4565 52.616L22.155 52.3005C22.155 52.3005 14.9289 51.8414 11.9346 47.667C11.5244 47.9264 14.7466 56.0263 22.723 55.0414Z" fill="#BE2F55"/>
</g>
<g style="mix-blend-mode:multiply" opacity="0.5">
<path d="M22.155 38.9187L22.2041 37.7621C22.2041 37.7621 11.1878 34.4324 9.08064 33.8191C6.97345 33.2057 4.15452 34.7058 4.15452 34.7058C4.15452 34.7058 10.5497 35.5224 22.155 38.9187Z" fill="#BE2F55"/>
</g>
<g style="mix-blend-mode:multiply" opacity="0.5">
<path d="M22.155 47.667V45.7849C22.155 45.7849 13.5159 45.3082 11.7383 45.2416C9.96068 45.175 8.66692 47.667 8.66692 47.667L11.7383 47.9299L11.9346 47.667H22.155Z" fill="#BE2F55"/>
</g>
<path d="M20.7666 37.1803C20.7666 37.1803 11.1703 34.0539 8.90183 32.382C6.63336 30.7102 3.13774 24.5345 3.13774 24.5345C3.13774 24.5345 6.68244 31.7126 8.97195 33.2232C11.2615 34.7338 20.7701 37.1803 20.7701 37.1803H20.7666Z" fill="#FF8B3E"/>
<path d="M22.155 45.7814C22.155 45.7814 14.1119 44.9051 11.1703 44.0885C8.22865 43.2718 3.88455 38.3334 3.88455 38.3334C3.88455 38.3334 8.0253 43.717 10.6444 44.7369C13.2635 45.7568 22.155 45.7814 22.155 45.7814Z" fill="#FF8B3E"/>
<path d="M22.3829 51.8309C22.3829 51.8309 19.5535 51.5926 17.0361 50.8881C14.5187 50.1871 13.1793 49.0164 13.1793 49.0164C13.1793 49.0164 17.0746 52.4197 22.3829 52.3812V51.8309Z" fill="#FF8B3E"/>
<mask id="mask0_235_366" style="mask-type:luminance" maskUnits="userSpaceOnUse" x="0" y="19" width="90" height="37">
<path d="M88.4771 35.0423C88.8558 36.0727 84.6834 46.8118 81.1563 47.667C80.5357 47.8212 79.4383 47.8948 78.1305 47.9229L78.0849 47.9299H77.9096C77.7062 49.1146 75.3291 53.9479 70.2873 54.9433C69.3231 55.1395 68.2642 55.1921 67.1002 55.0449C67.1002 55.0449 67.2404 54.0145 67.3631 52.6195C67.5174 51.1159 67.6717 49.1917 67.6717 47.667V45.7849V38.9257L67.6191 37.7656C67.6191 37.7656 67.6331 37.7586 67.6717 37.7516V29.126C67.6717 29.126 69.7473 28.1621 72.6048 26.8478C78.7931 24.0263 88.6594 19.6171 89.2134 19.9746C89.9076 20.4267 88.4315 30.1284 85.6617 34.7163C85.6336 34.7689 85.6021 34.825 85.567 34.8775C87.022 34.7023 88.0599 34.6883 88.3789 34.9441C88.4315 34.9722 88.4596 35.0107 88.4736 35.0528L88.4771 35.0423ZM22.155 47.667V38.9222L22.2041 37.7656C22.2041 37.7656 22.1866 37.7586 22.155 37.7516V29.1224C22.155 29.1224 1.41974 19.4453 0.609818 19.9676C-0.080891 20.4162 1.39169 30.1143 4.15452 34.7093C4.18958 34.7689 4.22464 34.8215 4.2597 34.8775C2.80816 34.6953 1.75983 34.6813 1.44077 34.9371C1.39169 34.9652 1.36013 35.0072 1.34611 35.0528C0.963937 36.0797 5.13624 46.8188 8.66692 47.674C9.29452 47.8283 10.4095 47.9054 11.7348 47.9369H11.7383C11.7979 47.9369 11.854 47.9369 11.9136 47.9404C12.1695 49.3739 15.4934 55.9387 22.7195 55.0484C22.7195 55.0484 22.5828 54.0215 22.453 52.623C22.3023 51.1229 22.1515 49.2022 22.1515 47.674L22.155 47.667Z" fill="white"/>
</mask>
<g mask="url(#mask0_235_366)">
<g style="mix-blend-mode:multiply" opacity="0.2">
<path fill-rule="evenodd" clip-rule="evenodd" d="M-5.29802 17.7034C-5.29802 17.7034 13.0391 14.3807 30.8888 15.0326C48.7385 15.6846 56.2031 16.729 79.3576 17.7034C102.516 18.6778 105.654 26.7286 105.654 26.7286L104.469 30.5209C104.469 30.5209 96.3729 20.8754 72.5627 18.4184C48.7526 15.9614 41.7508 16.7921 21.2715 16.5292C0.792137 16.2664 -4.63186 19.6136 -4.63186 19.6136L-5.30153 17.6999L-5.29802 17.7034Z" fill="url(#paint9_linear_235_366)"/>
<path fill-rule="evenodd" clip-rule="evenodd" d="M-3.60806 22.5367C-3.60806 22.5367 2.90283 20.5038 34.2898 20.6335C65.6767 20.7632 87.015 22.9117 92.1831 27.3384C97.3511 31.7652 91.5134 38.5332 65.007 41.8524C38.5006 45.1715 0.0593548 45.4905 0.0593548 45.4905L-0.0633607 44.6528C-0.0633607 44.6528 43.5705 45.2837 66.0273 41.3336C88.4841 37.3836 93.6486 29.14 88.4841 26.2765C83.3161 23.4129 28.0874 17.2302 -3.08565 24.0333L-3.60806 22.5402V22.5367Z" fill="url(#paint10_linear_235_366)"/>
<path fill-rule="evenodd" clip-rule="evenodd" d="M-0.17205 32.368C-0.17205 32.368 48.0689 21.345 75.6762 30.1214C75.6762 30.1214 73.0957 37.338 51.1893 37.338C29.283 37.338 33.1117 32.0386 23.9256 30.8294C14.7395 29.6166 0.374906 33.9277 0.374906 33.9277L-0.17205 32.368Z" fill="url(#paint11_linear_235_366)"/>
<path fill-rule="evenodd" clip-rule="evenodd" d="M0.662411 48.2979C0.662411 48.2979 77.2084 43.8712 101.857 36.7001L101.481 38.1546C101.481 38.1546 49.4889 46.7137 0.665916 49.0585V48.2979H0.662411Z" fill="url(#paint12_linear_235_366)"/>
<path fill-rule="evenodd" clip-rule="evenodd" d="M1.43376 52.4337C1.43376 52.4337 78.73 51.887 100.254 42.8793L100.009 43.8291C100.009 43.8291 74.7155 51.8484 1.53894 53.0681L1.43376 52.4372V52.4337Z" fill="url(#paint13_linear_235_366)"/>
<path fill-rule="evenodd" clip-rule="evenodd" d="M3.19033 64.361C3.19033 64.361 65.7784 49.1601 100.542 55.6583L99.9176 58.1888C99.9176 58.1888 86.1876 53.0471 47.6551 57.2986C9.12271 61.5501 5.29752 66.6918 5.29752 66.6918L3.5129 66.6708L3.19384 64.3575L3.19033 64.361Z" fill="url(#paint14_linear_235_366)"/>
<path fill-rule="evenodd" clip-rule="evenodd" d="M86.696 59.4716C86.696 59.4716 68.8322 54.3509 42.6799 60.9472C42.6799 60.9472 74.449 62.1634 86.696 59.4716Z" fill="url(#paint15_linear_235_366)"/>
<path fill-rule="evenodd" clip-rule="evenodd" d="M-1.9742 28.0605C-1.9742 28.0605 21.019 21.4782 51.2595 22.5367C81.4999 23.5952 86.0053 28.5792 85.9316 31.6355C85.8545 34.6918 60.5086 44.5441 -0.52617 43.7625L-0.445529 43.349C-0.445529 43.349 32.7891 44.064 58.5627 39.9422C84.3363 35.8204 86.3769 31.0467 82.166 27.7485C77.9552 24.4504 39.556 18.7619 -1.9742 28.0605Z" fill="url(#paint16_linear_235_366)"/>
<path fill-rule="evenodd" clip-rule="evenodd" d="M56.1365 47.0151C56.1365 47.0151 71.255 46.5384 82.0363 44.2813L56.1365 47.0151Z" fill="url(#paint17_linear_235_366)"/>
<path fill-rule="evenodd" clip-rule="evenodd" d="M104.535 20.0482C104.535 20.0482 99.6441 14.9555 85.3847 15.1588C85.3847 15.1588 98.708 15.5584 104.535 20.0482Z" fill="url(#paint18_linear_235_366)"/>
</g>
<path style="mix-blend-mode:multiply" opacity="0.2" fill-rule="evenodd" clip-rule="evenodd" d="M42.6133 28.9647C42.6133 28.9647 62.9945 25.9049 70.0769 31.0467C70.0769 31.0467 62.423 35.7993 48.8332 35.1474C35.2469 34.4955 27.9717 30.1214 27.9717 30.1214C27.9717 30.1214 37.1788 35.1089 49.6186 34.5586C62.0584 34.0083 62.707 27.7906 42.6133 28.9612V28.9647Z" fill="url(#paint19_linear_235_366)"/>
<path fill-rule="evenodd" clip-rule="evenodd" d="M74.4455 50.3588L63.1382 51.2596L42.6764 51.4594L74.4455 50.3588Z" fill="#DC634F"/>
<path fill-rule="evenodd" clip-rule="evenodd" d="M-3.00501 25.211L5.00651 27.9097L-2.53168 26.5603L-3.00501 25.211Z" fill="#892334"/>
<path opacity="0.4" fill-rule="evenodd" clip-rule="evenodd" d="M0.662411 49.055C0.662411 49.055 30.5627 47.4287 57.6091 44.1621C57.6091 44.1621 40.0468 47.1448 0.662411 49.055Z" fill="#D9772F"/>
<path fill-rule="evenodd" clip-rule="evenodd" d="M38.732 37.5834L45.7233 38.1547L55.6281 37.0821L38.732 37.5834Z" fill="#E6774F"/>
<path fill-rule="evenodd" clip-rule="evenodd" d="M38.732 37.5833L44.6469 37.6184L55.6281 37.0821L46.7295 36.4933L38.732 37.5833Z" fill="#892334"/>
<path fill-rule="evenodd" clip-rule="evenodd" d="M81.0266 36.4022L85.9316 37.9023L81.6541 36.255L81.0266 36.4022Z" fill="#892334"/>
<path fill-rule="evenodd" clip-rule="evenodd" d="M20.132 53.4396L25.5805 51.4594L21.4538 53.324L20.132 53.4396Z" fill="#892334"/>
<path fill-rule="evenodd" clip-rule="evenodd" d="M32.407 49.6298L33.8725 49.055H37.7503L32.407 49.6298Z" fill="#801B34"/>
<path fill-rule="evenodd" clip-rule="evenodd" d="M32.407 49.6298L35.0786 49.8821L37.7503 49.055L32.407 49.6298Z" fill="#DC634F"/>
<path fill-rule="evenodd" clip-rule="evenodd" d="M21.4538 53.324L25.5805 51.4594L22.5372 53.2294L21.4538 53.324Z" fill="#DC634F"/>
<path fill-rule="evenodd" clip-rule="evenodd" d="M80.8127 36.3391L84.0874 37.338L79.5505 36.3847L80.8127 36.3391Z" fill="#DC634F"/>
<path fill-rule="evenodd" clip-rule="evenodd" d="M-2.53168 26.5603L-3.31705 26.9459L5.00651 27.9097L-2.53168 26.5603Z" fill="#E6774F"/>
<path fill-rule="evenodd" clip-rule="evenodd" d="M7.52742 47.3621L8.96143 47.0151H12.7586L7.52742 47.3621Z" fill="#801B34"/>
<path fill-rule="evenodd" clip-rule="evenodd" d="M83.4773 20.6265L77.829 19.5785L70.0769 19.5365C70.0769 19.5365 77.0716 19.7748 83.4773 20.6265Z" fill="#892334"/>
<path fill-rule="evenodd" clip-rule="evenodd" d="M-1.59554 39.1185L0.276736 42.8793L4.96093 43.8046L0.395944 43.9027L1.1112 47.1904L1.8545 55.0449C1.8545 55.0449 -0.249184 43.5032 -1.59203 39.1185H-1.59554Z" fill="#982F34"/>
<path fill-rule="evenodd" clip-rule="evenodd" d="M1.85099 55.0449L3.52342 62.0232L3.50939 66.6743L1.85099 55.0449Z" fill="#801B34"/>
<path fill-rule="evenodd" clip-rule="evenodd" d="M-0.585773 43.044L0.276736 42.8793L4.69797 43.752L0.318809 43.1211L-0.585773 43.044Z" fill="#7A1C34"/>
</g>
<g style="mix-blend-mode:multiply" opacity="0.7">
<path d="M70.1505 47.6075L74.6945 47.667C72.2191 48.2243 71.7704 51.6697 71.7704 51.6697L71.7353 51.6767L70.1505 52.1078L70.2908 54.9433C69.3266 55.1395 68.2677 55.1921 67.1037 55.0449C67.1037 55.0449 67.2439 54.0145 67.3666 52.6195C67.5209 51.1159 67.6752 49.1917 67.6752 47.667V38.9222L67.6226 37.7621C67.6226 37.7621 67.6366 37.7551 67.6752 37.7481V29.1225L79.596 23.7038C71.5705 28.5617 71.1392 36.4793 71.1392 36.4793L71.1182 36.6265V36.6335L70.7816 36.7667L70.7606 36.7737L70.3293 36.949V38.2213L78.3408 36.255C71.0025 39.5076 71.6056 45.3082 71.6056 45.3082L71.5915 45.5781L71.5845 45.6727V45.6797L71.3075 45.7008L70.154 45.7884V47.6145L70.1505 47.6075Z" fill="#BE2F55"/>
</g>
<g style="mix-blend-mode:multiply" opacity="0.7">
<path d="M19.7323 47.6075L15.1883 47.667C17.6637 48.2243 18.1124 51.6697 18.1124 51.6697L18.1475 51.6767L19.7323 52.1078L19.592 54.9433C20.5562 55.1395 21.6151 55.1921 22.7791 55.0449C22.7791 55.0449 22.6389 54.0145 22.5162 52.6195C22.3619 51.1159 22.2076 49.1917 22.2076 47.667V38.9222L22.2602 37.7621C22.2602 37.7621 22.2462 37.7551 22.2076 37.7481V29.1225L10.2868 23.7038C18.3123 28.5617 18.7436 36.4793 18.7436 36.4793L18.7646 36.6265V36.6335L19.1012 36.7667L19.1222 36.7737L19.5535 36.949V38.2213L11.5419 36.255C18.8803 39.5076 18.2772 45.3082 18.2772 45.3082L18.2913 45.5781L18.2983 45.6727V45.6797L18.5753 45.7008L19.7288 45.7884V47.6145L19.7323 47.6075Z" fill="#BE2F55"/>
</g>
<path d="M53.7663 76.5301C53.7208 76.5512 53.6331 76.5371 53.5104 76.5091C53.5034 76.5091 53.4964 76.5021 53.4894 76.5021C53.3 76.4565 53.016 76.3619 52.6549 76.2322C52.6198 76.2182 52.5743 76.2042 52.5322 76.1901C52.5111 76.1761 52.4901 76.1691 52.4656 76.1691H52.4585C51.7854 75.9133 50.9088 75.5628 49.9902 75.1842C49.9762 75.1772 49.9622 75.1702 49.9482 75.1632C47.8129 74.287 45.4743 73.2705 45.0606 73.0883C45.015 73.0672 44.994 73.0602 44.994 73.0602V67.7923C46.3894 67.7923 53.3176 66.4499 53.7488 66.3693C53.7628 66.3623 53.7698 66.3623 53.7698 66.3623L53.8049 67.2666L53.8119 67.3402C53.8119 67.3402 53.8119 67.3612 53.8049 67.3682C53.8259 67.8414 53.847 68.4478 53.8715 69.1277C53.9732 72.0929 54.0679 76.3969 53.7698 76.5336L53.7663 76.5301Z" fill="url(#paint20_linear_235_366)"/>
<g style="mix-blend-mode:multiply" opacity="0.5">
<path d="M53.4858 76.5021C52.1009 76.1586 45.1132 73.0497 45.1132 73.0497L44.9905 67.7853H46.4245C46.4245 67.7853 48.693 74.329 53.4858 76.5021Z" fill="#BE2F55"/>
</g>
<g style="mix-blend-mode:multiply" opacity="0.5">
<path d="M47.3151 69.8147C47.3151 69.8147 47.4798 72.7308 48.2056 73.9119C48.9314 75.0896 52.8197 76.2848 52.8197 76.2848C52.8197 76.2848 49.1838 73.9049 47.3115 69.8182L47.3151 69.8147Z" fill="#BE2F55"/>
</g>
<g style="mix-blend-mode:multiply" opacity="0.78">
<path d="M53.7663 66.3518L53.7523 66.5726C51.4488 68.0482 48.5212 68.4723 46.7365 68.5809C45.7513 68.6475 45.1132 68.616 45.1132 68.616C45.4112 68.616 45.9617 68.5143 46.6489 68.3601C49.1417 67.7888 53.4157 66.4605 53.7453 66.3588C53.7593 66.3518 53.7663 66.3518 53.7663 66.3518Z" fill="#BE2F55"/>
</g>
<path d="M46.975 69.1102C46.975 69.1102 50.2462 74.1923 53.0476 76.2848C53.0476 76.2848 48.4756 73.4738 46.975 69.1102Z" fill="#FF8B3E"/>
<path d="M44.9905 67.7853V73.0532C44.9905 73.0532 42.8272 74.0241 40.6779 74.9389C40.6709 74.9459 40.6569 74.9529 40.6499 74.9529C39.6997 75.37 38.7496 75.7625 37.9957 76.057C37.9011 76.092 37.8064 76.1306 37.7117 76.1656C37.6521 76.1866 37.596 76.2112 37.5435 76.2322C37.5154 76.2392 37.4909 76.2462 37.4698 76.2532C37.1473 76.3689 36.8843 76.4565 36.709 76.5021C36.702 76.5021 36.695 76.5091 36.688 76.5091C36.5547 76.5371 36.4671 76.5547 36.425 76.5301C36.134 76.3969 36.2216 72.2576 36.3233 69.2995C36.3443 68.5459 36.3654 67.8765 36.3899 67.3647C36.3899 67.3577 36.3899 67.3437 36.3829 67.3367V67.3227L36.3899 67.2701L36.411 66.7093L36.425 66.3588C36.425 66.3588 36.432 66.3588 36.446 66.3658C36.8633 66.4465 43.5915 67.7888 44.987 67.7888L44.9905 67.7853Z" fill="url(#paint21_linear_235_366)"/>
<g style="mix-blend-mode:multiply" opacity="0.5">
<path d="M36.709 76.5021C38.0939 76.1586 45.1132 73.0497 45.1132 73.0497L44.9905 67.7853H43.7738C43.7738 67.7853 41.5054 74.329 36.7125 76.5021H36.709Z" fill="#BE2F55"/>
</g>
<g style="mix-blend-mode:multiply" opacity="0.5">
<path d="M42.8798 69.8147C42.8798 69.8147 42.715 72.7308 41.9892 73.9119C41.2635 75.0896 37.3752 76.2848 37.3752 76.2848C37.3752 76.2848 41.011 73.9049 42.8833 69.8182L42.8798 69.8147Z" fill="#BE2F55"/>
</g>
<g style="mix-blend-mode:multiply" opacity="0.78">
<path d="M45.1132 68.616H44.9905C44.7556 68.616 44.2016 68.609 43.4618 68.5564C41.5825 68.4232 38.5006 68.0096 36.411 66.7023L36.425 66.3518C36.425 66.3518 36.432 66.3518 36.446 66.3588C36.8037 66.4464 41.2109 67.5435 43.6161 68.1849C44.2507 68.3531 44.7415 68.4933 44.9905 68.5704C44.9975 68.5704 45.0045 68.5774 45.0115 68.5774C45.0571 68.5915 45.0922 68.6055 45.1132 68.6125V68.616Z" fill="#BE2F55"/>
</g>
<path d="M43.2199 69.1102C43.2199 69.1102 39.9487 74.1923 37.1473 76.2848C37.1473 76.2848 41.7193 73.4738 43.2199 69.1102Z" fill="#FF8B3E"/>
<mask id="mask1_235_366" style="mask-type:luminance" maskUnits="userSpaceOnUse" x="36" y="66" width="18" height="11">
<path d="M53.8682 69.1209C53.8471 68.4409 53.8261 67.8345 53.8015 67.3614C53.8086 67.3544 53.8086 67.3404 53.8086 67.3333L53.8015 67.2597L53.7665 66.3555C53.7665 66.3555 53.7595 66.3555 53.7454 66.3625C53.3142 66.4431 46.3896 67.7855 44.9906 67.7855C43.5917 67.7855 36.8669 66.4431 36.4497 66.3625C36.4357 66.3555 36.4286 66.3555 36.4286 66.3555L36.4146 66.706L36.3936 67.2667L36.3866 67.3193V67.3333C36.3866 67.3333 36.3936 67.3544 36.3936 67.3614C36.3725 67.8731 36.348 68.546 36.327 69.2961C36.2253 72.2543 36.1376 76.3971 36.4286 76.5268C36.4707 76.5478 36.5619 76.5338 36.6916 76.5057C36.6986 76.5057 36.7056 76.4987 36.7126 76.4987H36.7161C36.7161 76.4987 36.7126 76.4987 36.7091 76.5022C36.8879 76.4567 37.1614 76.3655 37.498 76.2429C37.512 76.2394 37.5261 76.2324 37.5436 76.2289C37.5506 76.2289 37.5576 76.2253 37.5611 76.2218C38.0345 76.0676 39.3282 75.626 40.4151 75.0722C42.4943 74.1995 44.6786 73.2391 45.0467 73.0744C45.0502 73.0744 45.0467 73.0744 45.0537 73.0779C45.4675 73.2602 47.7955 74.2696 49.9238 75.1458C50.9931 75.6716 52.2133 76.0851 52.6515 76.2253C52.8444 76.2954 53.0092 76.355 53.1564 76.4006C53.2861 76.4426 53.3948 76.4742 53.4825 76.4987C53.479 76.4987 53.4755 76.4952 53.472 76.4917C53.472 76.4917 53.4825 76.4917 53.486 76.4952C53.493 76.4952 53.5 76.5022 53.507 76.5022C53.6297 76.5303 53.7174 76.5478 53.763 76.5233C54.061 76.3831 53.9663 72.0825 53.8647 69.1173L53.8682 69.1209Z" fill="white"/>
</mask>
<g mask="url(#mask1_235_366)">
<g style="mix-blend-mode:multiply" opacity="0.2">
<path fill-rule="evenodd" clip-rule="evenodd" d="M-17.31 50.9617C-17.31 50.9617 -10.7991 48.9288 20.5878 49.0585C51.9747 49.1882 73.3131 51.3367 78.4811 55.7634C83.6491 60.1902 77.8114 66.9582 51.305 70.2773C24.7987 73.5965 -13.6426 73.9154 -13.6426 73.9154L-13.7653 73.0778C-13.7653 73.0778 29.8685 73.7087 52.3253 69.7586C74.7821 65.8085 79.9467 57.565 74.7821 54.7014C69.6141 51.8379 14.3854 45.6552 -16.7876 52.4583L-17.31 50.9652V50.9617Z" fill="url(#paint22_linear_235_366)"/>
<path fill-rule="evenodd" clip-rule="evenodd" d="M-13.0396 76.7229C-13.0396 76.7229 63.5064 72.2962 88.1545 65.1251L87.7794 66.5796C87.7794 66.5796 35.7869 75.1387 -13.0361 77.4835V76.7229H-13.0396Z" fill="url(#paint23_linear_235_366)"/>
<path fill-rule="evenodd" clip-rule="evenodd" d="M-12.2682 80.8587C-12.2682 80.8587 65.028 80.3119 86.5522 71.3043L86.3068 72.2541C86.3068 72.2541 61.0135 80.2734 -12.163 81.4931L-12.2682 80.8622V80.8587Z" fill="url(#paint24_linear_235_366)"/>
<path fill-rule="evenodd" clip-rule="evenodd" d="M-15.6762 56.4889C-15.6762 56.4889 7.31706 49.9067 37.5575 50.9652C67.7979 52.0237 72.3068 57.0077 72.2297 60.064C72.1525 63.1203 46.8067 72.9726 -14.2246 72.191L-14.144 71.7774C-14.144 71.7774 19.0907 72.4924 44.8643 68.3707C70.6379 64.2489 72.6784 59.4751 68.4676 56.177C64.2567 52.8789 25.8575 47.1904 -15.6727 56.4889H-15.6762Z" fill="url(#paint25_linear_235_366)"/>
<path fill-rule="evenodd" clip-rule="evenodd" d="M42.4345 75.4436C42.4345 75.4436 57.553 74.9669 68.3343 72.7097L42.4345 75.4436Z" fill="url(#paint26_linear_235_366)"/>
</g>
<path opacity="0.4" fill-rule="evenodd" clip-rule="evenodd" d="M-13.0396 77.4835C-13.0396 77.4835 16.8608 75.8572 43.9071 72.5906C43.9071 72.5906 26.3449 75.5733 -13.0396 77.4835Z" fill="#D9772F"/>
<path fill-rule="evenodd" clip-rule="evenodd" d="M25.0301 66.0118L32.0213 66.5796L41.9226 65.5106L25.0301 66.0118Z" fill="#E6774F"/>
</g>
<g style="mix-blend-mode:multiply" opacity="0.7">
<path d="M53.868 69.1207C50.695 70.4 48.2863 70.0776 47.5254 69.9163C47.4518 69.9023 47.3922 69.8883 47.3501 69.8813H47.3431C47.3431 69.8813 47.3221 69.8743 47.3151 69.8743C47.287 69.8673 47.2695 69.8603 47.2695 69.8603L47.1012 69.4817L45.0255 69.4747H44.9905L43.0691 69.5273L43.0165 69.5343H42.9359L42.7466 69.8182C40.2116 70.2633 37.8274 69.7761 36.3233 69.2995C36.3444 68.5459 36.3654 67.8765 36.3899 67.3647C36.3899 67.3577 36.3899 67.3437 36.3829 67.3367V67.3227L36.3899 67.2701L36.411 66.7093L36.425 66.3588C36.425 66.3588 36.432 66.3588 36.446 66.3658C36.8633 66.4465 43.5915 67.7888 44.987 67.7888C46.3824 67.7888 53.3105 66.4465 53.7418 66.3658C53.7558 66.3588 53.7628 66.3588 53.7628 66.3588L53.7979 67.2631L53.8049 67.3367C53.8049 67.3367 53.8049 67.3577 53.7979 67.3647C53.8189 67.8379 53.84 68.4443 53.8645 69.1242L53.868 69.1207Z" fill="#BE2F55"/>
</g>
<path d="M68.0644 27.1211C68.0644 27.1211 65.8099 29.3398 64.7055 28.828C64.5126 28.7369 63.9972 28.3654 63.2434 27.8116C62.721 27.4296 62.0864 26.9634 61.3571 26.4412C61.3571 26.4412 61.3571 26.4412 61.3501 26.4412L53.0441 28.099L49.2364 32.5222L39.286 42.662L44.5172 65.6543C44.2051 64.8622 35.5835 43.0826 35.4082 42.8758C35.2294 42.662 45.6006 30.8609 45.6006 30.8609L46.8943 26.4096L53.57 21.4992L53.7663 21.352L55.3301 18.4184L55.4142 18.2607C53.9487 17.5246 52.427 16.8762 50.8387 16.347C49.6501 15.9509 48.4265 15.6215 47.1468 15.3656C46.6594 15.2359 46.144 15.1553 45.6216 15.1203C45.5725 15.1133 45.5199 15.1133 45.4743 15.1133C45.3481 15.1062 45.2254 15.1027 45.0992 15.1027C44.973 15.1027 44.8502 15.1027 44.724 15.1133C44.6749 15.1133 44.6258 15.1133 44.5768 15.1203C44.0543 15.1553 43.5424 15.2359 43.0516 15.3656C41.9016 15.5969 40.7901 15.8878 39.7138 16.2313C39.6997 16.2383 39.6857 16.2418 39.6682 16.2488C33.1222 18.3483 27.8455 22.407 22.446 26.7496C21.9937 27.2263 21.6572 27.8221 21.4328 28.4775C21.4257 28.4951 21.4187 28.5126 21.4152 28.5266C21.1838 29.2101 21.0751 29.9566 21.0751 30.6857V53.7376C21.0751 55.1851 21.5064 56.6957 22.4425 57.6771C28.7431 62.7417 34.8718 67.4208 43.0446 69.0576C43.8194 69.2679 44.6714 69.352 45.5094 69.31C45.5865 69.31 45.6602 69.2995 45.7408 69.2924H45.7618C46.1089 69.2609 46.4596 69.2153 46.7926 69.1382C46.8102 69.1382 46.8277 69.1312 46.8417 69.1277C46.9434 69.1067 47.0416 69.0821 47.1397 69.0576C54.7095 67.54 60.5262 63.4182 66.3499 58.7952C66.3709 58.7777 66.3814 58.7671 66.3814 58.7671C66.8372 58.4061 67.293 58.0381 67.7488 57.6736C68.6814 56.6922 69.1127 55.1816 69.1127 53.7341V30.6821C69.1127 29.4099 68.7761 28.0815 68.0609 27.1176L68.0644 27.1211Z" fill="url(#paint27_linear_235_366)"/>
<path d="M53.7628 21.352L53.5665 21.4992L46.8908 26.4096L45.597 30.8609C45.597 30.8609 35.2259 42.662 35.4047 42.8758C35.58 43.0826 44.2051 64.8622 44.5136 65.6543C44.1069 65.6193 43.7037 65.5492 43.3216 65.4475C36.2462 64.0315 30.9414 59.9833 25.4859 55.5952C24.6759 54.7505 24.3008 53.4431 24.3008 52.1884V32.2383C24.3008 30.9906 24.6759 29.6762 25.4859 28.8315C25.7769 28.5967 26.0679 28.3654 26.3589 28.1306C26.3589 28.1306 26.3659 28.1306 26.3694 28.1235C28.6799 26.28 30.987 24.517 33.4308 23.0134C33.5815 22.9222 33.7323 22.8311 33.883 22.74C34.2091 22.5437 34.5352 22.3544 34.8718 22.1722C36.979 20.998 39.2019 20.0307 41.6316 19.3787C42.1821 19.228 42.7466 19.0948 43.3181 18.9792C43.6231 18.8986 43.9421 18.839 44.2612 18.8004C44.3699 18.7864 44.4786 18.7759 44.5873 18.7689C44.7591 18.7584 44.9309 18.7514 45.0957 18.7514C45.2464 18.7514 45.4042 18.7514 45.5585 18.7654C46.0073 18.7969 46.449 18.867 46.8663 18.9792C47.7253 19.1509 48.5632 19.3647 49.3732 19.6136C50.8773 20.0657 52.3043 20.644 53.6717 21.3135C53.7032 21.3275 53.7278 21.345 53.7593 21.359L53.7628 21.352Z" fill="url(#paint28_linear_235_366)"/>
<path d="M65.8906 32.2348V52.1849C65.8906 52.3356 65.8836 52.4863 65.873 52.637C65.7959 53.7481 65.4242 54.8486 64.7055 55.5917L63.5169 56.545C63.5169 56.545 63.5029 56.5555 63.4924 56.5625C61.2309 58.3606 58.9659 60.0675 56.5642 61.5255C56.5537 61.5325 56.5432 61.5395 56.5327 61.5466C53.598 63.3271 50.4636 64.722 46.8663 65.4405C46.13 65.6438 45.3095 65.7104 44.5172 65.6473L39.286 42.655L49.2364 32.5152L53.0441 28.092L61.3501 26.4377H61.3571C62.0864 26.9599 62.721 27.4261 63.2434 27.8081C63.9972 28.3584 64.5127 28.7334 64.7055 28.8245C65.5154 29.6692 65.8906 30.9836 65.8906 32.2313V32.2348Z" fill="url(#paint29_linear_235_366)"/>
<path d="M55.3301 18.4149L53.7663 21.3485L53.57 21.4957C52.1746 20.7527 50.7546 20.0902 49.3802 19.6066C48.0478 19.1334 46.7576 18.825 45.569 18.7619C45.4147 18.7514 45.2569 18.7479 45.1062 18.7479C44.9414 18.7479 44.7696 18.7549 44.5978 18.7654C44.4891 18.7724 44.3804 18.7829 44.2717 18.7969C43.4478 18.881 42.5642 19.0843 41.6421 19.3752C39.6822 19.9956 37.5505 21.0226 35.4713 22.1897C35.1558 22.3685 34.8402 22.5507 34.5317 22.733C34.1635 22.9503 33.7954 23.1711 33.4308 23.3919C30.6258 25.1058 28.0734 26.9179 26.3834 28.1165C26.3834 28.1165 26.3764 28.1165 26.3729 28.1235C25.2299 28.9332 24.4831 29.4519 24.3183 29.4729C23.568 29.5641 21.4257 28.5231 21.4257 28.5231C21.4257 28.5091 21.4363 28.4916 21.4433 28.474C21.9411 27.37 31.4638 19.2806 39.6787 16.2418C39.6962 16.2348 39.7102 16.2313 39.7243 16.2243C41.4353 15.5969 43.0867 15.1904 44.5873 15.1133C44.6364 15.1062 44.6854 15.1062 44.7345 15.1062C44.8608 15.0992 44.9835 15.0957 45.1097 15.0957C45.2359 15.0957 45.3586 15.0957 45.4848 15.1062C45.5339 15.1062 45.583 15.1062 45.6321 15.1133C47.2484 15.1939 49.026 15.6495 50.8492 16.34C52.3358 16.8973 53.8505 17.6158 55.3406 18.4114L55.3301 18.4149Z" fill="#FF8B3E"/>
<g style="mix-blend-mode:multiply" opacity="0.3">
<path d="M45.5445 69.3205C43.574 68.63 44.4505 66.9792 46.6314 65.9803C48.8122 64.9814 52.5988 64.2173 56.5642 61.529C60.5297 58.8407 63.9692 55.7844 65.0561 55.9176C66.143 56.0543 66.3814 58.7636 66.3814 58.7636C66.3814 58.7636 56.4205 68.0377 45.541 69.317L45.5445 69.3205Z" fill="#BE2F55"/>
</g>
<mask id="mask2_235_366" style="mask-type:luminance" maskUnits="userSpaceOnUse" x="24" y="18" width="42" height="48">
<path d="M35.4047 42.8723C35.58 43.0791 44.2051 64.8587 44.5136 65.6508C44.1069 65.6158 43.7037 65.5457 43.3216 65.444C36.2462 64.028 30.9414 59.9799 25.4859 55.5917C24.6759 54.747 24.3008 53.4397 24.3008 52.1849V32.2348C24.3008 30.9871 24.6759 29.6727 25.4859 28.828C25.7769 28.5932 26.0679 28.3619 26.3589 28.1271C26.3589 28.1271 26.3659 28.1271 26.3694 28.12C28.6799 26.2765 30.987 24.5135 33.4308 23.0099C33.5815 22.9187 33.7323 22.8276 33.883 22.7365C34.2091 22.5402 34.5352 22.3509 34.8718 22.1687C36.979 20.9945 39.2019 20.0272 41.6316 19.3752C42.1821 19.2245 42.7466 19.0913 43.3181 18.9757C43.6231 18.8951 43.9421 18.8355 44.2612 18.7969C44.3699 18.7829 44.4786 18.7724 44.5873 18.7654C44.7591 18.7549 44.9309 18.7479 45.0957 18.7479C45.2464 18.7479 45.4042 18.7479 45.5585 18.7619C46.0073 18.7934 46.449 18.8635 46.8663 18.9757C47.7253 19.1474 48.5632 19.3612 49.3732 19.6101C50.8773 20.0622 52.3043 20.6405 53.6717 21.31C53.7032 21.324 53.7278 21.3415 53.7593 21.3555L53.563 21.5027L46.8873 26.4131L45.5935 30.8644C45.5935 30.8644 35.2224 42.6655 35.4012 42.8793L35.4047 42.8723ZM64.7055 28.828C64.5127 28.7369 63.9972 28.3654 63.2434 27.8116C62.721 27.4296 62.0864 26.9634 61.3571 26.4412C61.3571 26.4412 61.3571 26.4412 61.3501 26.4412L53.0441 28.099L49.2364 32.5222L39.286 42.662L44.5172 65.6543C45.3095 65.7174 46.13 65.6543 46.8663 65.4475C50.4601 64.7255 53.598 63.3341 56.5327 61.5536C56.5432 61.5466 56.5537 61.5395 56.5642 61.5325C58.9659 60.0745 61.2309 58.3641 63.4924 56.5695C63.5029 56.5625 63.5099 56.559 63.5169 56.552L64.7055 55.5987C65.4242 54.8556 65.7959 53.7551 65.873 52.644C65.8836 52.4933 65.8906 52.3426 65.8906 52.1919V32.2418C65.8906 30.9941 65.5154 29.6797 64.7055 28.835V28.828Z" fill="white"/>
</mask>
<g mask="url(#mask2_235_366)">
<path fill-rule="evenodd" clip-rule="evenodd" d="M79.2454 52.2234L77.0366 49.805L76.8578 51.0458L62.7736 51.5154L79.2454 52.2234Z" fill="#E6774F"/>
<path fill-rule="evenodd" clip-rule="evenodd" d="M15.0937 41.4808L19.8971 40.6081H28.1225L15.0937 41.4808Z" fill="#E6774F"/>
<path fill-rule="evenodd" clip-rule="evenodd" d="M54.0048 67.0913L32.5717 65.6053L24.7776 66.5831L54.0048 67.0913Z" fill="#801B34"/>
<g style="mix-blend-mode:multiply" opacity="0.2">
<path fill-rule="evenodd" clip-rule="evenodd" d="M12.8077 22.0635C12.8077 22.0635 24.122 19.0528 35.1382 19.6416C46.1545 20.2304 50.7581 21.1803 65.0491 22.0635C79.3401 22.9468 81.2755 30.2475 81.2755 30.2475L80.5462 33.6894C80.5462 33.6894 75.55 24.9446 60.8557 22.7119C46.1615 20.4828 41.842 21.2364 29.2059 21.0015C16.5697 20.7667 13.2214 23.7985 13.2214 23.7985L12.8077 22.0635Z" fill="url(#paint30_linear_235_366)"/>
<path fill-rule="evenodd" clip-rule="evenodd" d="M13.8525 26.4447C13.8525 26.4447 17.8705 24.6011 37.2384 24.7168C56.6063 24.8359 69.7754 26.7812 72.9624 30.7978C76.1495 34.811 72.5487 40.9516 56.1926 43.9623C39.8365 46.9731 16.1139 47.2605 16.1139 47.2605L16.0368 46.4999C16.0368 46.4999 42.9639 47.0712 56.8202 43.4892C70.6764 39.9071 73.867 32.4311 70.6764 29.834C67.4894 27.2368 33.4062 21.6324 14.1715 27.7976L13.849 26.4447H13.8525Z" fill="url(#paint31_linear_235_366)"/>
<path fill-rule="evenodd" clip-rule="evenodd" d="M15.9702 35.3612C15.9702 35.3612 45.7373 25.3652 62.7736 33.3249C62.7736 33.3249 61.1818 39.8686 47.6622 39.8686C34.1425 39.8686 36.5056 35.0633 30.8362 33.9663C25.1668 32.8692 16.3033 36.7772 16.3033 36.7772L15.9667 35.3612H15.9702Z" fill="url(#paint32_linear_235_366)"/>
<path fill-rule="evenodd" clip-rule="evenodd" d="M16.4856 49.805C16.4856 49.805 63.7203 45.7919 78.9299 39.2867L78.6985 40.6046C78.6985 40.6046 46.6173 48.3645 16.4856 50.492V49.805Z" fill="url(#paint33_linear_235_366)"/>
<path fill-rule="evenodd" clip-rule="evenodd" d="M16.9624 53.5553C16.9624 53.5553 64.6599 53.0611 77.9446 44.8911L77.7939 45.7498C77.7939 45.7498 62.1881 53.0226 17.0291 54.1266L16.9624 53.5553Z" fill="url(#paint34_linear_235_366)"/>
<path fill-rule="evenodd" clip-rule="evenodd" d="M18.0458 64.375C18.0458 64.375 56.6659 50.5901 78.12 56.4854L77.7343 58.7812C77.7343 58.7812 69.26 54.1196 45.4848 57.975C21.7062 61.8304 19.3466 66.4955 19.3466 66.4955L18.2457 66.478L18.0493 64.382L18.0458 64.375Z" fill="url(#paint35_linear_235_366)"/>
<path fill-rule="evenodd" clip-rule="evenodd" d="M69.5755 59.9378C69.5755 59.9378 58.5522 55.2938 42.4135 61.2767C42.4135 61.2767 62.0163 62.3772 69.5755 59.9378Z" fill="url(#paint36_linear_235_366)"/>
<path fill-rule="evenodd" clip-rule="evenodd" d="M51.6276 66.9266C51.6276 66.9266 67.3035 64.6063 77.573 59.8712L77.4503 60.7509C77.4503 60.7509 64.0639 64.9779 52.3709 67.0598L51.6241 66.9231L51.6276 66.9266Z" fill="url(#paint37_linear_235_366)"/>
<path fill-rule="evenodd" clip-rule="evenodd" d="M14.8588 31.4532C14.8588 31.4532 29.0481 25.4843 47.7077 26.4447C66.3674 27.405 69.1513 31.9264 69.1022 34.6953C69.0566 37.4642 53.4157 46.4017 15.7528 45.6938L15.8019 45.3187C15.8019 45.3187 36.3128 45.9671 52.2166 42.2309C68.1205 38.4911 69.3792 34.1625 66.7811 31.1728C64.1831 28.1831 40.4886 23.0204 14.8588 31.4567V31.4532Z" fill="url(#paint38_linear_235_366)"/>
<path fill-rule="evenodd" clip-rule="evenodd" d="M50.7195 48.6449C50.7195 48.6449 60.0493 48.2103 66.7005 46.1669L50.7195 48.6449Z" fill="url(#paint39_linear_235_366)"/>
<path fill-rule="evenodd" clip-rule="evenodd" d="M62.7736 67.0633L72.0964 64.5012L65.1648 67.2841L62.7736 67.0633Z" fill="url(#paint40_linear_235_366)"/>
</g>
<path style="mix-blend-mode:multiply" opacity="0.2" fill-rule="evenodd" clip-rule="evenodd" d="M42.3749 32.2734C42.3749 32.2734 54.9514 29.4975 59.3236 34.1625C59.3236 34.1625 54.6008 38.4701 46.2141 37.8813C37.831 37.2924 33.3431 33.3249 33.3431 33.3249C33.3431 33.3249 39.023 37.8497 46.7015 37.3485C54.3764 36.8508 54.7796 31.2079 42.3784 32.2734H42.3749Z" fill="url(#paint41_linear_235_366)"/>
<path fill-rule="evenodd" clip-rule="evenodd" d="M62.0163 51.6732L55.0391 52.4898L42.4135 52.6721L62.0163 51.6732Z" fill="#DC634F"/>
<path fill-rule="evenodd" clip-rule="evenodd" d="M28.1225 40.6081L79.6486 37.9128L79.5505 38.3685L28.1225 40.6081Z" fill="#892334"/>
<path opacity="0.2" fill-rule="evenodd" clip-rule="evenodd" d="M15.0937 41.4808L79.5505 38.3685L76.8578 51.0458L42.4135 52.6721L17.2184 55.9246L15.0937 41.4808Z" fill="#D9772F"/>
<path fill-rule="evenodd" clip-rule="evenodd" d="M17.2184 55.9246L42.4135 52.6721L58.4365 51.6732L62.7736 51.5154L42.4135 52.9349L28.5257 55.0169L17.2184 55.9246Z" fill="#801B34"/>
<path style="mix-blend-mode:multiply" opacity="0.6" fill-rule="evenodd" clip-rule="evenodd" d="M51.6276 66.9266L32.5717 65.6053L35.5625 66.7724L51.6276 66.9266Z" fill="url(#paint42_linear_235_366)"/>
<path opacity="0.4" fill-rule="evenodd" clip-rule="evenodd" d="M19.3431 66.4885C19.3431 66.4885 22.6739 61.0874 46.6945 57.7787C46.6945 57.7787 26.3098 60.5652 19.3431 66.4885Z" fill="#D9772F"/>
<path opacity="0.4" fill-rule="evenodd" clip-rule="evenodd" d="M16.4856 50.492C16.4856 50.492 34.9349 49.0164 51.6241 46.0548C51.6241 46.0548 40.7866 48.7606 16.4856 50.492Z" fill="#D9772F"/>
<path opacity="0.4" fill-rule="evenodd" clip-rule="evenodd" d="M52.974 45.8199C52.974 45.8199 74.8698 41.8944 79.1823 40.3803L79.021 40.8745C79.021 40.8745 62.5247 44.2567 52.974 45.8199Z" fill="#D9772F"/>
<path fill-rule="evenodd" clip-rule="evenodd" d="M39.9802 40.0894L44.2928 40.6081L50.404 39.6372L39.9802 40.0894Z" fill="#E6774F"/>
<path fill-rule="evenodd" clip-rule="evenodd" d="M39.9802 40.0894L43.6301 40.1209L50.404 39.6372L44.9133 39.101L39.9802 40.0894Z" fill="#892334"/>
<path fill-rule="evenodd" clip-rule="evenodd" d="M28.5011 54.4666L31.8635 52.6721L29.3181 54.365L28.5011 54.4666Z" fill="#892334"/>
<path fill-rule="evenodd" clip-rule="evenodd" d="M57.0165 64.2068L59.3025 62.7137L63.6922 62.556L59.3201 63.1273L57.0165 64.2068Z" fill="#801B34"/>
<path fill-rule="evenodd" clip-rule="evenodd" d="M36.0744 51.0142L36.9825 50.492H39.3737L36.0744 51.0142Z" fill="#801B34"/>
<path fill-rule="evenodd" clip-rule="evenodd" d="M63.1978 14.6646L67.3246 16.5958L69.4177 19.6416L71.5424 21.4502L68.0889 19.0913L64.162 16.7501L63.1978 14.6646Z" fill="#A73234"/>
<path fill-rule="evenodd" clip-rule="evenodd" d="M71.5424 21.4502L68.5342 19.0913L63.8956 16.1752L63.1978 14.6646L67.3246 16.5958L69.1057 19.1825L71.5424 21.4502Z" fill="#892334"/>
<path fill-rule="evenodd" clip-rule="evenodd" d="M57.567 63.9509L63.0331 62.6401L59.3201 63.1273L57.567 63.9509Z" fill="#DC634F"/>
<path fill-rule="evenodd" clip-rule="evenodd" d="M36.0744 51.0142L37.7258 51.2421L39.3737 50.492L36.0744 51.0142Z" fill="#DC634F"/>
<path fill-rule="evenodd" clip-rule="evenodd" d="M29.3181 54.365L31.8635 52.6721L29.9842 54.2773L29.3181 54.365Z" fill="#DC634F"/>
<path fill-rule="evenodd" clip-rule="evenodd" d="M65.9467 38.9608L67.9662 39.8686L65.1683 39.0028L65.9467 38.9608Z" fill="#DC634F"/>
<path fill-rule="evenodd" clip-rule="evenodd" d="M26.422 22.2493L26.7621 21.8462L28.0243 22.2493L27.6842 22.9047H26.8497L26.422 22.2493Z" fill="#892334"/>
<path fill-rule="evenodd" clip-rule="evenodd" d="M29.6897 23.3113L29.8475 23.1536L30.5242 23.483L30.0929 23.7599L29.6897 23.455V23.3113Z" fill="#892334"/>
<path fill-rule="evenodd" clip-rule="evenodd" d="M26.422 22.2493L26.8462 22.775L27.544 22.8521H27.7122L27.6842 22.9047L26.8497 22.9538L26.422 22.2493Z" fill="#F2774F"/>
<path fill-rule="evenodd" clip-rule="evenodd" d="M29.6897 23.455L29.9772 23.6302H30.2612L30.5242 23.483L30.1806 23.7599H30.0929L29.6897 23.455Z" fill="#F2774F"/>
<path fill-rule="evenodd" clip-rule="evenodd" d="M34.4616 58.4832L34.714 58.4061L37.4523 57.607L41.9822 57.1829L34.4616 58.4832Z" fill="#801B34"/>
<path fill-rule="evenodd" clip-rule="evenodd" d="M67.591 24.7133L64.1059 23.7599L59.3236 23.7249C59.3236 23.7249 63.6396 23.9422 67.5945 24.7133H67.591Z" fill="#892334"/>
<path fill-rule="evenodd" clip-rule="evenodd" d="M18.0458 64.375L24.6093 62.2545L18.1931 65.1531L18.0458 64.375Z" fill="#801B34"/>
<path fill-rule="evenodd" clip-rule="evenodd" d="M26.4886 18.4009L28.6344 20.7632L27.2214 18.3658L26.4886 18.4009Z" fill="#B64034"/>
<path fill-rule="evenodd" clip-rule="evenodd" d="M26.7971 18.7409L27.0671 19.5645L28.6344 20.7632L26.7971 18.7409Z" fill="#F2774F"/>
<path fill-rule="evenodd" clip-rule="evenodd" d="M16.1315 37.1382H22.6915L47.6657 37.2539L24.8968 37.9128L16.1315 37.1382Z" fill="#9D2B34"/>
<path fill-rule="evenodd" clip-rule="evenodd" d="M16.1315 37.1382L24.8968 37.5238L47.6657 37.2539L16.1315 37.1382Z" fill="#7A1C34"/>
</g>
<path fill-rule="evenodd" clip-rule="evenodd" d="M33.3782 23.4024L37.4313 22.74L36.2953 22.2248L33.571 22.1091L33.3782 23.4024Z" fill="#892334"/>
<path fill-rule="evenodd" clip-rule="evenodd" d="M33.571 22.1091L33.8831 22.733L37.4313 22.74L33.3782 23.4024L33.571 22.1091Z" fill="#DC634F"/>
<path d="M54.0328 22.1091L48.1285 27.0545L47.4904 30.8574L37.0982 42.0591L44.5172 65.6508C44.2051 64.8587 35.5835 43.0791 35.4082 42.8723C35.2294 42.6585 45.6006 30.8574 45.6006 30.8574L46.8943 26.4061L53.57 21.4957L55.4177 18.2572L55.5369 19.1089L54.0363 22.1091H54.0328Z" fill="url(#paint43_linear_235_366)"/>
<path d="M44.5207 65.6508V65.6754V65.6683C44.5207 65.6683 44.5207 65.6578 44.5136 65.6508H44.5207Z" fill="url(#paint44_linear_235_366)"/>
<path d="M55.4177 18.2572L55.3301 18.4149L53.7663 21.352H53.7628L53.5665 21.4957L53.6752 21.3065L55.4177 18.2572Z" fill="url(#paint45_linear_235_366)"/>
<path d="M55.5334 16.2979C53.4227 16.8797 51.5084 19.5049 51.5084 19.5049C46.6419 16.8061 40.2046 18.3062 37.4067 19.5049C37.4067 19.5049 35.4889 16.8797 33.3817 16.2979C33.3817 16.2979 36.425 5.25038 44.4576 5.25038C52.4901 5.25038 55.5404 16.2979 55.5404 16.2979H55.5334Z" fill="url(#paint46_linear_235_366)"/>
<path d="M36.2357 14.1284C36.2742 14.6962 40.3904 16.8026 44.454 16.8026C48.5177 16.8026 52.5076 15.0361 52.7811 14.6716C53.0546 14.3071 49.9657 6.92223 44.7415 6.92223C39.5174 6.92223 36.1901 13.4484 36.2357 14.1284Z" fill="#6B172C"/>
<path d="M37.8836 13.6797C37.9151 14.1319 41.2109 15.8212 44.4681 15.8212C47.7253 15.8212 50.9194 14.4053 51.1367 14.1143C51.3541 13.8234 48.8823 7.90712 44.696 7.90712C40.5096 7.90712 37.8485 13.133 37.8836 13.6762V13.6797Z" fill="url(#paint47_linear_235_366)"/>
<g style="mix-blend-mode:multiply" opacity="0.78">
<path d="M36.9299 12.5056C36.9299 12.5056 40.7866 8.39781 44.454 8.39781C48.1215 8.39781 52.115 12.772 52.115 12.772C52.115 12.772 48.9699 6.92223 44.738 6.92223C40.5061 6.92223 36.9264 12.5021 36.9264 12.5021L36.9299 12.5056Z" fill="#BE2F55"/>
</g>
<g style="mix-blend-mode:multiply" opacity="0.5">
<path d="M38.5006 13.6307C38.164 13.3993 42.445 12.3444 45.3446 12.3759C48.2442 12.4075 50.0358 13.529 50.1936 14.0407C50.3549 14.549 43.574 17.1216 38.4971 13.6342L38.5006 13.6307Z" fill="#BE2F2F"/>
</g>
<g style="mix-blend-mode:soft-light" opacity="0.89">
<path d="M40.8147 10.1888C39.1037 12.0184 42.5818 12.2743 45.0992 12.1376C47.6166 12.0009 48.125 9.82782 48.0303 9.50887C47.9321 9.19343 43.581 7.23067 40.8182 10.1888H40.8147Z" fill="white"/>
</g>
<g style="mix-blend-mode:multiply" opacity="0.5">
<path d="M55.5334 16.2979C53.4227 16.8797 51.5084 19.5049 51.5084 19.5049C45.6111 18.0013 44.3418 18.7479 37.4067 19.5049C37.4067 19.5049 35.4889 16.8797 33.3817 16.2979C33.3817 16.2979 34.2231 15.0852 36.0604 15.4287C37.8976 15.7722 40.4185 17.7735 44.4576 17.7455C48.5071 17.7104 52.0659 14.6821 55.5404 16.2944L55.5334 16.2979Z" fill="#BE2F55"/>
</g>
<path d="M34.9805 12.3759C34.9805 12.3759 39.2334 7.35334 44.1139 6.9678C48.9945 6.58226 52.7951 12.3759 52.7951 12.3759C52.7951 12.3759 50.9439 5.02257 44.4505 5.24688C37.9572 5.4747 34.977 12.3759 34.977 12.3759H34.9805Z" fill="#FF8B3E"/>
<path d="M44.5207 65.6683V65.6508L44.5242 65.6754L44.5207 65.6683Z" fill="#FF8B3E"/>
<path d="M61.3571 26.4412C61.6341 26.641 67.549 26.7566 68.0644 27.1211L65.3191 29.4835L64.7055 28.828L63.2119 27.9203L53.4859 29.1996L40.4711 43.1106L44.5207 65.6508L39.2895 42.6585L53.0476 28.0955L61.3536 26.4412H61.3606H61.3571Z" fill="#FF8B3E"/>
<path style="mix-blend-mode:screen" d="M44.6609 23.7284C51.2156 23.7284 56.5292 18.4166 56.5292 11.8642C56.5292 5.31178 51.2156 0 44.6609 0C38.1062 0 32.7926 5.31178 32.7926 11.8642C32.7926 18.4166 38.1062 23.7284 44.6609 23.7284Z" fill="url(#paint48_radial_235_366)"/>
<path style="mix-blend-mode:screen" d="M30.731 71.3849C30.731 72.4399 29.8755 73.2951 28.8202 73.2951C27.7648 73.2951 26.9093 72.4399 26.9093 71.3849C26.9093 70.3299 27.7648 69.4747 28.8202 69.4747C29.8755 69.4747 30.731 70.3299 30.731 71.3849Z" fill="url(#paint49_radial_235_366)"/>
<path style="mix-blend-mode:screen" d="M28.8202 72.0613C29.1939 72.0613 29.4969 71.7585 29.4969 71.3849C29.4969 71.0113 29.1939 70.7084 28.8202 70.7084C28.4465 70.7084 28.1435 71.0113 28.1435 71.3849C28.1435 71.7585 28.4465 72.0613 28.8202 72.0613Z" fill="url(#paint50_radial_235_366)"/>
<path style="mix-blend-mode:screen" d="M35.3556 20.9525C36.6259 20.9525 37.6556 19.9231 37.6556 18.6532C37.6556 17.3834 36.6259 16.354 35.3556 16.354C34.0854 16.354 33.0556 17.3834 33.0556 18.6532C33.0556 19.9231 34.0854 20.9525 35.3556 20.9525Z" fill="url(#paint51_radial_235_366)"/>
<path style="mix-blend-mode:screen" d="M36.169 18.6532C36.169 19.1019 35.8044 19.4699 35.3556 19.4699C34.9068 19.4699 34.5387 19.1054 34.5387 18.6532C34.5387 18.2011 34.9033 17.8366 35.3556 17.8366C35.8079 17.8366 36.169 18.2011 36.169 18.6532Z" fill="url(#paint52_radial_235_366)"/>
<path style="mix-blend-mode:screen" d="M51.6872 15.306C51.6872 15.8914 51.2104 16.368 50.6248 16.368C50.0393 16.368 49.5625 15.8914 49.5625 15.306C49.5625 14.7207 50.0393 14.244 50.6248 14.244C51.2104 14.244 51.6872 14.7207 51.6872 15.306Z" fill="url(#paint53_radial_235_366)"/>
<path style="mix-blend-mode:screen" d="M51.0035 15.306C51.0035 15.5128 50.8352 15.6811 50.6284 15.6811C50.4215 15.6811 50.2532 15.5128 50.2532 15.306C50.2532 15.0992 50.4215 14.931 50.6284 14.931C50.8352 14.931 51.0035 15.0992 51.0035 15.306Z" fill="url(#paint54_radial_235_366)"/>
<path style="mix-blend-mode:screen" d="M59.6005 80.3435C60.5687 80.3435 61.3536 79.5589 61.3536 78.591C61.3536 77.6232 60.5687 76.8386 59.6005 76.8386C58.6324 76.8386 57.8475 77.6232 57.8475 78.591C57.8475 79.5589 58.6324 80.3435 59.6005 80.3435Z" fill="url(#paint55_radial_235_366)"/>
<path style="mix-blend-mode:screen" d="M60.2211 78.591C60.2211 78.9345 59.9441 79.2114 59.6005 79.2114C59.2569 79.2114 58.98 78.9345 58.98 78.591C58.98 78.2475 59.2569 77.9707 59.6005 77.9707C59.9441 77.9707 60.2211 78.2475 60.2211 78.591Z" fill="url(#paint56_radial_235_366)"/>
<path style="mix-blend-mode:screen" d="M27.1723 68.956C27.1723 69.3871 26.8217 69.7411 26.3869 69.7411C25.9522 69.7411 25.6016 69.3906 25.6016 68.956C25.6016 68.5214 25.9522 68.1709 26.3869 68.1709C26.8217 68.1709 27.1723 68.5214 27.1723 68.956Z" fill="url(#paint57_radial_235_366)"/>
<path style="mix-blend-mode:screen" d="M26.6639 68.956C26.6639 69.1102 26.5412 69.2329 26.3869 69.2329C26.2327 69.2329 26.1099 69.1102 26.1099 68.956C26.1099 68.8018 26.2327 68.6791 26.3869 68.6791C26.5412 68.6791 26.6639 68.8018 26.6639 68.956Z" fill="url(#paint58_radial_235_366)"/>
<defs>
<linearGradient id="paint0_linear_235_366" x1="41.1232" y1="86.1301" x2="41.1232" y2="6.78203" gradientUnits="userSpaceOnUse">
<stop/>
<stop offset="1" stop-color="#8C0000"/>
</linearGradient>
<linearGradient id="paint1_linear_235_366" x1="46.8908" y1="88.7273" x2="46.8908" y2="36.297" gradientUnits="userSpaceOnUse">
<stop/>
<stop offset="1" stop-color="#8C0000"/>
</linearGradient>
<linearGradient id="paint2_linear_235_366" x1="38.5111" y1="77.4519" x2="38.5111" y2="2.80044" gradientUnits="userSpaceOnUse">
<stop stop-color="#660000"/>
<stop offset="1"/>
</linearGradient>
<linearGradient id="paint3_linear_235_366" x1="78.5302" y1="39.6828" x2="78.5302" y2="19.9466" gradientUnits="userSpaceOnUse">
<stop stop-color="#8C2747"/>
<stop offset="1" stop-color="#D65731"/>
</linearGradient>
<linearGradient id="paint4_linear_235_366" x1="78.0884" y1="47.9474" x2="78.0884" y2="34.7374" gradientUnits="userSpaceOnUse">
<stop stop-color="#8C2747"/>
<stop offset="1" stop-color="#D65731"/>
</linearGradient>
<linearGradient id="paint5_linear_235_366" x1="72.5136" y1="55.129" x2="72.5136" y2="47.5549" gradientUnits="userSpaceOnUse">
<stop stop-color="#8C2747"/>
<stop offset="1" stop-color="#D65731"/>
</linearGradient>
<linearGradient id="paint6_linear_235_366" x1="11.3" y1="39.6793" x2="11.3" y2="19.943" gradientUnits="userSpaceOnUse">
<stop stop-color="#8C2747"/>
<stop offset="1" stop-color="#D65731"/>
</linearGradient>
<linearGradient id="paint7_linear_235_366" x1="11.7418" y1="47.9474" x2="11.7418" y2="34.7374" gradientUnits="userSpaceOnUse">
<stop stop-color="#8C2747"/>
<stop offset="1" stop-color="#D65731"/>
</linearGradient>
<linearGradient id="paint8_linear_235_366" x1="17.313" y1="55.1255" x2="17.313" y2="47.5514" gradientUnits="userSpaceOnUse">
<stop stop-color="#8C2747"/>
<stop offset="1" stop-color="#D65731"/>
</linearGradient>
<linearGradient id="paint9_linear_235_366" x1="-5.48805" y1="22.5697" x2="105.595" y2="22.5697" gradientUnits="userSpaceOnUse">
<stop stop-color="#C77CBD"/>
<stop offset="1" stop-color="#974577"/>
</linearGradient>
<linearGradient id="paint10_linear_235_366" x1="-3.80265" y1="32.8784" x2="93.8173" y2="32.8784" gradientUnits="userSpaceOnUse">
<stop stop-color="#C77CBD"/>
<stop offset="1" stop-color="#974577"/>
</linearGradient>
<linearGradient id="paint11_linear_235_366" x1="-0.358577" y1="31.8566" x2="75.5777" y2="31.8566" gradientUnits="userSpaceOnUse">
<stop stop-color="#C77CBD"/>
<stop offset="1" stop-color="#974577"/>
</linearGradient>
<linearGradient id="paint12_linear_235_366" x1="0.474131" y1="42.6898" x2="101.785" y2="42.6898" gradientUnits="userSpaceOnUse">
<stop stop-color="#C77CBD"/>
<stop offset="1" stop-color="#974577"/>
</linearGradient>
<linearGradient id="paint13_linear_235_366" x1="1.24688" y1="47.7763" x2="100.186" y2="47.7763" gradientUnits="userSpaceOnUse">
<stop stop-color="#C77CBD"/>
<stop offset="1" stop-color="#974577"/>
</linearGradient>
<linearGradient id="paint14_linear_235_366" x1="3.00556" y1="60.1603" x2="100.472" y2="60.1603" gradientUnits="userSpaceOnUse">
<stop stop-color="#C77CBD"/>
<stop offset="1" stop-color="#974577"/>
</linearGradient>
<linearGradient id="paint15_linear_235_366" x1="42.5425" y1="59.1927" x2="86.6094" y2="59.1927" gradientUnits="userSpaceOnUse">
<stop stop-color="#C77CBD"/>
<stop offset="1" stop-color="#974577"/>
</linearGradient>
<linearGradient id="paint16_linear_235_366" x1="-2.16389" y1="32.9327" x2="85.8433" y2="32.9327" gradientUnits="userSpaceOnUse">
<stop stop-color="#C77CBD"/>
<stop offset="1" stop-color="#974577"/>
</linearGradient>
<linearGradient id="paint17_linear_235_366" x1="56.019" y1="45.4569" x2="81.9462" y2="45.4569" gradientUnits="userSpaceOnUse">
<stop stop-color="#C77CBD"/>
<stop offset="1" stop-color="#974577"/>
</linearGradient>
<linearGradient id="paint18_linear_235_366" x1="85.297" y1="17.438" x2="104.469" y2="17.438" gradientUnits="userSpaceOnUse">
<stop stop-color="#C77CBD"/>
<stop offset="1" stop-color="#974577"/>
</linearGradient>
<linearGradient id="paint19_linear_235_366" x1="27.8202" y1="31.4587" x2="69.9685" y2="31.4587" gradientUnits="userSpaceOnUse">
<stop stop-color="#C77CBD"/>
<stop offset="1" stop-color="#974577"/>
</linearGradient>
<linearGradient id="paint20_linear_235_366" x1="49.4783" y1="76.5406" x2="49.4783" y2="66.3518" gradientUnits="userSpaceOnUse">
<stop stop-color="#8C2747"/>
<stop offset="1" stop-color="#D65731"/>
</linearGradient>
<linearGradient id="paint21_linear_235_366" x1="40.6078" y1="76.5406" x2="40.6078" y2="66.3518" gradientUnits="userSpaceOnUse">
<stop stop-color="#8C2747"/>
<stop offset="1" stop-color="#D65731"/>
</linearGradient>
<linearGradient id="paint22_linear_235_366" x1="-17.519" y1="61.2726" x2="80.0943" y2="61.2726" gradientUnits="userSpaceOnUse">
<stop stop-color="#C77CBD"/>
<stop offset="1" stop-color="#974577"/>
</linearGradient>
<linearGradient id="paint23_linear_235_366" x1="-13.2422" y1="71.0839" x2="88.0683" y2="71.0839" gradientUnits="userSpaceOnUse">
<stop stop-color="#C77CBD"/>
<stop offset="1" stop-color="#974577"/>
</linearGradient>
<linearGradient id="paint24_linear_235_366" x1="-12.4695" y1="76.1704" x2="86.4695" y2="76.1704" gradientUnits="userSpaceOnUse">
<stop stop-color="#C77CBD"/>
<stop offset="1" stop-color="#974577"/>
</linearGradient>
<linearGradient id="paint25_linear_235_366" x1="-15.8802" y1="61.3314" x2="72.1269" y2="61.3314" gradientUnits="userSpaceOnUse">
<stop stop-color="#C77CBD"/>
<stop offset="1" stop-color="#974577"/>
</linearGradient>
<linearGradient id="paint26_linear_235_366" x1="42.296" y1="73.851" x2="68.2299" y2="73.851" gradientUnits="userSpaceOnUse">
<stop stop-color="#C77CBD"/>
<stop offset="1" stop-color="#974577"/>
</linearGradient>
<linearGradient id="paint27_linear_235_366" x1="45.0957" y1="69.3205" x2="45.0957" y2="15.1027" gradientUnits="userSpaceOnUse">
<stop stop-color="#4F092A"/>
<stop offset="1" stop-color="#A13A1A"/>
</linearGradient>
<linearGradient id="paint28_linear_235_366" x1="39.0336" y1="65.6508" x2="39.0336" y2="18.7479" gradientUnits="userSpaceOnUse">
<stop stop-color="#75213B"/>
<stop offset="1" stop-color="#C7512E"/>
</linearGradient>
<linearGradient id="paint29_linear_235_366" x1="52.5883" y1="65.6754" x2="52.5883" y2="26.4377" gradientUnits="userSpaceOnUse">
<stop stop-color="#75213B"/>
<stop offset="1" stop-color="#C7512E"/>
</linearGradient>
<linearGradient id="paint30_linear_235_366" x1="12.8077" y1="26.6269" x2="81.2755" y2="26.6269" gradientUnits="userSpaceOnUse">
<stop stop-color="#C77CBD"/>
<stop offset="1" stop-color="#974577"/>
</linearGradient>
<linearGradient id="paint31_linear_235_366" x1="13.8525" y1="35.9851" x2="74.0178" y2="35.9851" gradientUnits="userSpaceOnUse">
<stop stop-color="#C77CBD"/>
<stop offset="1" stop-color="#974577"/>
</linearGradient>
<linearGradient id="paint32_linear_235_366" x1="15.9702" y1="35.0563" x2="62.7736" y2="35.0563" gradientUnits="userSpaceOnUse">
<stop stop-color="#C77CBD"/>
<stop offset="1" stop-color="#974577"/>
</linearGradient>
<linearGradient id="paint33_linear_235_366" x1="16.4856" y1="44.8911" x2="78.9299" y2="44.8911" gradientUnits="userSpaceOnUse">
<stop stop-color="#C77CBD"/>
<stop offset="1" stop-color="#974577"/>
</linearGradient>
<linearGradient id="paint34_linear_235_366" x1="16.9624" y1="49.5106" x2="77.9446" y2="49.5106" gradientUnits="userSpaceOnUse">
<stop stop-color="#C77CBD"/>
<stop offset="1" stop-color="#974577"/>
</linearGradient>
<linearGradient id="paint35_linear_235_366" x1="18.0458" y1="60.7544" x2="78.12" y2="60.7544" gradientUnits="userSpaceOnUse">
<stop stop-color="#C77CBD"/>
<stop offset="1" stop-color="#974577"/>
</linearGradient>
<linearGradient id="paint36_linear_235_366" x1="42.4135" y1="59.8712" x2="69.5755" y2="59.8712" gradientUnits="userSpaceOnUse">
<stop stop-color="#C77CBD"/>
<stop offset="1" stop-color="#974577"/>
</linearGradient>
<linearGradient id="paint37_linear_235_366" x1="51.6276" y1="63.4672" x2="77.573" y2="63.4672" gradientUnits="userSpaceOnUse">
<stop stop-color="#C77CBD"/>
<stop offset="1" stop-color="#974577"/>
</linearGradient>
<linearGradient id="paint38_linear_235_366" x1="14.8588" y1="36.0377" x2="69.1057" y2="36.0377" gradientUnits="userSpaceOnUse">
<stop stop-color="#C77CBD"/>
<stop offset="1" stop-color="#974577"/>
</linearGradient>
<linearGradient id="paint39_linear_235_366" x1="50.7195" y1="47.4042" x2="66.7005" y2="47.4042" gradientUnits="userSpaceOnUse">
<stop stop-color="#C77CBD"/>
<stop offset="1" stop-color="#974577"/>
</linearGradient>
<linearGradient id="paint40_linear_235_366" x1="62.7736" y1="65.8927" x2="72.0964" y2="65.8927" gradientUnits="userSpaceOnUse">
<stop stop-color="#C77CBD"/>
<stop offset="1" stop-color="#974577"/>
</linearGradient>
<linearGradient id="paint41_linear_235_366" x1="33.3396" y1="34.6953" x2="59.3201" y2="34.6953" gradientUnits="userSpaceOnUse">
<stop stop-color="#C77CBD"/>
<stop offset="1" stop-color="#974577"/>
</linearGradient>
<linearGradient id="paint42_linear_235_366" x1="32.5717" y1="66.2642" x2="51.6276" y2="66.2642" gradientUnits="userSpaceOnUse">
<stop stop-color="#C77CBD"/>
<stop offset="1" stop-color="#974577"/>
</linearGradient>
<linearGradient id="paint43_linear_235_366" x1="35.4012" y1="41.954" x2="55.5334" y2="41.954" gradientUnits="userSpaceOnUse">
<stop stop-color="#4F092A"/>
<stop offset="1" stop-color="#612310"/>
</linearGradient>
<linearGradient id="paint44_linear_235_366" x1="44.5136" y1="65.6613" x2="44.5242" y2="65.6613" gradientUnits="userSpaceOnUse">
<stop stop-color="#4F092A"/>
<stop offset="1" stop-color="#612310"/>
</linearGradient>
<linearGradient id="paint45_linear_235_366" x1="53.5665" y1="19.8764" x2="55.4177" y2="19.8764" gradientUnits="userSpaceOnUse">
<stop stop-color="#4F092A"/>
<stop offset="1" stop-color="#612310"/>
</linearGradient>
<linearGradient id="paint46_linear_235_366" x1="44.4575" y1="19.5049" x2="44.4575" y2="5.24688" gradientUnits="userSpaceOnUse">
<stop stop-color="#8C2747"/>
<stop offset="1" stop-color="#D65731"/>
</linearGradient>
<linearGradient id="paint47_linear_235_366" x1="44.5172" y1="15.8212" x2="44.5172" y2="7.90712" gradientUnits="userSpaceOnUse">
<stop stop-color="#6E0000"/>
<stop offset="0.1" stop-color="#920701"/>
<stop offset="0.21" stop-color="#B30D03"/>
<stop offset="0.32" stop-color="#CF1305"/>
<stop offset="0.45" stop-color="#E41706"/>
<stop offset="0.59" stop-color="#F31A07"/>
<stop offset="0.75" stop-color="#FC1C07"/>
<stop offset="1" stop-color="#FF1D08"/>
</linearGradient>
<radialGradient id="paint48_radial_235_366" cx="0" cy="0" r="1" gradientUnits="userSpaceOnUse" gradientTransform="translate(44.6609 11.5485) scale(11.2407 10.8997)">
<stop stop-color="#CF2C00"/>
<stop offset="1"/>
</radialGradient>
<radialGradient id="paint49_radial_235_366" cx="0" cy="0" r="1" gradientUnits="userSpaceOnUse" gradientTransform="translate(28.8202 70.8475) scale(1.80916 1.75429)">
<stop stop-color="#BD0000"/>
<stop offset="1"/>
</radialGradient>
<radialGradient id="paint50_radial_235_366" cx="0" cy="0" r="1" gradientUnits="userSpaceOnUse" gradientTransform="translate(28.8202 70.8233) scale(0.606562 0.582099)">
<stop offset="0.76" stop-color="#FF0000"/>
<stop offset="1"/>
</radialGradient>
<radialGradient id="paint51_radial_235_366" cx="0" cy="0" r="1" gradientUnits="userSpaceOnUse" gradientTransform="translate(35.3556 18.3141) scale(2.17731 2.11126)">
<stop stop-color="#BD0000"/>
<stop offset="1"/>
</radialGradient>
<radialGradient id="paint52_radial_235_366" cx="0" cy="0" r="1" gradientUnits="userSpaceOnUse" gradientTransform="translate(35.3556 18.2628) scale(0.729278 0.699864)">
<stop offset="0.76" stop-color="#FF0000"/>
<stop offset="1"/>
</radialGradient>
<radialGradient id="paint53_radial_235_366" cx="0" cy="0" r="1" gradientUnits="userSpaceOnUse" gradientTransform="translate(50.6283 14.9789) scale(1.00626 0.975737)">
<stop stop-color="#BD0000"/>
<stop offset="1"/>
</radialGradient>
<radialGradient id="paint54_radial_235_366" cx="0" cy="0" r="1" gradientUnits="userSpaceOnUse" gradientTransform="translate(50.6284 14.925) scale(0.336589 0.323015)">
<stop offset="0.76" stop-color="#FF0000"/>
<stop offset="1"/>
</radialGradient>
<radialGradient id="paint55_radial_235_366" cx="0" cy="0" r="1" gradientUnits="userSpaceOnUse" gradientTransform="translate(59.6005 78.0278) scale(1.6584 1.6081)">
<stop stop-color="#BD0000"/>
<stop offset="1"/>
</radialGradient>
<radialGradient id="paint56_radial_235_366" cx="0" cy="0" r="1" gradientUnits="userSpaceOnUse" gradientTransform="translate(59.6006 78.007) scale(0.557475 0.534991)">
<stop offset="0.76" stop-color="#FF0000"/>
<stop offset="1"/>
</radialGradient>
<radialGradient id="paint57_radial_235_366" cx="0" cy="0" r="1" gradientUnits="userSpaceOnUse" gradientTransform="translate(26.3869 68.4302) scale(0.743301 0.720753)">
<stop stop-color="#BD0000"/>
<stop offset="1"/>
</radialGradient>
<radialGradient id="paint58_radial_235_366" cx="0" cy="0" r="1" gradientUnits="userSpaceOnUse" gradientTransform="translate(26.3869 68.404) scale(0.248936 0.238896)">
<stop offset="0.76" stop-color="#FF0000"/>
<stop offset="1"/>
</radialGradient>
</defs>
</svg>
