<svg width="33" height="33" viewBox="0 0 33 33" fill="none" xmlns="http://www.w3.org/2000/svg">
<path d="M5.04177 0C2.27366 0 0.000141642 2.27354 0.000141642 5.04167V11.0591C-0.00243515 11.2413 0.0312261 11.4222 0.0991695 11.5913C0.167113 11.7603 0.267983 11.9142 0.395918 12.044C0.523853 12.1738 0.676301 12.2768 0.844404 12.3471C1.01251 12.4174 1.19291 12.4537 1.37513 12.4537C1.55735 12.4537 1.73775 12.4174 1.90586 12.3471C2.07396 12.2768 2.22641 12.1738 2.35434 12.044C2.48228 11.9142 2.58315 11.7603 2.65109 11.5913C2.71903 11.4222 2.7527 11.2413 2.75012 11.0591V5.04167C2.75012 3.75996 3.76007 2.75 5.04177 2.75H27.9582C29.2399 2.75 30.2499 3.75996 30.2499 5.04167V15.4276C30.2473 15.6098 30.281 15.7907 30.3489 15.9598C30.4169 16.1288 30.5177 16.2827 30.6457 16.4125C30.7736 16.5422 30.926 16.6453 31.0941 16.7156C31.2623 16.7859 31.4427 16.8222 31.6249 16.8222C31.8071 16.8222 31.9875 16.7859 32.1556 16.7156C32.3237 16.6453 32.4762 16.5422 32.6041 16.4125C32.732 16.2827 32.8329 16.1288 32.9008 15.9598C32.9688 15.7907 33.0024 15.6098 32.9999 15.4276V5.04167C32.9999 2.27354 30.7263 0 27.9582 0H5.04177ZM7.17586 7.33333L14.2674 17.4686L7.17049 25.6667H9.0432L15.0964 18.6556L20.0019 25.6667H25.9029L18.3566 14.8815L24.8753 7.33333H23.0419L17.5295 13.6981L13.0769 7.33333H7.17586ZM10.0243 8.88737H12.3732L23.0545 24.1126H20.7055L10.0243 8.88737ZM1.35365 16.9386C0.989289 16.9443 0.642088 17.0944 0.388307 17.3559C0.134525 17.6174 -0.00508506 17.969 0.000141642 18.3333V27.9583C0.000141642 30.7265 2.27366 33 5.04177 33H27.9582C30.7263 33 32.9999 30.7265 32.9999 27.9583V23.375C33.0024 23.1928 32.9688 23.0119 32.9008 22.8428C32.8329 22.6737 32.732 22.5198 32.6041 22.3901C32.4762 22.2603 32.3237 22.1573 32.1556 22.087C31.9875 22.0166 31.8071 21.9804 31.6249 21.9804C31.4427 21.9804 31.2623 22.0166 31.0941 22.087C30.926 22.1573 30.7736 22.2603 30.6457 22.3901C30.5177 22.5198 30.4169 22.6737 30.3489 22.8428C30.281 23.0119 30.2473 23.1928 30.2499 23.375V27.9583C30.2499 29.24 29.2399 30.25 27.9582 30.25H5.04177C3.76007 30.25 2.75012 29.24 2.75012 27.9583V18.3333C2.75276 18.1493 2.71843 17.9666 2.64916 17.7961C2.57989 17.6256 2.4771 17.4707 2.34687 17.3406C2.21664 17.2106 2.06163 17.108 1.89102 17.0389C1.72041 16.9699 1.53768 16.9358 1.35365 16.9386Z" fill="white"/>
</svg>
