<svg width="19" height="19" viewBox="0 0 19 19" fill="none" xmlns="http://www.w3.org/2000/svg">
<path d="M15.1951 6.47022H12.4121V3.68771C12.4121 2.00938 11.0516 0.64904 9.37298 0.64904C7.69438 0.64904 6.33382 2.00938 6.33382 3.68771V6.47022H3.55088C1.87227 6.47022 0.511719 7.83056 0.511719 9.50889C0.511719 11.1872 1.87227 12.5476 3.55088 12.5476H6.33382V15.3301C6.33382 17.0084 7.69438 18.3687 9.37298 18.3687C11.0516 18.3687 12.4121 17.0084 12.4121 15.3301V12.5476H15.1951C16.8737 12.5476 18.2342 11.1872 18.2342 9.50889C18.2342 7.83056 16.8737 6.47022 15.1951 6.47022Z" fill="white"/>
</svg>
