<svg width="41" height="50" viewBox="0 0 41 50" fill="none" xmlns="http://www.w3.org/2000/svg">
<path d="M3.72727 0C1.66795 0 0 1.72115 0 3.84615V36.5385C0 38.6635 1.66795 40.3846 3.72727 40.3846H18.6364V16.1809L14.3631 20.5904C13.6344 21.3424 12.4565 21.3424 11.7278 20.5904C10.9991 19.8385 10.9991 18.623 11.7278 17.8711L19.1824 10.1788C19.5458 9.80379 20.0229 9.61538 20.5 9.61538C20.9771 9.61538 21.4542 9.80379 21.8176 10.1788L29.2722 17.8711C30.0009 18.623 30.0009 19.8385 29.2722 20.5904C28.5435 21.3424 27.3656 21.3424 26.6369 20.5904L22.3636 16.1809V40.3846H37.2727C39.332 40.3846 41 38.6635 41 36.5385V3.84615C41 1.72115 39.332 0 37.2727 0H3.72727ZM22.3636 40.3846H18.6364V48.0769C18.6364 49.1385 19.4713 50 20.5 50C21.5287 50 22.3636 49.1385 22.3636 48.0769V40.3846Z" fill="white"/>
</svg>
