<svg width="35" height="35" viewBox="0 0 35 35" fill="none" xmlns="http://www.w3.org/2000/svg">
<path d="M17.5 0C7.8505 0 0 7.8505 0 17.5C0 27.1495 7.8505 35 17.5 35C27.1495 35 35 27.1495 35 17.5C35 7.8505 27.1495 0 17.5 0ZM18.8125 25.8125C18.8125 26.537 18.2245 27.125 17.5 27.125C16.7755 27.125 16.1875 26.537 16.1875 25.8125V16.1875C16.1875 15.463 16.7755 14.875 17.5 14.875C18.2245 14.875 18.8125 15.463 18.8125 16.1875V25.8125ZM17.5 12.25C16.5331 12.25 15.75 11.4669 15.75 10.5C15.75 9.53312 16.5331 8.75 17.5 8.75C18.4669 8.75 19.25 9.53312 19.25 10.5C19.25 11.4669 18.4669 12.25 17.5 12.25Z" fill="#2F2F2F"/>
</svg>
