<svg width="43" height="43" viewBox="0 0 43 43" fill="none" xmlns="http://www.w3.org/2000/svg">
<path d="M39.0909 0H3.90909C1.74932 0 0 1.74932 0 3.90909V39.0909C0 41.2507 1.74932 43 3.90909 43H39.0909C41.2507 43 43 41.2507 43 39.0909V3.90909C43 1.74932 41.2507 0 39.0909 0ZM32.6546 29.8909C33.4188 30.6551 33.4188 31.8904 32.6546 32.6546C32.2735 33.0357 31.7731 33.2273 31.2727 33.2273C30.7724 33.2273 30.272 33.0357 29.8909 32.6546L21.5 24.2637L13.1091 32.6546C12.728 33.0357 12.2276 33.2273 11.7273 33.2273C11.2269 33.2273 10.7265 33.0357 10.3454 32.6546C9.58118 31.8904 9.58118 30.6551 10.3454 29.8909L18.7363 21.5L10.3454 13.1091C9.58118 12.3449 9.58118 11.1096 10.3454 10.3454C11.1096 9.58118 12.3449 9.58118 13.1091 10.3454L21.5 18.7363L29.8909 10.3454C30.6551 9.58118 31.8904 9.58118 32.6546 10.3454C33.4188 11.1096 33.4188 12.3449 32.6546 13.1091L24.2637 21.5L32.6546 29.8909Z" fill="white"/>
</svg>
