<svg width="55" height="55" viewBox="0 0 55 55" fill="none" xmlns="http://www.w3.org/2000/svg">
<path d="M27.5 0C12.3131 0 0 12.3131 0 27.5C0 42.6869 12.3131 55 27.5 55C42.6869 55 55 42.6869 55 27.5C55 12.3131 42.6869 0 27.5 0ZM27.5 4.58333C40.1569 4.58333 50.4167 14.8431 50.4167 27.5C50.4167 40.1569 40.1569 50.4167 27.5 50.4167C14.8431 50.4167 4.58333 40.1569 4.58333 27.5C4.58333 14.8431 14.8431 4.58333 27.5 4.58333ZM25.2083 16.0417C24.6217 16.0417 24.0349 16.2662 23.5881 16.7131L14.4214 25.8797C13.5253 26.7758 13.5253 28.2242 14.4214 29.1203L23.5881 38.2869C24.4841 39.183 25.9326 39.183 26.8286 38.2869C27.7247 37.3909 27.7247 35.9424 26.8286 35.0464L21.5739 29.7917H38.9583C40.2233 29.7917 41.25 28.7673 41.25 27.5C41.25 26.2327 40.2233 25.2083 38.9583 25.2083H21.5739L26.8286 19.9536C27.7247 19.0576 27.7247 17.6091 26.8286 16.7131C26.3817 16.2662 25.795 16.0417 25.2083 16.0417Z" fill="white"/>
</svg>
