<svg width="23" height="27" viewBox="0 0 23 27" fill="none" xmlns="http://www.w3.org/2000/svg">
<path d="M16.6554 16.7114L12.9193 26.3792L12.6781 27C12.6781 27 10.451 26.8702 9.93488 26.0124C9.86756 25.9051 9.81707 25.702 9.7722 25.431C9.45805 23.5573 9.50293 18.444 8.70634 18.5061C7.79195 18.5682 2.32244 19.2511 0.897563 18.3763C-0.527315 17.5015 -0.0168274 4.89321 0.774148 3.73059C1.56512 2.57361 4.87488 2.2124 4.87488 2.2124L16.6554 16.7057V16.7114Z" fill="url(#paint0_linear_239_6674)"/>
<path d="M22.9663 15.9663C22.899 16.1808 22.7083 16.5138 22.4222 16.9371C22.4222 16.9371 22.4222 16.9371 22.4166 16.9427C20.4195 19.9001 13.8337 27.1749 12.6837 26.9943C12.6444 26.9943 12.6107 26.9774 12.5827 26.9492C12.5266 26.8928 12.4761 26.8025 12.4312 26.6839C11.8759 25.098 12.9641 18.5738 12.2181 18.3762C11.4215 18.1618 3.58464 19.1607 3.25927 17.7216C2.93951 16.2824 4.01098 3.10408 4.87488 2.21236C6.62512 0.411983 17.3173 -0.141111 18.0073 0.411983C18.6973 0.97072 15.5278 13.1106 16.2122 13.5846C16.9022 14.0644 23.5161 14.2167 22.9663 15.9607V15.9663Z" fill="url(#paint1_linear_239_6674)"/>
<path d="M0.774147 3.7362C0.774147 3.7362 1.4978 2.22366 6.73171 0.801422C11.9712 -0.620819 17.5249 0.282191 17.5249 0.282191C17.5249 0.282191 9.11024 -0.135451 4.52707 2.88399C4.52707 2.88399 0.70122 4.20464 0.774147 3.7362Z" fill="url(#paint2_linear_239_6674)"/>
<path d="M16.2122 13.5903C16.4029 14.5046 18.7702 14.9109 20.7224 15.052C22.6746 15.1931 22.9439 15.5148 22.9439 15.5148C22.9439 15.5148 22.9102 14.9786 21.4741 14.64C20.038 14.3014 16.7619 13.8781 16.2178 13.5959L16.2122 13.5903Z" fill="url(#paint3_linear_239_6674)"/>
<g style="mix-blend-mode:multiply" opacity="0.5">
<path d="M8.71195 18.5004C9.00927 18.777 9.69927 19.9735 10.5239 23.134C11.3485 26.2945 12.9529 19.5558 12.4256 18.7883C11.8983 18.0207 8.70634 18.5004 8.70634 18.5004H8.71195Z" fill="#B82774"/>
</g>
<g style="mix-blend-mode:multiply" opacity="0.5">
<path d="M0.897568 18.3706C0.897568 18.3706 2.70952 18.2295 4.4822 18.3706C6.25488 18.5117 8.71196 18.5004 8.71196 18.5004C8.71196 18.5004 3.26488 19.3752 0.903177 18.3706H0.897568Z" fill="#B82774"/>
</g>
<g style="mix-blend-mode:multiply" opacity="0.5">
<path d="M0.897568 4.01273C0.62269 4.10303 0.00561661 11.2086 0.460007 14.149C0.920007 17.0894 3.16391 14.7021 3.47245 11.4287C3.78098 8.14964 4.40928 4.42473 4.22415 3.73054C4.03903 3.03635 0.891958 4.01273 0.891958 4.01273H0.897568Z" fill="#FF3355"/>
</g>
<g style="mix-blend-mode:multiply" opacity="0.5">
<path d="M22.411 16.9427C20.4139 19.9001 13.8281 27.175 12.6781 26.9944C12.6781 26.9944 10.451 26.8646 9.93488 26.0067C9.86757 25.8995 9.81708 25.6963 9.7722 25.4254C9.86196 25.4988 11.27 26.6896 12.2629 26.7291C12.3022 26.7291 12.3583 26.7178 12.4256 26.684C12.549 26.6332 12.6837 26.4808 12.9193 26.3792C16.2122 24.9287 22.1698 17.208 22.411 16.9484V16.9427Z" fill="#C52774"/>
</g>
<g style="mix-blend-mode:multiply" opacity="0.3">
<path d="M15.0229 13.9064C13.2671 16.796 6.24366 17.9248 4.52707 16.7113C2.80488 15.4979 4.07268 4.57149 6.2661 2.75983C8.45951 0.948165 17.2051 0.767563 17.5249 1.92454C17.8446 3.08153 15.2978 13.4549 15.0229 13.912V13.9064Z" fill="#FFC055"/>
</g>
<path d="M2.61975 3.48786C2.73756 3.74748 5.07682 3.38627 5.97438 2.218C6.87195 1.04973 2.61975 3.48786 2.61975 3.48786Z" fill="#FFFFDB"/>
<path d="M18.501 14.7698C18.4841 14.1547 20.5485 14.4199 21.0983 15.0803C21.648 15.7406 18.5178 15.5995 18.501 14.7698Z" fill="#FFFFDB"/>
<path d="M4.03341 11.9988C3.96048 11.0958 4.38121 9.62272 5.11048 9.5945C5.83975 9.56628 5.66585 11.8069 5.11048 12.4164C4.55512 13.0316 4.07829 12.5406 4.03341 11.9988Z" fill="#DC2C00"/>
<path d="M3.97732 7.11684C2.82171 6.79514 3.06293 8.38105 3.61269 8.73097C4.16244 9.07524 5.23952 7.4724 3.97732 7.11684Z" fill="#DC2C00"/>
<g style="mix-blend-mode:multiply" opacity="0.5">
<path d="M3.36585 7.17327C2.75439 7.48368 3.65756 8.27945 4.02219 8.30767C4.39243 8.33589 4.63926 7.75458 4.45414 7.42159C4.26902 7.09425 3.68 7.01524 3.36585 7.17327Z" fill="#B82774"/>
</g>
<g style="mix-blend-mode:multiply" opacity="0.5">
<path d="M4.47659 10.0572C4.25781 10.5031 4.66732 11.8633 5.09928 11.8294C5.53123 11.7955 5.75562 9.99516 5.35171 9.6904C4.94781 9.38563 4.47659 10.0629 4.47659 10.0629V10.0572Z" fill="#B82774"/>
</g>
<path d="M3.20317 8.07068C3.20317 8.07068 3.38268 8.58991 3.78659 8.64635C4.19049 8.70279 4.45976 8.22306 4.45976 8.22306C4.45976 8.22306 4.11195 9.27281 3.72488 9.1938C3.3378 9.10914 3.20878 8.07632 3.20878 8.07632L3.20317 8.07068Z" fill="#FFC434"/>
<path d="M4.05586 12.1455C4.05586 12.1455 4.19049 12.5857 4.60561 12.5857C5.02073 12.5857 5.28439 12.1455 5.28439 12.1455C5.28439 12.1455 5.01512 12.9751 4.51586 12.9864C4.01659 12.9977 4.05586 12.1455 4.05586 12.1455Z" fill="#FFC434"/>
<g style="mix-blend-mode:multiply" opacity="0.3">
<path d="M13.6149 26.0067C12.2966 23.8508 15.3988 17.0669 17.5585 16.7114C19.7127 16.3558 20.5093 16.1526 21.1712 17.4563C21.8276 18.7601 13.6205 26.0067 13.6205 26.0067H13.6149Z" fill="#FFC055"/>
</g>
<defs>
<linearGradient id="paint0_linear_239_6674" x1="8.33049" y1="27" x2="8.33049" y2="2.2124" gradientUnits="userSpaceOnUse">
<stop offset="0.05" stop-color="#FF4B00"/>
<stop offset="1" stop-color="#FF7204"/>
</linearGradient>
<linearGradient id="paint1_linear_239_6674" x1="13.0988" y1="27" x2="13.0988" y2="0.208805" gradientUnits="userSpaceOnUse">
<stop stop-color="#FFA200"/>
<stop offset="1" stop-color="#FFB82F"/>
</linearGradient>
<linearGradient id="paint2_linear_239_6674" x1="9.14951" y1="3.83779" x2="9.14951" y2="5.16883e-07" gradientUnits="userSpaceOnUse">
<stop stop-color="#FFDE00"/>
<stop offset="1" stop-color="#FFE834"/>
</linearGradient>
<linearGradient id="paint3_linear_239_6674" x1="19.578" y1="15.5092" x2="19.578" y2="13.5903" gradientUnits="userSpaceOnUse">
<stop stop-color="#FFDE00"/>
<stop offset="1" stop-color="#FFE834"/>
</linearGradient>
</defs>
</svg>
