<svg width="53" height="67" viewBox="0 0 53 67" fill="none" xmlns="http://www.w3.org/2000/svg">
<path d="M39.024 59.6813C34.6425 60.9445 32.9588 59.9417 33.1479 58.0347C33.2023 57.79 33.2539 57.5358 33.3054 57.2816C33.3054 57.2816 33.2999 57.2623 33.3095 57.2596C33.4641 56.424 33.5856 55.546 33.6425 54.6242C34.1836 45.9966 24.1379 50.9327 20.1687 51.1716C18.1347 51.3001 15.6067 49.3543 13.4764 47.1273C13.4764 47.1273 13.4613 47.1108 13.4517 47.1136C11.4302 45.0113 9.77345 42.6582 9.21042 41.5716C8.81437 40.8116 9.18874 39.4027 9.84565 37.8188C10.9587 35.1458 12.8921 31.997 13.2781 30.845C13.3258 30.6855 13.3529 30.5632 13.3404 30.4836C13.1596 29.5678 10.3775 25.874 8.4494 25.5036C6.78796 25.1916 1.883 18.3944 1.14652 14.2877C1.02965 13.6657 1.02142 13.0957 1.12607 12.6284C1.92387 9.07848 7.18413 8.22798 8.28508 9.08659C9.38602 9.94521 10.8244 16.9197 15.8581 20.1205C15.8581 20.1205 19.4575 24.3385 20.6749 24.5183C21.902 24.6953 25.9479 22.665 28.6066 23.5844C29.9264 24.0469 31.4554 22.9609 33.134 22.3937C34.1771 22.0409 35.469 22.3345 36.6027 22.5488C36.6027 22.5488 36.6027 22.5488 36.6123 22.546C37.3063 22.679 37.9412 22.7874 38.4258 22.6997C39.3375 22.5409 40.3724 24.4697 41.3474 27.2379C41.3557 27.2668 41.3695 27.3148 41.3862 27.3725C41.678 28.2042 41.9672 29.0991 42.2415 30.0503L42.2747 30.1656C43.6515 34.9411 44.7629 40.709 45.0121 43.2702C45.0333 43.5242 45.0985 43.7864 45.1925 44.0403C45.6101 45.2 46.6981 46.3746 48.0745 47.5389C48.643 48.0306 49.2595 48.5086 49.8953 48.9809C53.8361 51.8204 43.9437 58.2629 39.0048 59.6868L39.024 59.6813Z" fill="url(#paint0_linear_239_5496)"/>
<g style="mix-blend-mode:multiply" opacity="0.5">
<path d="M2.73556 11.8938C1.67716 13.3125 5.15196 18.8673 7.27332 19.0779C9.3823 19.2816 11.1037 17.6718 10.8931 15.7863C10.6826 13.9008 8.70719 9.8287 7.95797 9.57638C7.20875 9.32406 3.95142 10.2632 2.73556 11.8938Z" fill="#FF9274"/>
</g>
<path d="M4.34184 16.7072C4.34184 16.7072 5.44194 18.3571 7.03664 18.9068C8.63134 19.4565 11.1442 18.5343 11.4936 17.5802C12.1268 15.8782 10.3245 13.5254 10.3245 13.5254C10.3245 13.5254 11.3721 15.6066 10.7089 16.8802C10.0458 18.1537 7.1736 19.8872 4.33907 16.6976L4.34184 16.7072Z" fill="#FFD636"/>
<g style="mix-blend-mode:multiply" opacity="0.3">
<path d="M16.0415 37.6144C16.0415 37.6144 14.6007 37.6343 14.5876 37.3363C14.5841 37.0355 12.672 33.5799 9.85804 37.8256C11.1295 34.7636 13.4737 31.0904 13.3528 30.4904C14.8862 33.5348 16.0388 37.6048 16.0388 37.6048L16.0415 37.6144Z" fill="#D60066"/>
</g>
<g style="mix-blend-mode:multiply" opacity="0.2">
<path d="M16.2686 20.6058C13.0547 17.869 9.9565 21.0207 11.4978 24.4894C13.039 27.9582 15.9379 28.1944 18.7433 26.6987C21.5488 25.203 17.4882 21.6592 16.2714 20.6154L16.2686 20.6058Z" fill="#EA4C74"/>
</g>
<g style="mix-blend-mode:multiply" opacity="0.8">
<path d="M33.6453 54.6338C34.1864 46.0062 24.1406 50.9423 20.1715 51.1812C18.1375 51.3097 15.6095 49.3639 13.4792 47.1369C16.2915 49.6356 18.9149 51.8765 29.4591 48.5972C39.3555 45.5254 34.1368 55.6889 33.3095 57.2596C33.4641 56.424 33.5856 55.546 33.6425 54.6242L33.6453 54.6338Z" fill="#D42F55"/>
</g>
<path d="M39.024 59.6813C34.6425 60.9445 32.9588 59.9417 33.1479 58.0347C33.1638 57.8011 33.225 57.5441 33.3055 57.2816C33.3055 57.2816 33.2999 57.2623 33.3095 57.2596C36.6751 46.4439 45.9764 46.1456 49.9145 48.9754C53.8553 51.8148 43.9629 58.2574 39.024 59.6813Z" fill="#D84C04"/>
<g style="mix-blend-mode:multiply" opacity="0.2">
<path d="M41.7378 30.2164L41.771 30.3317C43.1478 35.1071 44.2591 40.875 44.5084 43.4362C44.5296 43.6903 44.5948 43.9525 44.6888 44.2064C43.4499 45.3961 45.1639 42.9662 36.8747 46.0534C28.5882 49.1501 18.1296 31.3924 18.1296 31.3924C18.4217 28.9041 18.9328 26.6337 22.4635 26.2818C23.3437 26.1945 26.0852 26.1014 29.602 25.0875C33.1188 24.0736 34.6469 23.7788 36.7468 24.2037C38.8467 24.6286 40.5158 26.4474 40.8368 27.4164C40.9157 27.6538 41.2644 28.7189 41.7281 30.2191L41.7378 30.2164Z" fill="#EF7A98"/>
</g>
<path d="M20.6777 24.5279C20.6777 24.5279 23.4589 24.9333 25.894 24.8245C28.3195 24.7184 30.3801 23.6352 29.7552 23.6696C29.1303 23.7041 27.1372 23.1443 25.5089 23.4889C23.8711 23.8362 20.6777 24.5279 20.6777 24.5279Z" fill="url(#paint1_linear_239_5496)"/>
<path d="M30.9315 23.3096C30.3661 23.5143 34.5874 22.4534 35.582 22.51C36.5863 22.564 34.7194 21.9366 33.6401 22.0916C32.5608 22.2467 30.9315 23.3096 30.9315 23.3096Z" fill="url(#paint2_linear_239_5496)"/>
<path d="M37.8573 22.7491C37.2919 22.9538 38.7606 23.1027 39.4117 23.6643C40.0627 24.226 39.2861 22.8679 38.8588 22.7934C38.4314 22.7189 37.8573 22.7491 37.8573 22.7491Z" fill="url(#paint3_linear_239_5496)"/>
<path d="M1.06793 13.5819C1.21649 14.8191 2.00721 11.75 3.86754 10.2249C5.72788 8.69988 7.93442 8.91712 7.93442 8.91712C7.93442 8.91712 6.82439 8.27967 4.08108 9.34118C1.32817 10.4055 0.979706 12.8788 1.06793 13.5819Z" fill="url(#paint4_linear_239_5496)"/>
<g style="mix-blend-mode:soft-light">
<path d="M7.09048 18.4437C5.62615 18.4184 8.8185 14.4383 10.3627 15.6791C11.9068 16.9199 9.81995 18.4894 7.09048 18.4437Z" fill="white"/>
</g>
<path d="M2.67204 12.9008C2.67204 12.9008 4.03038 11.1146 5.57797 10.3458C7.12556 9.57702 8.57761 10.2095 8.57761 10.2095C8.57761 10.2095 8.26397 9.44655 7.88317 9.31697C6.86586 8.96502 3.02467 11.0195 2.64969 11.596C2.2747 12.1724 2.67204 12.9008 2.67204 12.9008Z" fill="#FFE7DB"/>
<g style="mix-blend-mode:multiply" opacity="0.5">
<path d="M2.4936 12.3903C2.4936 12.3903 3.27648 16.3691 6.33171 17.653C9.26593 18.8781 10.9589 16.8809 10.8807 15.7795C10.8122 14.6753 9.59839 12.0175 9.59839 12.0175C9.59839 12.0175 11.2347 15.0218 11.0276 16.2887C10.8204 17.5557 8.73503 19.1664 6.83675 18.6106C4.93846 18.0547 2.71144 15.023 2.4936 12.3903Z" fill="#D42774"/>
</g>
<g style="mix-blend-mode:screen" opacity="0.5">
<path d="M10.2958 20.4649C10.0447 21.7237 12.3425 19.8748 13.4763 19.5479C14.6197 19.2183 13.391 17.7721 11.6453 18.4315C9.89969 19.0909 10.2862 20.4677 10.2862 20.4677L10.2958 20.4649Z" fill="#FFB311"/>
</g>
<g style="mix-blend-mode:multiply" opacity="0.8">
<path d="M16.0415 37.6144C15.7503 37.6151 14.5202 37.8969 14.5876 37.3363C14.6577 36.7853 15.3039 36.4637 15.2212 35.7798C15.1385 35.096 14.2696 31.9017 12.6208 32.2834C12.6685 32.1239 13.3653 30.5701 13.3432 30.4932C13.1624 29.5774 10.3802 25.8836 8.45217 25.5132C6.78796 25.1917 1.883 18.3944 1.14652 14.2877C1.30328 13.7846 4.58752 22.3604 7.64078 24.5399C10.6872 26.7317 12.4595 27.428 13.7561 29.6873C15.0554 31.9561 16.3355 37.6233 16.0443 37.624L16.0415 37.6144Z" fill="#D42F55"/>
</g>
<g style="mix-blend-mode:multiply" opacity="0.3">
<path d="M20.1715 51.1812C17.9711 50.6604 21.2617 46.985 26.8747 46.0224C32.4781 45.0626 35.2091 48.615 33.9741 49.71C32.7295 50.8078 32.2839 49.4064 27.9191 49.6448C23.5639 49.8806 20.1715 51.1812 20.1715 51.1812Z" fill="#D60066"/>
</g>
<g style="mix-blend-mode:multiply" opacity="0.8">
<path d="M42.9663 34.4414C41.6574 28.7825 39.01 23.4263 36.6179 22.5653C37.3119 22.6982 37.9467 22.8066 38.4314 22.7189C39.3431 22.5601 40.3779 24.4889 41.3529 27.2572C41.3613 27.286 41.3751 27.334 41.3917 27.3917C41.6836 28.2234 41.9728 29.1183 42.247 30.0696L42.2803 30.1849C43.6571 34.9603 44.7684 40.7282 45.0177 43.2894C45.0389 43.5435 45.1041 43.8057 45.1981 44.0596C45.6157 45.2193 46.7037 46.3938 48.0801 47.5581C47.9012 47.4432 45.0685 45.5956 44.8355 44.6428C44.6065 43.6681 44.2587 40.1154 42.9498 34.4566L42.9663 34.4414Z" fill="#D42F55"/>
</g>
<g style="mix-blend-mode:screen" opacity="0.5">
<path d="M36.1372 51.2927C35.3552 51.6847 35.7841 47.7936 38.5759 45.7814C41.3678 43.7693 46.2527 46.2012 46.5607 46.945C46.8688 47.6888 43.1038 47.1195 40.7753 48.1759C38.4468 49.2323 36.1276 51.2955 36.1276 51.2955L36.1372 51.2927Z" fill="#FFB311"/>
</g>
<path d="M38.1664 49.7398C36.9442 50.446 37.6611 48.0954 39.3954 47.252C41.1268 46.399 42.6307 47.464 42.2083 47.7315C41.7859 47.999 39.7645 48.8212 38.1664 49.7398Z" fill="white"/>
<path d="M22.5367 24.7308C21.4679 25.2471 24.7956 25.5991 26.0118 25.2692C27.228 24.9394 25.8309 23.1255 22.5367 24.7308Z" fill="white"/>
<path d="M30.9315 23.3096C30.1384 23.6632 31.5815 23.9757 32.5649 23.3799C33.5484 22.7841 32.2858 22.7006 30.9315 23.3096Z" fill="white"/>
<g style="mix-blend-mode:screen" opacity="0.5">
<path d="M9.5115 41.0998C10.1954 42.1723 13.5678 37.6615 12.7333 36.2473C11.8989 34.8331 8.03345 38.7888 9.5115 41.0998Z" fill="#FFB311"/>
</g>
<g style="mix-blend-mode:multiply" opacity="0.2">
<path d="M24.5112 27.2838C23.9032 27.5215 29.1867 35.1983 30.5649 36.0082C31.9405 36.8084 27.9831 25.8977 24.5112 27.2838Z" fill="#EF7A98"/>
</g>
<g style="mix-blend-mode:multiply" opacity="0.2">
<path d="M31.6813 26.0908C30.7164 26.3898 33.6786 33.0186 34.3804 32.962C35.0822 32.9054 32.9509 25.6935 31.6813 26.0908Z" fill="#EF7A98"/>
</g>
<g style="mix-blend-mode:multiply" opacity="0.2">
<path d="M37.4185 25.3422C36.8258 25.6691 37.6517 30.3745 38.9338 30.5981C40.2159 30.8217 38.2799 24.8648 37.4185 25.3422Z" fill="#EF7A98"/>
</g>
<g style="mix-blend-mode:multiply" opacity="0.2">
<path d="M10.3932 42.7501C9.80857 41.2639 12.4439 39.2864 13.8852 38.8709C15.3265 38.4554 21.0035 46.4142 20.6783 47.7048C20.3531 48.9954 18.9203 50.6678 17.8129 50.5811C16.7056 50.4945 12.1444 45.5755 10.4028 42.7473L10.3932 42.7501Z" fill="#EA4C74"/>
</g>
<g style="mix-blend-mode:multiply" opacity="0.3">
<path d="M33.5775 56.7452C33.5271 60.3607 43.885 57.3016 45.7371 54.0513C47.5892 50.801 44.8607 48.8818 47.5674 48.5593C50.2671 48.2493 43.681 46.0893 39.493 49.0347C35.3051 51.9802 33.5775 56.7452 33.5775 56.7452Z" fill="#D60066"/>
</g>
<defs>
<linearGradient id="paint0_linear_239_5496" x1="34.2486" y1="61.0581" x2="18.1673" y2="5.28" gradientUnits="userSpaceOnUse">
<stop stop-color="#FFA200"/>
<stop offset="1" stop-color="#FFB82F"/>
</linearGradient>
<linearGradient id="paint1_linear_239_5496" x1="20.9547" y1="25.4888" x2="29.6601" y2="22.9789" gradientUnits="userSpaceOnUse">
<stop stop-color="#FFDE00"/>
<stop offset="1" stop-color="#FFE834"/>
</linearGradient>
<linearGradient id="paint2_linear_239_5496" x1="30.9029" y1="23.3908" x2="35.736" y2="21.9973" gradientUnits="userSpaceOnUse">
<stop stop-color="#FFDE00"/>
<stop offset="1" stop-color="#FFE834"/>
</linearGradient>
<linearGradient id="paint3_linear_239_5496" x1="37.9209" y1="23.5113" x2="39.4679" y2="23.0653" gradientUnits="userSpaceOnUse">
<stop stop-color="#FFDE00"/>
<stop offset="1" stop-color="#FFE834"/>
</linearGradient>
<linearGradient id="paint4_linear_239_5496" x1="0.635945" y1="12.1557" x2="8.23637" y2="9.96446" gradientUnits="userSpaceOnUse">
<stop stop-color="#FFDE00"/>
<stop offset="1" stop-color="#FFE834"/>
</linearGradient>
</defs>
</svg>
