<svg width="43" height="33" viewBox="0 0 43 33" fill="none" xmlns="http://www.w3.org/2000/svg">
<path d="M35.4399 6.74764C38.3904 4.5611 39.1263 10.8422 37.5643 13.4117C36.0647 15.8907 31.2885 15.6957 29.3516 16.1275C27.4217 16.5522 28.6852 19.073 28.6852 19.073L40.5216 15.2501L41.9101 7.29776L37.6684 5.40369C37.6684 5.40369 36.03 5.7449 35.4399 6.74764Z" fill="url(#paint0_linear_239_1835)"/>
<path d="M7.60865 6.74764C4.65822 4.5611 3.92234 10.8422 5.4774 13.4117C6.97691 15.8907 11.7531 15.6957 13.69 16.1275C15.62 16.5522 14.3565 19.073 14.3565 19.073L2.52696 15.2501L1.13852 7.29776L5.38021 5.40369C5.38021 5.40369 7.01856 5.7449 7.60865 6.74764Z" fill="url(#paint1_linear_239_1835)"/>
<path d="M32.8991 6.44123C32.8991 6.44123 35.0304 4.70036 40.0635 4.8257C45.0896 4.95104 42.5557 13.4395 40.5702 16.2249C38.6611 18.8989 32.0036 17.7221 30.7748 18.4184C29.553 19.1078 30.5873 20.7164 30.0875 20.9949C29.5877 21.2735 28.0326 19.6301 28.4006 18.2235C28.7824 16.789 35.794 15.9743 38.2932 13.6833C40.8826 11.3087 40.0634 6.62228 37.7795 6.31589C35.1206 5.96075 34.8151 7.35345 34.6485 8.93416C34.4819 10.4801 31.948 10.877 31.948 10.877L32.906 6.43427L32.8991 6.44123Z" fill="url(#paint2_linear_239_1835)"/>
<path d="M13.1763 21.0089C13.093 21.0228 13.0305 21.0228 13.0097 21.0228C13.0097 21.0228 12.9472 21.0089 12.9194 20.9949C12.4127 20.7094 13.454 19.1078 12.2322 18.4184C11.0034 17.7221 4.34582 18.8989 2.43671 16.2249C0.437357 13.4395 -2.0896 4.95104 2.93655 4.8257C7.96965 4.70035 10.1078 6.43426 10.1078 6.43426L11.0659 10.8839C11.0659 10.8839 8.52502 10.487 8.36535 8.94112C8.19874 7.36041 7.89328 5.96771 5.23442 6.32285C2.94349 6.62924 2.12431 11.3087 4.7207 13.6833C7.21989 15.9743 14.2315 16.789 14.6133 18.2235C14.6272 18.2861 14.6411 18.3488 14.655 18.4115C14.8216 19.5744 13.7942 20.8348 13.1902 21.0089H13.1763Z" fill="url(#paint3_linear_239_1835)"/>
<g style="mix-blend-mode:multiply" opacity="0.2">
<path d="M30.1847 18.8989C29.5599 17.931 34.1417 15.8141 36.7381 15.4381C39.3484 15.062 40.0912 16.218 40.0704 16.4965C40.0496 16.7751 39.154 17.743 35.9814 18.0285C32.8227 18.314 31.1844 17.8474 30.1847 18.8989Z" fill="#FF4D74"/>
</g>
<g style="mix-blend-mode:multiply" opacity="0.2">
<path d="M5.06087 17.736C1.8258 16.2946 8.2404 15.9603 10.9548 16.6915C13.6345 17.4157 13.4123 19.0312 13.0999 19.08C12.7875 19.1218 12.968 18.3767 11.8295 18.2931C10.6841 18.2026 6.2341 18.126 5.06781 17.743L5.06087 17.736Z" fill="#FF4D74"/>
</g>
<path d="M1.19406 5.40368C3.45027 3.4539 9.71214 4.24077 9.71214 4.24077L10.1009 6.43427C10.1009 6.43427 3.74879 3.816 1.19406 5.40368Z" fill="url(#paint4_linear_239_1835)"/>
<path d="M34.107 3.64886C34.107 3.64886 40.0843 3.44692 41.4241 5.15994C41.4241 5.15994 38.911 3.88562 33.3017 6.18357L34.107 3.65582V3.64886Z" fill="url(#paint5_linear_239_1835)"/>
<path d="M34.107 4.03186C34.107 4.03186 32.8227 9.48428 31.5176 13.3351C31.5037 13.3769 31.4829 13.4256 31.469 13.4813C31.4551 13.5161 31.4412 13.544 31.4343 13.5858C30.99 14.874 30.5457 15.9603 30.1569 16.5662C28.6435 18.9059 23.0065 21.371 22.3122 25.7092C22.1387 26.7746 22.3608 27.5894 22.7913 28.2161C23.9923 29.9848 26.8247 30.2982 27.2829 30.6115C27.2967 30.6254 27.3106 30.6324 27.3245 30.6463C27.9146 31.1129 28.47 32.5265 28.47 32.5265C28.47 32.5265 25.3738 33 21.4583 33C17.5429 33 14.4884 32.5265 14.4884 32.5265C14.4884 32.5265 15.0715 31.0433 15.6755 30.6115C16.1337 30.2912 19.1327 29.9709 20.3337 28.1325C20.7433 27.5128 20.9446 26.7259 20.785 25.7023C20.0977 21.364 14.3079 18.892 12.7945 16.5592C11.9128 15.2013 11.0589 11.5176 10.4688 8.53028C10.0037 6.17662 9.71214 4.25469 9.71214 4.25469L21.5486 6.14876L34.1001 4.03186H34.107Z" fill="url(#paint6_linear_239_1835)"/>
<path d="M10.0107 3.14053C12.7528 0.0905188 26.6025 -1.76177 33.0796 2.49292C40.4036 7.29774 5.76203 7.86874 10.0107 3.14053Z" fill="url(#paint7_linear_239_1835)"/>
<path d="M13.2735 3.5653C15.7033 5.67524 28.4283 5.67524 30.9414 3.53745C32.6492 2.08904 27.2343 0.842575 21.8541 0.898283C16.696 0.947027 11.7462 2.23527 13.2735 3.5653Z" fill="url(#paint8_linear_239_1835)"/>
<g style="mix-blend-mode:multiply" opacity="0.3">
<path d="M31.4343 13.5788C30.99 14.8671 30.5457 15.9534 30.1569 16.5592C28.6435 18.8989 23.0065 21.364 22.3122 25.7023C22.1387 26.7677 22.3608 27.5824 22.7913 28.2091C21.5278 29.5392 20.8891 29.1562 20.3337 28.1256C20.7433 27.5058 20.9446 26.7189 20.785 25.6953C20.0977 21.357 14.3079 18.885 12.7945 16.5522C11.9128 15.1944 11.0589 11.5107 10.4688 8.52333L10.5244 8.39102C10.5244 8.39102 11.5241 17.0745 18.3344 19.073C25.0683 21.0507 30.3652 16.5035 31.4274 13.5719L31.4343 13.5788Z" fill="#DE5155"/>
</g>
<g style="mix-blend-mode:screen" opacity="0.5">
<path d="M14.8841 18.0076C15.1618 17.4018 18.2511 19.9017 20.9516 20.7025C23.6521 21.5033 21.4722 23.3486 20.4726 23.0631C19.4729 22.7776 15.4533 18.6065 14.891 18.0076H14.8841Z" fill="#FF450C"/>
</g>
<g style="mix-blend-mode:multiply" opacity="0.5">
<path d="M28.47 32.5195C28.47 32.5195 25.3737 32.993 21.4583 32.993C17.5429 32.993 14.4884 32.5195 14.4884 32.5195C14.4884 32.5195 15.0715 31.0363 15.6755 30.6046C15.37 31.9207 25.5681 30.9109 27.3314 30.6394C27.9215 31.1059 28.4769 32.5195 28.4769 32.5195H28.47Z" fill="#DE5155"/>
</g>
<g style="mix-blend-mode:multiply" opacity="0.5">
<path d="M22.9301 32.9722C21.1598 32.6588 20.9099 31.7257 21.9096 31.2383C22.5136 30.9458 23.784 31.0015 24.8461 30.9249C27.6647 30.723 28.0951 32.3594 28.0326 32.4778C27.9701 32.5961 24.4088 32.9582 22.9301 32.9791V32.9722Z" fill="#DE5155"/>
</g>
<g style="mix-blend-mode:screen" opacity="0.5">
<path d="M18.2927 31.2661C18.1122 31.2661 17.9595 32.5822 18.1608 32.7423C18.3621 32.9025 20.2296 32.9582 20.542 32.9791C20.8544 33 21.1876 31.5725 21.4722 31.3705C21.7569 31.1686 18.2927 31.2661 18.2927 31.2661Z" fill="#FF450C"/>
</g>
<g style="mix-blend-mode:soft-light">
<path d="M17.772 31.1477C16.7238 31.1059 18.3135 29.6854 20.6253 29.6854C22.937 29.6854 23.8603 30.3678 23.9228 30.5976C23.9784 30.8274 20.5281 31.2591 17.779 31.1407L17.772 31.1477Z" fill="white"/>
</g>
<g style="mix-blend-mode:screen" opacity="0.5">
<path d="M11.6629 5.40366C10.9687 5.15298 11.3783 17.2068 18.3344 19.073C25.2904 20.9392 30.9345 9.81852 31.4274 7.55538C31.9202 5.29225 23.4994 7.32559 18.0636 6.46211C12.6279 5.6056 11.656 5.3967 11.656 5.3967L11.6629 5.40366Z" fill="#FF450C"/>
</g>
<g style="mix-blend-mode:screen" opacity="0.5">
<path d="M26.6442 1.40662C22.4094 1.76872 23.0828 4.40788 23.7007 4.90229C24.3185 5.3967 29.907 4.28254 30.7331 3.15445C31.5593 2.02637 26.6442 1.40662 26.6442 1.40662Z" fill="#FF450C"/>
</g>
<path d="M26.6442 1.40662C24.9364 1.74783 26.9843 3.25891 27.8243 3.21712C28.6644 3.16838 29.5599 1.99155 28.9282 1.84532C28.2964 1.69908 26.6442 1.41358 26.6442 1.41358V1.40662Z" fill="white"/>
<g style="mix-blend-mode:multiply" opacity="0.2">
<path d="M37.8419 5.14604C37.5295 5.45243 39.7025 6.38554 40.2717 9.34502C40.841 12.3045 42.8542 9.73498 42.757 7.5554C42.6529 5.37583 40.0426 4.68644 37.8419 5.14604Z" fill="#FF4D74"/>
</g>
<g style="mix-blend-mode:multiply" opacity="0.2">
<path d="M0.451243 9.44946C0.569261 11.3923 1.96464 12.2975 2.23539 12.2418C2.50614 12.1861 1.99935 7.38827 5.33855 5.76577C6.7617 5.07639 1.45092 5.27136 0.958024 5.76577C0.465128 6.26018 0.340168 7.56235 0.451243 9.44946Z" fill="#FF4D74"/>
</g>
<path d="M13.7525 6.89387C12.5654 7.46487 13.9052 9.19182 14.4745 9.0804C15.0438 8.96899 14.9396 6.32286 13.7525 6.89387Z" fill="white"/>
<path d="M11.2325 5.2644C11.2325 5.2644 22.5274 6.8869 30.1292 5.724C30.1292 5.724 19.4937 7.56236 11.2325 5.2644Z" fill="#FFE861"/>
<g style="mix-blend-mode:multiply" opacity="0.5">
<g style="mix-blend-mode:multiply" opacity="0.5">
<path d="M31.351 10.5706C31.3302 10.682 31.2885 10.8004 31.2399 10.9188C30.7748 11.9285 29.1573 13.0566 28.2687 12.583C27.9632 12.4229 27.7966 12.1792 27.7341 11.8797C27.512 10.8422 28.5116 9.15701 29.1295 8.16819C29.9278 6.88691 31.5454 9.49126 31.351 10.5706Z" fill="#E56D8D"/>
</g>
<g style="mix-blend-mode:multiply" opacity="0.5">
<path d="M27.1787 13.6833C27.1371 13.9897 27.0468 14.3657 26.9149 14.7974C26.6164 15.7654 25.6584 15.0621 25.3946 14.2961C25.346 14.1638 25.3182 14.0384 25.3182 13.9131C25.3182 13.0566 26.179 12.3045 26.9149 12.6875C27.1648 12.8198 27.2412 13.168 27.1787 13.6833Z" fill="#E56D8D"/>
</g>
<g style="mix-blend-mode:multiply" opacity="0.5">
<path d="M31.351 10.5706C31.3302 10.682 31.2885 10.8004 31.2399 10.9188L31.1705 10.9327C31.1705 10.9327 31.233 10.6263 30.9483 9.75587C30.6637 8.88543 29.914 7.88269 29.0878 8.62082C28.2756 9.35895 27.7549 11.8031 27.7341 11.8797C27.512 10.8422 28.5116 9.15701 29.1295 8.16819C29.9278 6.88691 31.5454 9.49126 31.351 10.5706Z" fill="#E56D8D"/>
</g>
<g style="mix-blend-mode:multiply" opacity="0.5">
<path d="M27.1787 13.6833C27.1787 13.6833 26.5748 12.59 25.9847 12.8337C25.3946 13.0844 25.3946 14.2961 25.3946 14.2961C25.346 14.1638 25.3182 14.0384 25.3182 13.9131C25.3182 13.0566 26.179 12.3045 26.9149 12.6875C27.1648 12.8198 27.2412 13.168 27.1787 13.6833Z" fill="#E56D8D"/>
</g>
</g>
<g style="mix-blend-mode:multiply" opacity="0.5">
<path d="M32.309 10.8074C32.309 10.8074 33.6905 10.1249 34.3917 8.96203C35.0928 7.79913 33.9127 4.82571 33.9127 4.82571L32.309 10.8143V10.8074Z" fill="#DE5155"/>
</g>
<g style="mix-blend-mode:multiply" opacity="0.5">
<path d="M9.85099 5.01371C9.85099 5.01371 9.6566 6.0443 9.42057 6.17661C9.18453 6.30892 8.26816 8.26566 8.72635 9.38678C9.18453 10.5079 11.0659 10.877 11.0659 10.877C11.0659 10.877 10.1287 7.47878 9.85099 5.00674V5.01371Z" fill="#DE5155"/>
</g>
<g style="mix-blend-mode:multiply" opacity="0.5">
<path d="M3.12399 9.3868C3.32532 11.3923 3.95012 11.6917 4.37359 11.5385C4.79706 11.3923 4.16532 7.17241 6.25493 6.27412C6.25493 6.27412 3.21424 6.06522 3.12399 9.3868Z" fill="#BE2F55"/>
</g>
<g style="mix-blend-mode:multiply" opacity="0.5">
<path d="M37.3629 6.40642C37.4185 6.6571 39.0152 8.73222 39.0082 10.8004C38.9943 12.8755 40.362 8.69044 39.2512 7.35345C38.1405 6.01646 37.3699 6.40642 37.3699 6.40642H37.3629Z" fill="#BE2F55"/>
</g>
<g style="mix-blend-mode:screen">
<path d="M4.51243 13.927C3.49193 13.7181 5.15111 16.2319 7.17824 16.3155C9.19842 16.399 9.83016 16.3155 9.83016 16.3155C9.83016 16.3155 5.10946 14.0454 4.51243 13.927Z" fill="#FF450C"/>
</g>
<g style="mix-blend-mode:screen">
<path d="M34.6138 15.5982C34.6138 15.5982 38.1543 15.5564 38.9805 15.1317C39.8066 14.7139 39.8968 13.0217 39.6816 12.9242C39.4734 12.8198 38.6403 13.7808 37.0366 14.5607C35.433 15.3406 34.6069 15.5982 34.6069 15.5982H34.6138Z" fill="#FF450C"/>
</g>
<path d="M35.676 5.40367C35.1206 5.54294 35.2733 4.43575 36.9117 4.26166C38.2585 4.12239 38.7791 4.83266 38.7791 4.83266C38.7791 4.83266 38.0849 4.80481 35.676 5.40367Z" fill="white"/>
<path d="M5.24136 5.04853C4.5402 4.5959 9.71214 4.76303 8.17097 5.75881C8.17097 5.75881 6.84501 5.2644 5.24136 5.04853Z" fill="white"/>
<path d="M18.2927 31.2661C17.3833 31.1756 18.9939 30.1519 20.1254 30.6115C21.264 31.0711 20.3615 31.468 18.2927 31.2661Z" fill="white"/>
<path d="M35.8148 15.1317C35.6899 15.3058 37.0783 15.257 37.4115 14.6233C37.7448 13.9897 36.0717 14.7626 35.8148 15.1317Z" fill="white"/>
<path d="M8.72635 15.7166C8.768 15.9673 6.74088 15.5634 6.81724 15.1386C6.89361 14.7139 8.67775 15.3963 8.72635 15.7166Z" fill="white"/>
<g style="mix-blend-mode:multiply" opacity="0.5">
<path d="M28.4005 18.2304C29.7404 17.0884 29.5321 20.8696 29.5321 20.8696C29.5321 20.8696 27.9701 19.5256 28.4005 18.2304Z" fill="#E52F55"/>
</g>
<g style="mix-blend-mode:multiply" opacity="0.5">
<path d="M13.1763 21.0089C13.093 21.0228 13.0305 21.0228 13.0097 21.0228C12.9333 20.598 13.7872 17.9937 14.648 18.4115C14.8147 19.5744 13.7872 20.8348 13.1832 21.0089H13.1763Z" fill="#E52F55"/>
</g>
<g style="mix-blend-mode:multiply" opacity="0.5">
<path d="M13.0027 3.10571C13.0999 2.38151 16.8001 0.988807 19.0494 1.40662C21.2987 1.82443 23.4091 4.5193 23.2425 4.82569C23.0759 5.13209 14.1482 5.34795 13.0027 3.10571Z" fill="#BE2F55"/>
</g>
<g style="mix-blend-mode:multiply" opacity="0.5">
<path d="M23.9159 21.747C23.0689 21.7957 21.9998 20.8139 22.6593 20.2359C23.7632 19.275 27.4703 18.3488 28.7615 17.1302L30.8303 15.1804C30.8303 15.1804 30.3513 16.6079 28.6574 18.0633C26.9635 19.5117 24.3394 21.7331 23.9159 21.754V21.747Z" fill="#DE5155"/>
</g>
<path d="M27.026 12.9939C27.1301 16.0021 24.8114 18.5368 21.8471 18.5368C18.8828 18.5368 16.5572 16.0021 16.6682 12.9939C16.7724 10.104 19.0911 7.84088 21.8471 7.84088C24.6032 7.84088 26.9288 10.104 27.026 12.9939Z" fill="url(#paint9_linear_239_1835)"/>
<g style="mix-blend-mode:soft-light" opacity="0.3">
<path d="M17.1056 14.8949C17.5846 12.973 26.3734 11.643 26.8316 12.1374C27.2967 12.6388 26.2832 18.0285 22.0068 18.0842C17.7304 18.133 16.9737 15.4242 17.1056 14.9019V14.8949Z" fill="white"/>
</g>
<path d="M19.9797 11.1346C19.9797 11.1346 20.6045 11.1694 21.0904 9.7837C21.0904 9.7837 22.0207 9.28232 22.9717 9.49123L23.1522 16.7611H20.9377L20.778 12.5552L19.9797 12.4646V11.1346Z" fill="url(#paint10_linear_239_1835)"/>
<path d="M19.9797 11.1346L20.0421 10.8631C20.0421 10.8631 20.8058 10.5358 20.9655 9.5957C20.9655 9.5957 22.215 9.02469 22.9717 9.49125C22.9717 9.49125 22.0137 9.3102 21.1668 9.78372C21.1668 9.78372 20.7919 11.0441 19.9797 11.1346Z" fill="url(#paint11_linear_239_1835)"/>
<g style="mix-blend-mode:multiply" opacity="0.5">
<path d="M16.6682 12.9939C16.6682 12.9939 17.8276 8.47457 22.0137 8.47457C25.9777 8.47457 26.9357 11.9772 26.9357 11.9772C26.9357 11.9772 26.2346 7.72252 21.7222 7.8409C17.2028 7.95928 16.6682 12.5064 16.6682 12.9939Z" fill="#BE2F55"/>
</g>
<path d="M17.4249 15.9812C17.4249 15.9812 18.9453 18.6831 22.1803 18.5368C25.4154 18.3906 26.665 15.1665 26.665 15.1665C26.665 15.1665 25.1516 19.0382 22.0137 19.0452C18.8758 19.0521 17.4249 15.9812 17.4249 15.9812Z" fill="url(#paint12_linear_239_1835)"/>
<defs>
<linearGradient id="paint0_linear_239_1835" x1="28.2756" y1="12.2418" x2="41.9031" y2="12.2418" gradientUnits="userSpaceOnUse">
<stop stop-color="#FA9300"/>
<stop offset="0.45" stop-color="#F66A00"/>
<stop offset="1" stop-color="#F63F00"/>
</linearGradient>
<linearGradient id="paint1_linear_239_1835" x1="14.7661" y1="1.46352e-05" x2="1.13852" y2="1.46352e-05" gradientUnits="userSpaceOnUse">
<stop stop-color="#FA9300"/>
<stop offset="0.45" stop-color="#F66A00"/>
<stop offset="1" stop-color="#F63F00"/>
</linearGradient>
<linearGradient id="paint2_linear_239_1835" x1="35.676" y1="21.0298" x2="35.676" y2="4.81874" gradientUnits="userSpaceOnUse">
<stop stop-color="#FF9600"/>
<stop offset="1" stop-color="#FFA900"/>
</linearGradient>
<linearGradient id="paint3_linear_239_1835" x1="7.33096" y1="21.0297" x2="7.33096" y2="4.81873" gradientUnits="userSpaceOnUse">
<stop stop-color="#FF9600"/>
<stop offset="1" stop-color="#FFA900"/>
</linearGradient>
<linearGradient id="paint4_linear_239_1835" x1="1.19406" y1="5.26441" x2="10.1009" y2="5.26441" gradientUnits="userSpaceOnUse">
<stop stop-color="#FFE834"/>
<stop offset="1" stop-color="#FFCD00"/>
</linearGradient>
<linearGradient id="paint5_linear_239_1835" x1="33.3017" y1="4.90925" x2="41.4241" y2="4.90925" gradientUnits="userSpaceOnUse">
<stop stop-color="#FFCD00"/>
<stop offset="1" stop-color="#FFE834"/>
</linearGradient>
<linearGradient id="paint6_linear_239_1835" x1="9.71214" y1="18.5159" x2="34.107" y2="18.5159" gradientUnits="userSpaceOnUse">
<stop stop-color="#FF9600"/>
<stop offset="1" stop-color="#FFA900"/>
</linearGradient>
<linearGradient id="paint7_linear_239_1835" x1="9.64966" y1="3.2032" x2="34.1001" y2="3.2032" gradientUnits="userSpaceOnUse">
<stop stop-color="#FFCD00"/>
<stop offset="1" stop-color="#FFE834"/>
</linearGradient>
<linearGradient id="paint8_linear_239_1835" x1="13.0756" y1="3.31903" x2="31.4046" y2="2.72563" gradientUnits="userSpaceOnUse">
<stop stop-color="#F63F00"/>
<stop offset="0.55" stop-color="#F66A00"/>
<stop offset="1" stop-color="#FA9300"/>
</linearGradient>
<linearGradient id="paint9_linear_239_1835" x1="21.8471" y1="18.5764" x2="21.8471" y2="7.84032" gradientUnits="userSpaceOnUse">
<stop offset="0.04" stop-color="#EF6300"/>
<stop offset="1" stop-color="#E13E00"/>
</linearGradient>
<linearGradient id="paint10_linear_239_1835" x1="21.5625" y1="16.7542" x2="21.5625" y2="9.44248" gradientUnits="userSpaceOnUse">
<stop stop-color="#FF9600"/>
<stop offset="1" stop-color="#FFA900"/>
</linearGradient>
<linearGradient id="paint11_linear_239_1835" x1="19.9797" y1="10.2224" x2="22.9717" y2="10.2224" gradientUnits="userSpaceOnUse">
<stop stop-color="#FFCD00"/>
<stop offset="1" stop-color="#FFE834"/>
</linearGradient>
<linearGradient id="paint12_linear_239_1835" x1="17.4249" y1="17.1024" x2="26.665" y2="17.1024" gradientUnits="userSpaceOnUse">
<stop stop-color="#FFCD00"/>
<stop offset="1" stop-color="#FFE834"/>
</linearGradient>
</defs>
</svg>
