<svg width="35" height="40" viewBox="0 0 35 40" fill="none" xmlns="http://www.w3.org/2000/svg">
<path d="M9.29314 5.68228e-05C9.02125 0.00166043 8.75218 0.037164 8.48967 0.0994361C7.96465 0.22398 7.46717 0.457117 7.03085 0.749152C6.09967 1.37204 5.43377 2.16047 4.63544 2.44235C3.82041 2.72992 2.79323 2.47054 2.21189 1.83107C2.16948 1.78439 2.11829 1.74653 2.06125 1.71963C2.0042 1.69274 1.94241 1.67735 1.87942 1.67434C1.81642 1.67132 1.75345 1.68075 1.6941 1.70208C1.63474 1.72341 1.58017 1.75622 1.5335 1.79864C1.48684 1.84106 1.44898 1.89226 1.4221 1.94932C1.39522 2.00637 1.37984 2.06816 1.37685 2.13116C1.37385 2.19415 1.38329 2.25712 1.40464 2.31647C1.42598 2.37582 1.4588 2.43038 1.50124 2.47704C2.35997 3.42164 3.7512 3.7728 4.95514 3.34801C6.08457 2.94923 6.79622 2.0608 7.56431 1.547C7.56463 1.547 7.56494 1.547 7.56525 1.547C8.26612 1.0779 9.12933 0.83639 9.86973 1.03041C10.1886 1.11397 10.5711 1.38771 10.841 1.74107C11.084 2.05919 11.1859 2.41827 11.1945 2.71517C10.9738 2.78346 10.7418 2.82838 10.5232 3.05269C10.5232 3.053 10.5232 3.05331 10.5232 3.05363C10.0736 3.51567 10.1035 4.12194 10.1285 4.54432C10.1531 4.95164 10.3151 5.33458 10.4632 5.72374C10.5747 6.01686 10.665 6.27752 10.7201 6.46909C10.1178 6.69954 9.47557 6.96268 8.81593 7.24725C8.28123 6.66216 7.45391 6.48691 7.3543 6.46815C7.26406 6.45231 7.17392 6.45986 7.08992 6.49346C5.52889 7.10981 2.72439 8.45158 1.47874 10.509C1.20416 10.9626 1.40714 11.3324 1.64187 11.7606C1.67002 11.8121 1.7067 11.881 1.73937 11.9415C0.931858 13.2528 0.485639 14.8084 0.330249 16.2992C0.082314 18.6822 0.440107 21.0232 0.532758 23.3008C0.658966 26.4134 0.311969 29.5522 0.0658626 32.7165C0.0215471 33.2873 -0.0220423 33.8788 0.0124228 34.4894C0.0124225 34.4897 0.0124225 34.49 0.0124228 34.4903C0.0181686 34.5895 0.025016 34.6226 0.0471113 34.7763C0.0692115 34.9299 0.103493 35.1403 0.155867 35.3903C0.260613 35.8904 0.435534 36.5463 0.724954 37.212C1.01437 37.8777 1.41841 38.5572 2.00563 39.0871C2.59286 39.6169 3.37869 39.9858 4.3298 39.9862C5.17991 39.9867 6.10752 39.9357 6.96522 39.5258C7.89108 39.083 8.53916 38.3179 9.10563 37.6076C10.7714 35.52 12.22 33.2594 13.4211 30.8742C13.846 30.0308 14.2329 29.2158 14.8078 28.6232C15.2774 28.1392 15.8991 27.7737 16.5638 27.4447C18.8805 26.2976 21.3775 25.6405 23.9413 25.5677C24.7168 26.8279 25.5452 28.2158 26.3179 29.466C26.5413 29.8272 26.7762 30.2077 27.0717 30.5686C27.0717 30.5689 27.0717 30.5692 27.0717 30.5695C28.0094 31.7142 29.4581 32.4409 30.9616 32.3808C32.4753 32.3204 33.9307 31.4276 34.5683 30.0267C34.9936 29.0916 35.0134 28.0871 34.9958 27.1709C34.8671 20.3422 32.5419 13.6388 28.8859 7.90071C28.6505 7.53107 27.7765 6.38396 26.062 5.43217C25.9623 5.37681 25.8542 5.32442 25.7489 5.27091C25.6815 5.04441 25.4209 4.26533 24.9079 4.03429C24.6799 3.93109 24.4541 3.87384 24.2357 3.8196C24.1507 3.798 24.0656 3.77751 23.9807 3.75303C23.6096 3.64599 21.6177 3.20363 20.9336 3.20363H20.928C20.6323 3.20459 20.264 3.20528 19.9145 3.3752C19.592 3.53233 19.3108 3.86243 19.2648 4.2518C18.9776 4.28567 18.6862 4.32495 18.3854 4.37837C17.4328 4.54763 16.4858 4.75453 15.5437 4.98402C15.5422 4.98151 15.5406 4.97901 15.539 4.97652C15.1652 4.37391 14.2638 3.36864 13.6958 2.93362C13.4458 2.74227 13.1387 2.53931 12.747 2.46016C12.5113 2.41257 12.3434 2.4934 12.1367 2.5211C12.0828 2.02787 11.9065 1.55382 11.6042 1.15792C11.2242 0.660442 10.7096 0.258705 10.1125 0.102249C9.83971 0.0307496 9.56502 -0.00154678 9.29314 5.68228e-05ZM12.3823 3.38739C12.4456 3.38621 12.504 3.39062 12.5577 3.40145C12.7218 3.43463 12.9115 3.54254 13.1117 3.69584C13.3836 3.90406 14.1615 4.7579 14.5368 5.2381C13.8577 5.42088 13.1844 5.62456 12.5155 5.84187C11.9505 4.92264 11.6943 4.02553 11.5892 3.5524C11.6278 3.54036 11.6543 3.52778 11.6979 3.51583C11.9605 3.44376 12.1924 3.39094 12.3823 3.38739ZM23.2203 5.37217C24.1526 5.58645 24.9434 5.90992 25.596 6.2722C27.139 7.12878 27.9536 8.22438 28.0758 8.41636C28.0758 8.41667 28.0758 8.41698 28.0758 8.4173C31.6489 14.025 33.911 20.5663 34.0358 27.1887C34.0527 28.0717 34.0142 28.9264 33.6945 29.6292C33.3131 30.4671 32.4788 31.0919 31.5597 31.3224C30.8981 30.8349 29.8724 29.8017 28.9346 27.7222C27.8887 25.4027 27.7516 23.7883 25.1826 23.6064C22.6135 23.4245 18.5205 24.9472 16.3378 25.7205C14.1552 26.4939 12.2295 28.783 11.1682 30.9052C10.1069 33.0273 8.80387 36.3626 6.37832 37.181C3.95278 38 3.16463 35.6048 3.31632 33.6343C3.468 31.6634 3.28601 30.0257 3.61914 26.3271C3.95228 22.6286 2.76984 18.3839 3.28538 14.261C3.44522 12.9846 2.51245 11.7592 8.54967 9.07639C13.8265 6.73144 20.275 5.32499 23.2203 5.37217ZM24.0866 8.58043C23.9362 8.57716 23.7929 8.60633 23.6628 8.66668C23.5116 8.73435 23.3806 8.8425 23.2773 8.9849C23.174 9.12729 23.1004 9.3011 23.061 9.49631C23.0215 9.69151 23.0168 9.90424 23.0472 10.1222C23.0776 10.3402 23.1425 10.5591 23.2382 10.7664C23.3338 10.9736 23.4583 11.165 23.6044 11.3296C23.7505 11.4942 23.9154 11.6286 24.0896 11.7253C24.2637 11.8219 24.4437 11.8787 24.619 11.8925C24.7944 11.9063 24.9617 11.8767 25.1113 11.8056C25.3803 11.682 25.5804 11.4314 25.6761 11.0981C25.7718 10.7649 25.7571 10.3704 25.6344 9.98437C25.5118 9.59837 25.2892 9.24574 25.0059 8.98883C24.7227 8.73192 24.397 8.58726 24.0866 8.58043ZM27.7017 11.0593C27.5623 11.0523 27.4301 11.0767 27.3108 11.1315C27.1733 11.1949 27.0556 11.2974 26.9642 11.4333C26.8729 11.5692 26.8098 11.7358 26.7785 11.9234C26.7472 12.1111 26.7483 12.3163 26.7818 12.5272C26.8153 12.7381 26.8805 12.9507 26.9737 13.1527C27.0669 13.3548 27.1863 13.5423 27.325 13.7047C27.4637 13.8671 27.6191 14.0012 27.7822 14.0992C27.9453 14.1973 28.1129 14.2574 28.2756 14.2761C28.4383 14.2949 28.5928 14.2719 28.7302 14.2085C28.977 14.0946 29.1567 13.8563 29.2375 13.5355C29.3184 13.2148 29.2953 12.8323 29.1723 12.4556C29.0492 12.0788 28.8342 11.7321 28.5651 11.4766C28.2961 11.2211 27.9903 11.0733 27.7017 11.0593ZM21.9031 12.2706C21.7422 12.2687 21.5884 12.3007 21.4484 12.3653C21.1264 12.5187 20.8976 12.8364 20.8118 13.2494C20.7259 13.6624 20.7899 14.1372 20.9899 14.5705C21.1899 15.0038 21.5096 15.3605 21.8795 15.5631C22.2495 15.7657 22.6397 15.7978 22.9653 15.6523C23.2546 15.5185 23.4715 15.2521 23.5775 14.9003C23.6836 14.5485 23.6721 14.1339 23.5451 13.7295C23.4181 13.3251 23.1837 12.9569 22.8833 12.69C22.5828 12.4231 22.2357 12.2746 21.9031 12.2706ZM10.6676 12.4243C10.0709 12.4119 9.24431 12.8423 9.1075 13.2606C8.89102 13.9197 9.83504 16.1033 9.83504 16.1033C9.83504 16.1033 7.9022 16.5806 7.6065 17.1946C7.31081 17.8085 7.88747 18.6948 8.37997 19.1278C8.94832 19.6279 10.722 18.8549 10.722 18.8549C10.722 18.8549 11.4493 20.9241 11.8582 21.5832C12.2672 22.2423 14.2916 21.5838 13.7915 20.0372C13.2913 18.4905 13.1474 18.1368 13.1474 18.1368C13.1474 18.1368 14.8228 17.8147 15.0618 17.0577C15.2534 16.4504 14.7235 15.057 14.1777 15.057C13.6319 15.057 12.4039 15.3757 12.4039 15.3757C12.4039 15.3757 11.6087 13.0792 11.1542 12.6015C11.0405 12.4821 10.8665 12.4285 10.6676 12.4243ZM25.9701 14.9285C25.9103 14.9316 25.8514 14.9404 25.7939 14.9548C25.6331 14.9941 25.4848 15.0764 25.3574 15.1968C25.23 15.3172 25.126 15.4734 25.0514 15.6564C24.9768 15.8394 24.9331 16.0456 24.9228 16.2631C24.9125 16.4807 24.9358 16.7052 24.9914 16.9238C25.047 17.1425 25.1337 17.3509 25.2466 17.5371C25.3595 17.7233 25.4964 17.8836 25.6493 18.0088C25.8022 18.134 25.9682 18.2216 26.1376 18.2666C26.3071 18.3115 26.4767 18.313 26.6367 18.2709C26.9432 18.1914 27.1978 17.9568 27.3494 17.6141C27.5009 17.2714 27.5383 16.846 27.4539 16.4231C27.3696 16.0002 27.1698 15.6111 26.8946 15.3339C26.6194 15.0568 26.2892 14.9119 25.9701 14.9285Z" fill="black"/>
</svg>
