<svg width="27" height="30" viewBox="0 0 27 30" fill="none" xmlns="http://www.w3.org/2000/svg">
<path d="M8.4 0C7.074 0 6 1.074 6 2.4V21.6C6 22.926 7.074 24 8.4 24H24C25.326 24 26.4 22.926 26.4 21.6V7.8C26.4 7.482 26.274 7.17716 26.0484 6.95156L19.4484 0.351562C19.2228 0.125962 18.918 0 18.6 0H8.4ZM18 2.28516L24.1148 8.4H19.2C18.5376 8.4 18 7.8624 18 7.2V2.28516ZM2.4 6C1.074 6 0 7.074 0 8.4V27.6C0 28.926 1.074 30 2.4 30H18C19.326 30 20.4 28.926 20.4 27.6V26.4H8.4C5.7528 26.4 3.6 24.2472 3.6 21.6V6H2.4Z" fill="white"/>
</svg>
