<svg width="40" height="40" viewBox="0 0 40 40" fill="none" xmlns="http://www.w3.org/2000/svg">
<path d="M31.1247 39.9789L8.91419 40C4.02788 40.0044 0.0266564 36.011 0.0211037 31.1247L3.70228e-06 8.91419C-0.0044384 4.02788 3.98901 0.0266564 8.87532 0.0211037L31.0858 3.70228e-06C35.9721 -0.0044384 39.9733 3.98901 39.9789 8.87532L40 31.0858C40.0055 35.9732 36.011 39.9745 31.1247 39.9789Z" fill="url(#paint0_radial_239_3819)"/>
<path d="M31.1247 39.9789L8.91419 40C4.02788 40.0044 0.0266564 36.011 0.0211037 31.1247L3.70228e-06 8.91419C-0.0044384 4.02788 3.98901 0.0266564 8.87532 0.0211037L31.0858 3.70228e-06C35.9721 -0.0044384 39.9733 3.98901 39.9789 8.87532L40 31.0858C40.0055 35.9732 36.011 39.9745 31.1247 39.9789Z" fill="url(#paint1_radial_239_3819)"/>
<path d="M20.0006 27.7742C15.715 27.7742 12.2269 24.2872 12.2269 20.0005C12.2269 15.7139 15.715 12.2269 20.0006 12.2269C24.2861 12.2269 27.7742 15.7139 27.7742 20.0005C27.7742 24.2872 24.2861 27.7742 20.0006 27.7742ZM20.0006 14.4479C16.9388 14.4479 14.4479 16.9388 14.4479 20.0005C14.4479 23.0623 16.9388 25.5532 20.0006 25.5532C23.0623 25.5532 25.5532 23.0623 25.5532 20.0005C25.5532 16.9388 23.0623 14.4479 20.0006 14.4479Z" fill="white"/>
<path d="M28.3295 13.3374C29.2495 13.3374 29.9953 12.5916 29.9953 11.6716C29.9953 10.7517 29.2495 10.0059 28.3295 10.0059C27.4095 10.0059 26.6637 10.7517 26.6637 11.6716C26.6637 12.5916 27.4095 13.3374 28.3295 13.3374Z" fill="white"/>
<path d="M26.6637 34.4374H13.3374C9.05189 34.4374 5.56374 30.9503 5.56374 26.6637V13.3374C5.56374 9.05077 9.05189 5.56372 13.3374 5.56372H26.6637C30.9492 5.56372 34.4374 9.05077 34.4374 13.3374V26.6637C34.4374 30.9503 30.9492 34.4374 26.6637 34.4374ZM13.3374 7.78477C10.2757 7.78477 7.78479 10.2757 7.78479 13.3374V26.6637C7.78479 29.7254 10.2757 32.2163 13.3374 32.2163H26.6637C29.7254 32.2163 32.2163 29.7254 32.2163 26.6637V13.3374C32.2163 10.2757 29.7254 7.78477 26.6637 7.78477H13.3374Z" fill="white"/>
<defs>
<radialGradient id="paint0_radial_239_3819" cx="0" cy="0" r="1" gradientUnits="userSpaceOnUse" gradientTransform="translate(14.8699 40.0289) scale(49.8614 49.8614)">
<stop stop-color="#FFDD55"/>
<stop offset="0.328" stop-color="#FF543F"/>
<stop offset="0.348" stop-color="#FC5245"/>
<stop offset="0.504" stop-color="#E64771"/>
<stop offset="0.643" stop-color="#D53E91"/>
<stop offset="0.761" stop-color="#CC39A4"/>
<stop offset="0.841" stop-color="#C837AB"/>
</radialGradient>
<radialGradient id="paint1_radial_239_3819" cx="0" cy="0" r="1" gradientUnits="userSpaceOnUse" gradientTransform="translate(6.4366 -0.499397) scale(33.1081 22.0599)">
<stop stop-color="#4168C9"/>
<stop offset="0.999" stop-color="#4168C9" stop-opacity="0"/>
</radialGradient>
</defs>
</svg>
