<?xml version="1.0" encoding="UTF-8"?>
<svg id="Layer_1" data-name="Layer 1" xmlns="http://www.w3.org/2000/svg" xmlns:xlink="http://www.w3.org/1999/xlink" viewBox="0 0 258.32 34.35">
  <defs>
    <style>
      .cls-1 {
        fill: #711335;
      }

      .cls-2 {
        fill: url(#linear-gradient-2);
      }

      .cls-3 {
        fill: #a02e3c;
      }

      .cls-4 {
        fill: #bb3d40;
      }

      .cls-5 {
        fill: #570f1f;
      }

      .cls-6 {
        fill: #b53c3f;
      }

      .cls-7 {
        opacity: .39;
      }

      .cls-8 {
        fill: #8d243c;
      }

      .cls-9 {
        fill: #932736;
        opacity: .68;
      }

      .cls-10 {
        fill: none;
      }

      .cls-11 {
        fill: #e27841;
      }

      .cls-12 {
        fill: url(#linear-gradient);
      }

      .cls-13 {
        fill: #f7ac5a;
      }
    </style>
    <linearGradient id="linear-gradient" x1="128.42" y1="-3.96" x2="129.9" y2="38.31" gradientUnits="userSpaceOnUse">
      <stop offset=".02" stop-color="#f08745"/>
      <stop offset=".5" stop-color="#ea5c3d"/>
      <stop offset="1" stop-color="#6f1334"/>
    </linearGradient>
    <linearGradient id="linear-gradient-2" x1="2.29" y1="17.17" x2="256.03" y2="17.17" gradientUnits="userSpaceOnUse">
      <stop offset="0" stop-color="#d35e36"/>
      <stop offset="1" stop-color="#bd4b58"/>
    </linearGradient>
  </defs>
  <path class="cls-12" d="m255.87,19.41l2.43-1.3c.01-.31.02-.62.02-.93h0c0-9.49-6.76-17.17-15.11-17.17h-26.82l-2.51,1.74-.93-1.74h-30.64l-2.22,1.74-1.92-1.74h-40.36l-2.94,1.74-3.31-1.74h-21.39l-3.15,1.74-3.51-1.74h-35.63l-.91,1.74-.24-1.74h-29.06l-.64.67-.27-.67H15.87l-.85,1.74L14.34.02C8.44.36,3.44,4.54,1.22,10.4h.97l-1.25.81c-.61,1.86-.94,3.87-.94,5.96h0c0,.71.04,1.4.11,2.09l1.24.38-1.01,1.19c1.48,7.73,7.52,13.51,14.76,13.51h2.45l1.69-2.43,2.36,2.43h16.52l1.61-1.54,1.27,1.54h40.7l1.11-2.43,1.5,2.43h54.09l4.91-1.07,4.8.92,4.38-.92.63,1.07h11.44l1.18-1.07,2.06,1.07h58.27l.64-1.07,2.28,1.07h13.02l-1.22-2.34,2.53,2.34c7.63-.07,13.9-6.55,14.86-14.94h-2.32Z"/>
  <g>
    <path class="cls-2" d="m253.62,19.1l2.39-1.12c.01-.27.02-.54.02-.81h0c0-8.2-6.64-14.84-14.84-14.84h-26.34l-2.47,1.5-.92-1.5h-30.1l-2.18,1.5-1.89-1.5h-39.64l-2.89,1.5-3.25-1.5h-21.01l-3.09,1.5-3.45-1.5h-35l-.89,1.5-.23-1.5h-28.54l-.63.58-.27-.58h-20.51l-.84,1.5-.67-1.48c-5.79.29-10.7,3.9-12.88,8.96h.95l-1.23.7c-.59,1.61-.92,3.34-.92,5.15h0c0,.61.04,1.21.11,1.8l1.22.33-.99,1.03c1.45,6.68,7.39,11.68,14.5,11.68h2.41l1.66-2.1,2.32,2.1h16.23l1.58-1.33,1.25,1.33h39.98l1.09-2.1,1.48,2.1h53.13l4.82-.92,4.71.79,4.3-.79.61.92h11.24l1.16-.92,2.02.92h57.24l.63-.92,2.24.92h12.79l-1.2-2.02,2.49,2.02c7.49-.06,13.66-5.66,14.6-12.91h-2.28Z"/>
    <g class="cls-7">
      <path class="cls-10" d="m70.35,19.03c23.95-.99,47.9-2.03,71.85-3.17,5.86-.28,11.73-.56,17.59-.85,3.05-.15,6.11-.3,9.16-.46,1.06-.06,2.13-.14,3.14-.48.66-.22,2.11-.87,2.11-1.76,0-1.09-2.04-1.18-2.76-1.16-1.27.02-2.54.25-3.8.4-2.89.34-5.77.68-8.66,1.02-5.89.7-11.78,1.4-17.68,2.04-11.78,1.27-23.61,2.33-35.45,2.58-11.68.24-23.35-.31-35-1.02-11.77-.72-23.53-1.59-35.31-1.93-11.05-.32-22.1-.07-33.11.92-.09.66-.14,1.34-.14,2.03h0c0,.61.04,1.21.11,1.8l1.22.33-.99,1.03c.1.48.23.95.38,1.4,10.6-.33,21.2-.83,31.8-1.26,11.84-.48,23.69-.97,35.53-1.45Z"/>
      <path class="cls-10" d="m98.13,26.08c7.88-.19,15.77-.07,23.65-.04,15.76.06,31.56-.23,47.01-3.64,7.61-1.68,15.11-3.75,22.8-5.09,7.59-1.32,15.27-2.12,22.96-2.58,13.74-.82,27.53-.64,41.28,0-.26-1.58-.77-3.07-1.49-4.44-16.26,1.1-32.5,1.88-48.8,2.27-4.35.1-8.73.3-13.03,1.04-4.03.69-7.87,2.03-11.77,3.23-3.89,1.2-7.83,1.97-11.9,2.22-4.21.26-8.43.08-12.63-.06-8.48-.27-16.87.2-25.29,1.25-8.44,1.05-16.82,2.5-25.25,3.61-16.91,2.23-33.85,1.98-50.87,1.58-16.24-.38-32.46-.45-48.57,1.82,2.71,2.94,6.59,4.79,10.91,4.79h2.41l1.66-2.1,2.32,2.1h16.23l1.58-1.33,1.25,1.33h8.49c7.37-2.86,15.74-3.64,23.37-4.39,7.88-.77,15.78-1.36,23.69-1.55Z"/>
      <path class="cls-10" d="m34.88,24.55c8.49-.12,16.98.11,25.47.27,8.58.16,17.16.27,25.73-.09,8.63-.36,17.18-1.37,25.72-2.64,8.36-1.25,16.71-2.66,25.12-3.49,4.18-.42,8.37-.69,12.57-.74,4.23-.05,8.45.18,12.68.24,4.31.05,8.64-.08,12.88-.93,4.05-.82,7.9-2.34,11.86-3.48,8.03-2.32,16.38-2.3,24.66-2.47,14.03-.29,28.07-1.05,42.07-2.11-1.14-1.75-2.63-3.24-4.39-4.38-6.7.58-13.25,2.33-19.86,3.5-8.14,1.44-16.31,1.42-24.53.84-8.48-.61-16.92-1.48-25.42-1.73-8.39-.25-16.77-.1-25.16.25-16.89.7-33.73,2.22-50.6,3.2-16.89.98-33.71,1.17-50.59-.16-16.02-1.26-32.08-3.02-48.16-1.88-.56.81-1.04,1.67-1.43,2.58h.95l-1.23.7c-.34.91-.58,1.86-.74,2.84,2.04-.28,4.08-.53,6.13-.7,23.99-1.94,48.02.52,71.99,1.57,12.05.53,24.09.57,36.13-.1,12.08-.68,24.11-1.96,36.13-3.34,5.96-.68,11.92-1.55,17.89-2.06,1.43-.12,3.78-.03,4.34,1.65.54,1.63-1.88,2.85-3.09,3.19-2.37.66-5.02.52-7.46.64-3.05.16-6.11.31-9.16.47-6.11.31-12.22.61-18.32.9-24.43,1.18-48.87,2.25-73.31,3.33-12.2.54-24.41,1.08-36.61,1.62-6.09.27-12.18.54-18.26.81-1.78.08-3.56.17-5.34.27.62,1.42,1.45,2.72,2.46,3.86,1.26-.24,2.53-.47,3.79-.68,8.26-1.34,16.73-1.64,25.09-1.76Z"/>
      <path class="cls-10" d="m249.88,25.5c-3.17-.64-6.39-.97-9.62-1.06-2.97-.08-5.94,0-8.92.06-2.94.06-5.87.12-8.81.18-5.93.12-11.88.05-17.8.44-5.47.36-10.89,1.29-16.15,2.82-3.78,1.1-7.5,2.45-11.1,4.06h46.87l.63-.92,2.24.92h12.79l-1.2-2.02,2.49,2.02c4.75-.04,8.96-2.3,11.65-5.8-1.02-.26-2.04-.5-3.07-.71Z"/>
      <path class="cls-10" d="m179.32,20.75c-5.18,1.26-10.35,2.6-15.6,3.57-15.11,2.79-30.54,2.76-45.85,2.72-15.7-.03-31.31.62-46.94,2.22-5.3.54-10.62,1.26-15.75,2.75h27.37l1.09-2.1,1.48,2.1h53.13l4.82-.92,4.71.79,4.3-.79.61.92h4.12c3.82-2.72,7.86-5.12,12.09-7.14,3.38-1.62,6.85-2.99,10.4-4.12Z"/>
      <path class="cls-10" d="m206.66,23.75c5.94-.36,11.9-.42,17.84-.53,3.06-.06,6.12-.11,9.19-.17,2.97-.05,5.93-.08,8.9.11,3.78.24,7.5.96,11.13,1.97,1.14-1.79,1.91-3.83,2.19-6.03h-2.28l2.39-1.12c.01-.27.02-.54.02-.81h0c0-.55-.03-1.09-.09-1.62-6.92.28-13.84.4-20.76.57-8.01.2-16.02.31-24.02.72-7.81.4-15.63,1.15-23.27,2.84-7.15,1.58-14.08,4.04-20.57,7.45-2.8,1.47-5.5,3.11-8.1,4.89h4.72l1.16-.92,2.02.92h9.1c4.38-2.35,8.97-4.23,13.78-5.57,5.44-1.52,11.02-2.35,16.65-2.69Z"/>
      <path class="cls-10" d="m238.02,15.13c2.38-.05,4.76-.09,7.14-.14-11.93-.12-23.84-.2-35.76.81-.59.05-1.18.11-1.77.16,1.97-.12,3.94-.21,5.9-.29,8.16-.31,16.33-.39,24.49-.54Z"/>
      <path class="cls-10" d="m59.63,9.98c16.86.91,33.76.24,50.6-.82,16.86-1.06,33.7-2.49,50.6-2.93,8.46-.22,16.94-.21,25.4.22,8.49.43,16.94,1.48,25.44,1.7,4.19.11,8.39.01,12.56-.48,4.08-.49,8.11-1.37,12.13-2.23,3.45-.74,6.89-1.51,10.38-2.03-1.71-.69-3.58-1.07-5.54-1.07h-26.34l-2.47,1.5-.92-1.5h-30.1l-2.18,1.5-1.89-1.5h-39.64l-2.89,1.5-3.25-1.5h-21.01l-3.09,1.5-3.45-1.5h-35l-.89,1.5-.23-1.5h-28.54l-.63.58-.27-.58h-20.51l-.84,1.5-.67-1.48c-4.59.23-8.63,2.55-11.19,6.03,1.22-.14,2.45-.26,3.68-.36,16.9-1.38,33.9,1.05,50.77,1.96Z"/>
      <path class="cls-3" d="m53.09,10.62c16.88,1.32,33.7,1.13,50.59.16,16.87-.97,33.71-2.49,50.6-3.2,8.38-.35,16.77-.49,25.16-.25,8.5.25,16.94,1.12,25.42,1.73,8.22.59,16.39.61,24.53-.84,6.61-1.17,13.17-2.93,19.86-3.5-.79-.51-1.63-.95-2.52-1.31-3.49.52-6.93,1.29-10.38,2.03-4.02.86-8.04,1.74-12.13,2.23-4.17.5-8.37.59-12.56.48-8.5-.23-16.95-1.27-25.44-1.7-8.46-.43-16.94-.44-25.4-.22-16.89.44-33.74,1.87-50.6,2.93-16.84,1.06-33.74,1.73-50.6.82-16.86-.91-33.87-3.34-50.77-1.96-1.23.1-2.45.23-3.68.36-.09.12-.17.23-.26.35,16.07-1.14,32.14.62,48.16,1.88Z"/>
      <path class="cls-3" d="m27.14,22.04c12.2-.54,24.41-1.08,36.61-1.62,24.44-1.09,48.88-2.16,73.31-3.33,6.11-.29,12.22-.59,18.32-.9,3.05-.15,6.11-.31,9.16-.47,2.44-.13,5.08.02,7.46-.64,1.2-.34,3.63-1.56,3.09-3.19-.56-1.68-2.91-1.77-4.34-1.65-5.97.52-11.94,1.38-17.89,2.06-12.02,1.38-24.05,2.67-36.13,3.34-12.04.68-24.08.63-36.13.1-23.97-1.05-48-3.52-71.99-1.57-2.05.17-4.09.41-6.13.7-.01.09-.03.19-.04.28,11.01-1,22.06-1.25,33.11-.92,11.79.34,23.55,1.22,35.31,1.93,11.65.71,23.32,1.26,35,1.02,11.85-.24,23.68-1.31,35.45-2.58,5.9-.64,11.79-1.33,17.68-2.04,2.89-.34,5.77-.69,8.66-1.02,1.26-.15,2.53-.37,3.8-.4.71-.01,2.75.07,2.76,1.16,0,.89-1.45,1.54-2.11,1.76-1.01.34-2.08.42-3.14.48-3.05.16-6.11.31-9.16.46-5.86.29-11.73.58-17.59.85-23.95,1.14-47.89,2.19-71.85,3.17-11.84.49-23.69.97-35.53,1.45-10.6.43-21.2.93-31.8,1.26.15.47.33.93.52,1.38,1.78-.1,3.56-.19,5.34-.27,6.09-.27,12.18-.54,18.26-.81Z"/>
      <path class="cls-3" d="m54.79,25.41c17.02.4,33.95.65,50.87-1.58,8.43-1.11,16.81-2.56,25.25-3.61,8.42-1.05,16.81-1.52,25.29-1.25,4.21.14,8.43.31,12.63.06,4.07-.25,8-1.02,11.9-2.22,3.9-1.2,7.73-2.54,11.77-3.23,4.3-.74,8.67-.93,13.03-1.04,16.3-.39,32.54-1.17,48.8-2.27-.21-.41-.45-.8-.7-1.19-14,1.07-28.05,1.82-42.07,2.11-8.28.17-16.63.15-24.66,2.47-3.96,1.14-7.81,2.66-11.86,3.48-4.23.85-8.57.98-12.88.93-4.23-.05-8.45-.28-12.68-.24-4.2.05-8.39.32-12.57.74-8.42.84-16.76,2.24-25.12,3.49-8.54,1.28-17.09,2.28-25.72,2.64-8.57.36-17.16.25-25.73.09-8.49-.16-16.98-.38-25.47-.27-8.35.11-16.83.41-25.09,1.76-1.27.21-2.53.44-3.79.68.07.09.15.17.23.25,16.1-2.27,32.33-2.2,48.57-1.82Z"/>
      <path class="cls-3" d="m187.89,19.68c7.65-1.69,15.46-2.44,23.27-2.84,8-.41,16.01-.52,24.02-.72,6.92-.17,13.84-.28,20.76-.57-.03-.28-.07-.56-.12-.83-13.75-.63-27.54-.81-41.28,0-7.69.46-15.37,1.26-22.96,2.58-7.68,1.33-15.19,3.41-22.8,5.09-15.45,3.41-31.25,3.7-47.01,3.64-7.88-.03-15.77-.15-23.65.04-7.92.19-15.81.77-23.69,1.55-7.63.75-16.01,1.53-23.37,4.39h4.12c5.12-1.49,10.45-2.21,15.75-2.75,15.63-1.6,31.24-2.26,46.94-2.22,15.31.03,30.73.06,45.85-2.72,5.25-.97,10.42-2.31,15.6-3.57-3.55,1.14-7.03,2.51-10.4,4.12-4.23,2.03-8.27,4.42-12.09,7.14h2.4c2.6-1.78,5.3-3.42,8.1-4.89,6.49-3.41,13.42-5.86,20.57-7.45Zm21.5-3.88c11.92-1.01,23.83-.93,35.76-.81-2.38.05-4.76.09-7.14.14-8.16.16-16.33.23-24.49.54-1.97.08-3.94.17-5.9.29.59-.05,1.18-.11,1.77-.16Z"/>
      <path class="cls-3" d="m204.74,25.14c5.92-.39,11.87-.32,17.8-.44,2.94-.06,5.87-.12,8.81-.18,2.97-.06,5.94-.14,8.92-.06,3.23.09,6.45.41,9.62,1.06,1.03.21,2.05.45,3.07.71.27-.35.52-.71.76-1.08-3.64-1.01-7.35-1.72-11.13-1.97-2.96-.19-5.93-.16-8.9-.11-3.06.05-6.12.11-9.19.17-5.94.11-11.91.16-17.84.53-5.63.34-11.21,1.18-16.65,2.69-4.81,1.34-9.4,3.22-13.78,5.57h1.26c3.6-1.61,7.32-2.96,11.1-4.06,5.27-1.54,10.68-2.46,16.15-2.82Z"/>
    </g>
    <g>
      <polygon class="cls-3" points="44.1 31.23 49.85 28.68 58.15 29.5 62.98 28.55 71.37 29.47 63.19 29.16 57.97 30.15 50.2 29.89 44.1 31.23"/>
      <polygon class="cls-11" points="44.1 31.23 50.2 29.89 57.97 30.15 63.19 29.16 57.89 29.96 50.11 29.5 44.1 31.23"/>
    </g>
    <g>
      <polygon class="cls-3" points="191 7.48 198 4.38 208.12 5.37 214.01 4.22 224.24 5.34 214.26 4.95 207.9 6.17 198.44 5.85 191 7.48"/>
      <polygon class="cls-11" points="191 7.48 198.44 5.85 207.9 6.17 214.26 4.95 207.81 5.93 198.33 5.37 191 7.48"/>
    </g>
    <g>
      <polygon class="cls-3" points="200.65 31.19 213.93 28.74 233.53 31.43 213.77 29.76 200.65 31.19"/>
      <polygon class="cls-11" points="200.65 31.19 213.55 29.79 233.53 31.43 213.59 29.58 200.65 31.19"/>
    </g>
    <g>
      <polygon class="cls-3" points="13.78 28.28 15.89 27.35 17.74 27.99 15.5 29.12 13.78 28.28"/>
      <polygon class="cls-11" points="13.78 28.28 15.5 29.12 17.74 27.99 15.49 28.69 13.78 28.28"/>
    </g>
    <g>
      <polygon class="cls-3" points="7.98 8.72 26.78 3.76 42.03 3.92 26.78 5.11 7.98 8.72"/>
      <polygon class="cls-11" points="7.98 8.72 26.78 5.11 42.03 3.92 26.78 4.56 7.98 8.72"/>
    </g>
    <g>
      <polygon class="cls-3" points="86.31 8.69 94.74 4.86 102.74 6.42 107.01 6.7 102.24 7.72 94.78 6.7 86.31 8.69"/>
      <polygon class="cls-11" points="107.01 6.7 102.24 7.72 94.78 6.7 86.31 8.69 94.81 6.24 102.12 7.37 107.01 6.7"/>
    </g>
  </g>
  <g>
    <rect class="cls-9" x="11.51" y="8.05" width="235.3" height="18.25" rx="4.08" ry="4.08"/>
    <path class="cls-11" d="m242.73,25.56H15.59c-2.25,0-4.08-1.83-4.08-4.08v.74c0,2.25,1.83,4.08,4.08,4.08h227.14c2.25,0,4.08-1.83,4.08-4.08v-.74c0,2.25-1.83,4.08-4.08,4.08Z"/>
    <path class="cls-1" d="m242.73,8.05H15.59c-2.25,0-4.08,1.83-4.08,4.08v1.34c0-2.25,1.83-4.08,4.08-4.08h227.14c2.25,0,4.08,1.83,4.08,4.08v-1.34c0-2.25-1.83-4.08-4.08-4.08Z"/>
  </g>
  <polygon class="cls-5" points="226.08 34.35 224.36 32.01 224.99 31.09 227.23 32.01 229 34.35 226.72 33.28 226.08 34.35"/>
  <polygon class="cls-5" points="238.82 29.99 240.02 32.01 242.02 34.35 240.8 32.01 238.82 29.99"/>
  <polygon class="cls-5" points="164.57 34.35 165.75 33.28 167.81 34.35 167.12 32.01 165.1 31.09 163.94 32.01 164.57 34.35"/>
  <polygon class="cls-5" points="152.7 32.01 152.09 31.09 152.5 33.28 153.13 34.35 152.7 32.01"/>
  <polygon class="cls-5" points="81.71 34.35 82.82 31.92 83.64 29.91 82.55 32.01 81.71 34.35"/>
  <polygon class="cls-5" points="39.75 32.01 41.33 30.68 39.74 32.81 38.13 34.35 39.75 32.01"/>
  <polygon class="cls-3" points="143.07 31.09 147.78 31.89 148.12 34.2 143.32 33.28 143.07 31.09"/>
  <polygon class="cls-4" points="85.12 32.01 83.64 29.91 82.82 31.92 84.33 34.35 85.12 32.01"/>
  <polygon class="cls-4" points="41.33 30.68 42.58 32.01 41.01 34.35 39.74 32.81 41.33 30.68"/>
  <polygon class="cls-4" points="21.61 34.35 19.54 32.01 21.2 29.91 23.36 32.01 21.61 34.35"/>
  <polygon class="cls-8" points="258.3 18.11 255.87 19.41 255.9 19.1 253.62 19.1 256.01 17.98 258.3 18.11"/>
  <polygon class="cls-8" points="3.62 19.31 2.41 18.98 .11 19.26 1.36 19.65 3.62 19.31"/>
  <polygon class="cls-6" points="1.22 10.4 2.19 10.4 3.5 11.32 4.44 11.32 3.21 12.02 .94 11.21 1.87 10.6 1.22 10.4"/>
  <polygon class="cls-6" points="216.4 0 214.85 2.34 212.38 3.84 213.89 1.74 216.4 0"/>
  <polygon class="cls-6" points="182.32 0 181.37 2.34 179.19 3.84 180.09 1.74 182.32 0"/>
  <polygon class="cls-6" points="137.81 0 137.66 2.34 134.77 3.84 134.87 1.74 137.81 0"/>
  <polygon class="cls-6" points="110.17 0 110.51 2.34 107.42 3.84 107.02 1.74 110.17 0"/>
  <polygon class="cls-6" points="67.88 0 68.96 2.34 68.07 3.84 67.84 2.34 66.97 1.74 67.88 0"/>
  <polygon class="cls-6" points="37.67 0 37.03 .67 38.4 2.34 38.67 2.92 39.3 2.34 37.67 0"/>
  <polygon class="cls-6" points="15.87 0 17.89 2.34 17.05 3.84 16.38 2.35 15.02 1.74 15.87 0"/>
  <polygon class="cls-13" points="107.42 3.84 107.02 1.74 103.51 0 103.96 2.34 107.42 3.84"/>
  <polygon class="cls-13" points="134.77 3.84 134.87 1.74 131.56 0 131.52 2.34 134.77 3.84"/>
  <polygon class="cls-13" points="179.19 3.84 180.09 1.74 178.17 0 177.3 2.34 179.19 3.84"/>
  <polygon class="cls-13" points="212.38 3.84 213.89 1.74 212.96 0 211.47 2.34 212.38 3.84"/>
</svg>