<svg width="49" height="62" viewBox="0 0 49 62" fill="none" xmlns="http://www.w3.org/2000/svg">
<path d="M6.63261 53.5192C6.63261 53.5192 7.51261 57.5392 8.04261 58.4892C8.57261 59.4292 17.4426 61.1392 23.7126 61.1392C29.9826 61.1392 39.6826 59.0692 40.1826 58.6292C40.6726 58.1892 41.7026 53.2092 41.7026 53.2092L6.63261 53.5192Z" fill="url(#paint0_linear_239_7661)"/>
<path d="M6.81262 52.7492C8.83262 49.3392 38.3326 48.8592 41.5326 52.7492C44.6326 56.5092 3.52262 58.3092 6.81262 52.7492Z" fill="#FF7A00"/>
<g style="mix-blend-mode:multiply" opacity="0.3">
<path d="M14.7626 60.3392C14.7626 60.3392 25.9726 60.6092 32.1126 58.8092C38.3526 56.9792 39.8926 54.9292 40.7926 54.0692C41.7026 53.2092 31.9626 50.0192 31.9626 50.0192L28.6826 49.3692C28.6826 49.3692 38.6926 52.7892 37.2426 55.0692C34.0626 60.0492 11.4626 59.6992 11.4626 59.6992L14.7626 60.3292V60.3392Z" fill="#B10053"/>
</g>
<g style="mix-blend-mode:multiply" opacity="0.3">
<path d="M7.57261 57.2392C7.57261 57.2392 15.2926 58.8492 16.3026 56.5392C17.3326 54.1792 7.34261 52.2392 7.34261 52.2392L7.75261 52.0092C7.75261 52.0092 20.6826 55.6192 16.9826 57.2392C13.3426 58.8492 8.54261 58.8292 8.54261 58.8292C8.54261 58.8292 7.86261 59.1992 7.57261 57.2392Z" fill="#B10053"/>
</g>
<path d="M20.2626 60.2792C20.2626 60.2792 26.4126 60.3692 30.8626 59.4392C35.3426 58.4992 38.6526 55.9292 38.6526 55.9292C38.6526 55.9292 33.0226 60.1892 20.2626 60.2792Z" fill="#FF6500"/>
<path d="M10.9126 58.6992C10.9126 58.6992 14.2326 58.4592 16.2326 57.7892C18.2526 57.1092 17.6026 56.3092 17.6026 56.3092C17.6026 56.3092 17.8426 57.0692 16.2726 57.6392C14.7126 58.2092 10.9026 58.6992 10.9026 58.6992H10.9126Z" fill="#FF6500"/>
<g style="mix-blend-mode:multiply" opacity="0.3">
<path d="M19.1426 56.4992C17.7026 56.5892 17.8626 57.8092 14.5526 58.8592C11.2626 59.8992 20.1626 59.6392 26.6926 58.6892C33.2826 57.7392 35.2326 56.5392 35.5326 55.9192C35.8326 55.3092 28.1826 56.2892 25.0026 56.2892C21.8226 56.2892 19.1426 56.4892 19.1426 56.4892V56.4992Z" fill="#D42F55"/>
</g>
<g style="mix-blend-mode:multiply" opacity="0.3">
<path d="M28.5526 60.6092C27.6626 60.2992 37.2126 57.5292 39.1726 55.9292C41.1726 54.3092 40.6126 57.4092 39.5126 58.2892C38.4226 59.1592 28.5426 60.5992 28.5426 60.5992L28.5526 60.6092Z" fill="#D42F55"/>
</g>
<g style="mix-blend-mode:soft-light" opacity="0.5">
<path d="M18.2726 56.2492C17.0426 56.2292 17.5326 55.5592 18.4426 54.9892C19.3626 54.4192 33.6726 54.4792 36.3126 54.5392C38.9526 54.6092 30.1526 56.4392 18.2726 56.2392V56.2492Z" fill="white"/>
</g>
<g style="mix-blend-mode:soft-light" opacity="0.5">
<path d="M7.59261 52.6592C6.68261 52.6292 7.15261 54.4392 8.95261 54.9992C10.7426 55.5592 14.5326 56.0092 15.2826 55.7292C16.0326 55.4492 12.5326 52.8192 7.59261 52.6592Z" fill="white"/>
</g>
<path d="M37.2826 27.0592C39.6926 24.5792 43.0826 13.5292 43.0826 13.5292L23.5726 15.9892L4.06261 13.5292C4.06261 13.5292 7.50261 24.5792 9.92261 27.0592C12.3026 29.4992 16.9526 31.2192 18.5826 34.6292C20.1626 37.9392 14.7226 39.8792 12.9326 43.5692C12.3726 44.7392 12.0326 46.1792 11.8326 47.5792C11.4326 50.4592 11.6126 53.1892 11.6126 53.1892C11.6126 53.1892 14.9126 54.5492 23.6526 54.5492C31.8726 54.5492 35.6926 53.1892 35.6926 53.1892C35.6926 53.1892 35.8326 50.9792 35.5526 48.4392C35.3726 46.7792 35.0126 44.9792 34.3326 43.5692C32.5426 39.8692 27.0826 37.9292 28.6526 34.6292C30.2626 31.2192 34.9226 29.4992 37.2826 27.0592ZM29.7026 41.3192C32.5326 44.6392 32.8026 50.6092 32.1326 51.9092C31.4726 53.1892 24.1426 53.2092 24.1426 53.2092C24.1426 53.2092 16.8126 53.1792 16.1626 51.9092C15.4926 50.6192 15.7626 44.6392 18.5926 41.3192C21.5026 37.8992 22.4426 36.2492 21.9026 33.2692C21.3526 30.2192 18.2526 29.8192 15.0026 27.7692C11.7126 25.6892 8.75261 16.6292 9.76261 14.9392L24.1426 16.3792L38.5326 14.9392C39.5426 16.6192 36.5926 25.6892 33.2926 27.7692C30.0426 29.8192 26.9426 30.2192 26.3926 33.2692C25.8426 36.2492 26.7826 37.8992 29.6926 41.3192H29.7026Z" fill="url(#paint1_linear_239_7661)"/>
<path d="M0.012619 5.19922C0.012619 5.19922 1.31262 11.1192 2.06262 12.4992C2.81262 13.8692 14.9726 16.3692 23.5526 16.3692C32.1326 16.3692 45.4426 13.3492 46.1226 12.7092C46.8126 12.0692 48.3326 4.72922 48.3326 4.72922L0.012619 5.19922Z" fill="url(#paint2_linear_239_7661)"/>
<path d="M0.242612 4.06923C2.95261 -1.00077 43.7726 -1.70077 48.1226 4.06923C52.2926 9.60923 -4.13739 12.2592 0.242612 4.06923Z" fill="#FF7A00"/>
<path opacity="0.5" d="M37.5526 21.1592C36.5326 23.9192 34.9726 26.7092 33.3026 27.7592C30.3126 29.6392 27.4626 30.1392 26.5926 32.5792C26.5126 32.7892 26.4526 33.0192 26.4126 33.2692C25.8626 36.2492 26.8026 37.8992 29.7126 41.3192C32.5426 44.6392 32.8126 50.6092 32.1426 51.9092C31.4826 53.1892 24.1526 53.2092 24.1526 53.2092C24.1526 53.2092 16.8226 53.1792 16.1726 51.9092C15.5026 50.6192 15.7726 44.6392 18.6026 41.3192C21.2226 38.2492 22.2426 36.5992 22.0326 34.1292C22.0026 33.8592 21.9726 33.5692 21.9126 33.2692C21.3626 30.2192 18.2626 29.8192 15.0126 27.7692C14.2626 27.2992 13.5326 26.4692 12.8726 25.4592C12.8626 25.4292 12.8526 25.4192 12.8526 25.4192C10.5926 21.9592 9.00261 16.2292 9.78261 14.9392L24.1626 16.3792L38.5526 14.9392C39.0526 15.7692 38.5726 18.4492 37.5726 21.1592H37.5526Z" fill="url(#paint3_radial_239_7661)"/>
<path d="M37.5526 21.1392V21.1592C36.5226 23.9192 34.9726 26.7092 33.3026 27.7592C30.3126 29.6392 27.4626 30.1392 26.5926 32.5792C25.6226 34.0592 24.7226 41.4292 24.1626 41.3092C23.6026 41.1792 23.0426 36.5092 22.0326 34.1192C22.0026 33.8492 21.9726 33.5592 21.9126 33.2592C21.3626 30.2092 18.2626 29.8092 15.0126 27.7592C14.2626 27.2892 13.5326 26.4592 12.8726 25.4492C12.8626 25.4192 12.8526 25.4092 12.8526 25.4092L37.5626 21.1292L37.5526 21.1392Z" fill="url(#paint4_linear_239_7661)"/>
<path d="M12.3626 24.6392C12.3126 21.3492 36.7626 20.5392 37.3726 21.0792C37.9826 21.6192 33.6826 26.6792 23.1426 27.1592C12.6426 27.6392 12.3626 24.6392 12.3626 24.6392Z" fill="url(#paint5_linear_239_7661)"/>
<path d="M32.1326 51.8992C31.5626 53.7292 18.2726 53.7892 16.1626 51.8992C15.9326 51.6992 15.2126 50.0792 16.0026 48.9692V48.9592C18.0026 46.1792 23.3926 42.4992 24.1426 42.4092C24.9926 42.3092 30.6226 46.1092 32.2326 49.0292C32.2326 49.0392 32.2526 49.0492 32.2526 49.0692C32.6326 49.7692 32.2326 51.5392 32.1226 51.8992H32.1326Z" fill="url(#paint6_linear_239_7661)"/>
<g style="mix-blend-mode:multiply" opacity="0.3">
<path d="M11.3026 28.2492C12.4126 29.0492 18.5426 30.0092 20.6026 31.6392C22.6326 33.2492 22.1626 36.5992 20.6926 37.9292C19.2426 39.2492 19.7026 37.4592 19.0926 34.8692C18.4726 32.2192 11.3026 28.2592 11.3026 28.2592V28.2492Z" fill="#912790"/>
</g>
<g style="mix-blend-mode:multiply" opacity="0.3">
<path d="M37.2826 27.0592C36.1526 28.0592 29.1926 28.6292 27.3326 31.6392C25.5226 34.5692 26.8826 36.5992 27.7526 37.1192C28.6226 37.6392 27.6826 34.7192 29.9526 32.4592C32.2626 30.1592 35.4026 29.0092 37.2826 27.0592Z" fill="#912790"/>
</g>
<path d="M35.4126 27.5192C34.3026 27.0992 36.7826 24.2392 37.3626 22.5292C37.9426 20.8092 38.2226 22.6092 37.8326 25.0492C37.4426 27.4392 35.6026 27.5892 35.4126 27.5192Z" fill="white"/>
<g style="mix-blend-mode:soft-light">
<path d="M7.97261 19.3392C7.37261 20.3192 9.41261 25.7892 11.0526 26.8492C12.6726 27.9092 12.3526 25.7492 12.0526 24.9492C11.7426 24.1392 8.78261 18.0192 7.98261 19.3392H7.97261Z" fill="white"/>
</g>
<path d="M15.8326 41.5392C15.4526 42.8792 17.6726 40.8992 18.6226 39.2892C19.5726 37.6592 16.3626 39.6992 15.8326 41.5392Z" fill="white"/>
<path d="M31.0526 41.0992C30.6526 41.1492 31.3626 44.0392 32.8426 44.2492C34.3226 44.4592 32.9326 40.8592 31.0526 41.0992Z" fill="white"/>
<g style="mix-blend-mode:multiply" opacity="0.5">
<path d="M13.7726 26.0592C13.7726 26.0592 18.8926 30.7192 22.7926 31.1192C26.6726 31.5192 32.2226 28.5492 33.6426 27.1392C35.0726 25.7092 36.4026 23.2092 36.4026 23.2092C36.4026 23.2092 32.7026 26.1892 25.8026 27.0592C18.9526 27.9292 13.7726 26.0592 13.7726 26.0592Z" fill="#E09590"/>
</g>
<g style="mix-blend-mode:multiply" opacity="0.5">
<path d="M32.1326 51.8992C31.5626 53.7292 18.2726 53.7892 16.1626 51.8992C15.9326 51.6992 15.2126 50.0792 16.0026 48.9692C15.9726 49.1792 15.7626 51.8292 21.7726 52.2592C28.0126 52.6992 30.2526 49.6092 31.9926 49.0692C32.0826 49.0392 32.1726 49.0292 32.2426 49.0292C32.2426 49.0392 32.2626 49.0492 32.2626 49.0692C32.6426 49.7692 32.2426 51.5392 32.1326 51.8992Z" fill="#E09590"/>
</g>
<g style="mix-blend-mode:soft-light" opacity="0.5">
<path d="M24.1526 42.4092C23.1426 42.2092 23.9026 47.4592 24.9426 48.9692C25.9626 50.4692 30.2126 49.1392 30.7426 48.4092C31.2826 47.6792 26.0926 42.7992 24.1526 42.4092Z" fill="white"/>
</g>
<g style="mix-blend-mode:multiply" opacity="0.3">
<path d="M4.71262 1.84924C4.71262 1.84924 30.7126 -0.200759 38.5626 2.68924C46.2526 5.51924 25.5626 8.04924 14.0526 7.69924C2.52262 7.33924 0.012619 5.19924 0.012619 5.19924C0.012619 5.19924 14.2826 7.57924 26.3326 6.20924C38.5026 4.82924 2.77262 2.43924 2.77262 2.43924L4.72262 1.84924H4.71262Z" fill="#B10053"/>
</g>
<g style="mix-blend-mode:multiply" opacity="0.3">
<path d="M16.8126 15.4192C16.8126 15.4192 30.9726 14.8192 37.1926 12.3692C43.5326 9.87924 45.6026 6.44924 45.9726 4.90924C46.3526 3.34924 43.9326 1.68924 43.9326 1.68924C43.9326 1.68924 47.6126 3.68924 46.7226 6.16924C45.8426 8.60924 35.5826 14.6592 29.9626 15.7892C24.3826 16.9092 16.8226 15.4092 16.8226 15.4092L16.8126 15.4192Z" fill="#B10053"/>
</g>
<path d="M31.7326 15.3292C31.7326 15.3292 36.2426 14.3592 39.7326 12.5792C43.2726 10.7792 46.2726 6.89923 46.2726 6.89923C46.2726 6.89923 43.8626 10.6092 31.7326 15.3292Z" fill="#FF6500"/>
<g style="mix-blend-mode:multiply" opacity="0.3">
<path d="M10.9226 9.65921C7.27261 10.0092 6.98261 12.1192 7.46261 13.5292C7.94261 14.9292 16.1726 15.4892 22.7526 14.6992C29.3726 13.8992 39.7526 11.0492 40.8626 9.29921C41.9826 7.52921 31.5626 8.93921 25.4826 9.29921C19.4226 9.65921 10.9226 9.65921 10.9226 9.65921Z" fill="#D42F55"/>
</g>
<g style="mix-blend-mode:soft-light" opacity="0.5">
<path d="M11.8926 8.64922C10.6726 8.08922 25.2626 8.24922 30.3926 7.12922C35.5626 5.99922 42.1626 4.77922 43.2026 5.34922C44.2426 5.91922 44.2126 6.28922 43.9326 6.72922C43.6526 7.15922 23.8126 10.5792 11.8926 8.64922Z" fill="white"/>
</g>
<path d="M47.3426 5.45924C46.8426 5.15924 46.0426 6.73924 45.5726 7.72924C45.1026 8.70924 47.4226 6.56924 47.6026 6.06924C47.7826 5.55924 47.3426 5.45924 47.3426 5.45924Z" fill="#FFA457"/>
<path d="M39.8326 54.9992C39.6926 54.4992 40.2526 53.3392 40.3726 53.4192C40.4826 53.4992 41.3626 53.6492 41.1226 54.0892C40.8826 54.5292 39.8326 54.9992 39.8326 54.9992Z" fill="#FFA457"/>
<path style="mix-blend-mode:screen" d="M11.9026 18.1092C10.0626 18.9692 13.5926 26.8892 18.5726 28.8792C23.4726 30.8292 21.5826 22.7592 19.7626 20.3192C17.9026 17.8292 11.9126 18.1192 11.9126 18.1192L11.9026 18.1092Z" fill="url(#paint7_linear_239_7661)"/>
<path d="M33.6226 17.1792C31.2726 17.9592 28.8726 22.7692 29.6226 24.1092C30.3626 25.4292 36.8526 22.4992 37.5426 19.1592C38.2526 15.7292 34.9626 16.7392 33.6226 17.1792Z" fill="white"/>
<g style="mix-blend-mode:multiply" opacity="0.5">
<path d="M4.36261 14.4692C4.29261 14.2592 18.1926 18.9992 25.1126 18.6292C32.0526 18.2592 42.7926 14.4692 42.7926 14.4692L43.0826 13.5492C43.0826 13.5492 30.3026 15.9792 22.5226 16.2292C14.7526 16.4892 4.06261 13.5492 4.06261 13.5492L4.36261 14.4792V14.4692Z" fill="#9A376D"/>
</g>
<g style="mix-blend-mode:multiply" opacity="0.5">
<path d="M26.1726 30.8092C24.0626 30.0192 29.3726 26.4392 32.7926 25.5692C36.2326 24.6992 32.7526 27.7692 31.3426 28.7292C29.9526 29.6792 26.1726 30.8092 26.1726 30.8092Z" fill="#E09590"/>
</g>
<g style="mix-blend-mode:multiply" opacity="0.5">
<path d="M35.7026 53.1892C35.7026 53.1892 31.8826 54.5492 23.6626 54.5492C14.9226 54.5492 11.6226 53.1892 11.6226 53.1892C11.6226 53.1892 11.4426 50.4592 11.8426 47.5792C11.8426 47.5792 11.9626 52.0492 13.1226 53.1992C14.2626 54.3492 27.7826 54.2892 31.8326 53.7292C35.9026 53.1692 35.5726 48.4292 35.5726 48.4292C35.8426 50.9792 35.7126 53.1892 35.7126 53.1892H35.7026Z" fill="#9A376D"/>
</g>
<path d="M26.4426 40.8592C24.5326 41.1292 25.4426 44.6092 27.2226 45.4792C29.0026 46.3492 28.7826 42.4892 28.4826 41.8992C28.1926 41.3192 27.0526 40.7692 26.4326 40.8592H26.4426Z" fill="white"/>
<defs>
<linearGradient id="paint0_linear_239_7661" x1="6.63261" y1="57.1692" x2="41.7026" y2="57.1692" gradientUnits="userSpaceOnUse">
<stop stop-color="#A71100"/>
<stop offset="0.39" stop-color="#D83303"/>
<stop offset="1" stop-color="#EC5C11"/>
</linearGradient>
<linearGradient id="paint1_linear_239_7661" x1="23.5726" y1="54.5492" x2="23.5726" y2="13.5292" gradientUnits="userSpaceOnUse">
<stop stop-color="#E8E5ED"/>
<stop offset="0.05" stop-color="#E5DDE9"/>
<stop offset="0.28" stop-color="#DABBDC"/>
<stop offset="0.46" stop-color="#D3A6D4"/>
<stop offset="0.59" stop-color="#D19FD1"/>
<stop offset="0.64" stop-color="#BE91C3"/>
<stop offset="0.72" stop-color="#A47FB0"/>
<stop offset="0.81" stop-color="#9272A2"/>
<stop offset="0.9" stop-color="#876A9A"/>
<stop offset="1" stop-color="#846898"/>
</linearGradient>
<linearGradient id="paint2_linear_239_7661" x1="0.012619" y1="10.5592" x2="48.3326" y2="10.5592" gradientUnits="userSpaceOnUse">
<stop stop-color="#A71100"/>
<stop offset="0.39" stop-color="#D83303"/>
<stop offset="1" stop-color="#EC5C11"/>
</linearGradient>
<radialGradient id="paint3_radial_239_7661" cx="0" cy="0" r="1" gradientUnits="userSpaceOnUse" gradientTransform="translate(24.1526 36.7188) scale(16.21 25.6118)">
<stop stop-color="#E8E5ED"/>
<stop offset="0.14" stop-color="#E2DCE3"/>
<stop offset="0.42" stop-color="#DAD1D4"/>
<stop offset="0.66" stop-color="#D8CDD0"/>
<stop offset="0.68" stop-color="#D4C5CE"/>
<stop offset="0.75" stop-color="#C7ABC8"/>
<stop offset="0.83" stop-color="#BE99C5"/>
<stop offset="0.91" stop-color="#B88EC2"/>
<stop offset="1" stop-color="#B78BC2"/>
</radialGradient>
<linearGradient id="paint4_linear_239_7661" x1="25.2026" y1="41.3192" x2="25.2026" y2="21.1392" gradientUnits="userSpaceOnUse">
<stop stop-color="#FFA900"/>
<stop offset="1" stop-color="#FF9600"/>
</linearGradient>
<linearGradient id="paint5_linear_239_7661" x1="12.3626" y1="24.0692" x2="37.4326" y2="24.0692" gradientUnits="userSpaceOnUse">
<stop stop-color="#FFB100"/>
<stop offset="1" stop-color="#FFC500"/>
</linearGradient>
<linearGradient id="paint6_linear_239_7661" x1="24.0326" y1="53.2992" x2="24.0326" y2="42.4092" gradientUnits="userSpaceOnUse">
<stop stop-color="#FF9600"/>
<stop offset="1" stop-color="#FFA900"/>
</linearGradient>
<linearGradient id="paint7_linear_239_7661" x1="11.4026" y1="23.6292" x2="21.6826" y2="23.6292" gradientUnits="userSpaceOnUse">
<stop offset="0.02" stop-color="#008DFE"/>
<stop offset="1"/>
</linearGradient>
</defs>
</svg>
