<svg width="40" height="40" viewBox="0 0 40 40" fill="none" xmlns="http://www.w3.org/2000/svg">
<path fill-rule="evenodd" clip-rule="evenodd" d="M35.5556 40H4.44444C1.99 40 0 38.01 0 35.5556V4.44444C0 1.99 1.99 0 4.44444 0H35.5556C38.01 0 40 1.99 40 4.44444V35.5556C40 38.01 38.01 40 35.5556 40Z" fill="#212121"/>
<path fill-rule="evenodd" clip-rule="evenodd" d="M31.3967 31.1111H24.2444L8.69889 8.88889H15.8511L31.3967 31.1111ZM25.0967 29.2267H27.9444L14.9989 10.7733H12.1511L25.0967 29.2267Z" fill="white"/>
<path fill-rule="evenodd" clip-rule="evenodd" d="M10.9622 31.1111L18.9656 21.84L17.9189 20.4522L8.69222 31.1111H10.9622Z" fill="white"/>
<path fill-rule="evenodd" clip-rule="evenodd" d="M20.5 17.4678L21.5056 18.9L30.1511 8.88889H27.9289L20.5 17.4678Z" fill="white"/>
</svg>
